SplineFontDB: 3.2
FontName: KoreeneSans-MediumItalic
FullName: Koreene Sans Medium Italic
FamilyName: Koreene Sans Medium
Weight: Medium
Copyright: (C) Copyright HanYang I&C Co.,Ltd. All rights reserved.
Version: 2.50; ttfautohint (v1.8.4.7-5d5b-dirty)
ItalicAngle: -9.4
UnderlinePosition: -244
UnderlineWidth: 90
Ascent: 1638
Descent: 410
InvalidEm: 0
sfntRevision: 0x00020147
LayerCount: 2
Layer: 0 1 "Back" 1
Layer: 1 1 "Fore" 0
XUID: [1021 531 -1996577725 4945778]
StyleMap: 0x0001
FSType: 0
OS2Version: 4
OS2_WeightWidthSlopeOnly: 0
OS2_UseTypoMetrics: 1
CreationTime: 1068260456
ModificationTime: 1706985773
PfmFamily: 81
TTFWeight: 500
TTFWidth: 5
LineGap: 512
VLineGap: 0
Panose: 0 0 0 0 0 0 0 0 0 0
OS2TypoAscent: 1940
OS2TypoAOffset: 0
OS2TypoDescent: -470
OS2TypoDOffset: 0
OS2TypoLinegap: 512
OS2WinAscent: 2196
OS2WinAOffset: 0
OS2WinDescent: 726
OS2WinDOffset: 0
HheadAscent: 1940
HheadAOffset: 0
HheadDescent: -470
HheadDOffset: 0
OS2SubXSize: 410
OS2SubYSize: 410
OS2SubXOff: 0
OS2SubYOff: 574
OS2SupXSize: 410
OS2SupYSize: 410
OS2SupXOff: 0
OS2SupYOff: 1926
OS2StrikeYSize: 204
OS2StrikeYPos: 1024
OS2CapHeight: 1470
OS2XHeight: 1062
OS2Vendor: 'HY  '
OS2CodePages: 2000019f.00000000
OS2UnicodeRanges: e10002ff.4000001b.00000000.00000000
Lookup: 1 0 0 "'aalt' Access All Alternates lookup 0" { "'aalt' Access All Alternates lookup 0 subtable"  } ['aalt' ('DFLT' <'dflt' > 'cyrl' <'dflt' > 'grek' <'dflt' > 'hang' <'dflt' > 'jamo' <'dflt' > 'latn' <'dflt' > ) ]
Lookup: 3 0 0 "'aalt' Access All Alternates lookup 1" { "'aalt' Access All Alternates lookup 1 subtable"  } ['aalt' ('DFLT' <'dflt' > 'cyrl' <'dflt' > 'grek' <'dflt' > 'hang' <'dflt' > 'jamo' <'dflt' > 'latn' <'dflt' > ) ]
Lookup: 1 0 0 "'locl' Localized Forms in Latin lookup 2" { "'locl' Localized Forms in Latin lookup 2 subtable"  } ['locl' ('latn' <'MOL ' > ) ]
Lookup: 1 0 0 "'locl' Localized Forms in Latin lookup 3" { "'locl' Localized Forms in Latin lookup 3 subtable"  } ['locl' ('latn' <'ROM ' > ) ]

StartChar: exclam
Encoding: 33 33 4
Width: 582
GlyphClass: 2
Flags: W
LayerCount: 2
Fore
SplineSet
64 -16 m 1,0,-1
 104 230 l 1,1,-1
 368 230 l 1,2,-1
 328 -16 l 1,3,-1
 64 -16 l 1,0,-1
350 410 m 1,4,-1
 184 410 l 1,5,-1
 342 1474 l 1,6,-1
 542 1474 l 1,7,-1
 350 410 l 1,4,-1
EndSplineSet
EndChar

StartChar: quotedbl
Encoding: 34 34 5
Width: 986
GlyphClass: 2
Flags: W
LayerCount: 2
Fore
SplineSet
614 1060 m 1,0,-1
 872 1644 l 1,1,-1
 1104 1644 l 1,2,-1
 756 1060 l 1,3,-1
 614 1060 l 1,0,-1
202 1060 m 1,4,-1
 462 1644 l 1,5,-1
 696 1644 l 1,6,-1
 346 1060 l 1,7,-1
 202 1060 l 1,4,-1
EndSplineSet
EndChar

StartChar: numbersign
Encoding: 35 35 6
Width: 1390
GlyphClass: 2
Flags: W
LayerCount: 2
Fore
SplineSet
60 392 m 1,0,-1
 84 532 l 1,1,-1
 328 532 l 1,2,-1
 438 898 l 1,3,-1
 204 898 l 1,4,-1
 228 1036 l 1,5,-1
 478 1036 l 1,6,-1
 594 1424 l 1,7,-1
 756 1424 l 1,8,-1
 642 1036 l 1,9,-1
 994 1036 l 1,10,-1
 1108 1424 l 1,11,-1
 1270 1424 l 1,12,-1
 1154 1036 l 1,13,-1
 1382 1036 l 1,14,-1
 1360 898 l 1,15,-1
 1114 898 l 1,16,-1
 1006 532 l 1,17,-1
 1240 532 l 1,18,-1
 1216 392 l 1,19,-1
 968 392 l 1,20,-1
 852 4 l 1,21,-1
 686 4 l 1,22,-1
 802 392 l 1,23,-1
 452 392 l 1,24,-1
 336 4 l 1,25,-1
 172 4 l 1,26,-1
 288 392 l 1,27,-1
 60 392 l 1,0,-1
492 532 m 1,28,-1
 842 532 l 1,29,-1
 952 898 l 1,30,-1
 598 898 l 1,31,-1
 492 532 l 1,28,-1
EndSplineSet
EndChar

StartChar: dollar
Encoding: 36 36 7
Width: 1130
GlyphClass: 2
Flags: W
LayerCount: 2
Fore
SplineSet
54 282 m 1,0,-1
 202 350 l 1,1,2
 244 262 244 262 327 208 c 128,-1,3
 410 154 410 154 506 154 c 0,4,5
 618 154 618 154 704 213 c 128,-1,6
 790 272 790 272 810 388 c 0,7,8
 818 434 818 434 806 472 c 128,-1,9
 794 510 794 510 779 535 c 128,-1,10
 764 560 764 560 718 589 c 128,-1,11
 672 618 672 618 644 634 c 128,-1,12
 616 650 616 650 545 681 c 128,-1,13
 474 712 474 712 440 730 c 0,14,15
 312 794 312 794 260 881 c 128,-1,16
 208 968 208 968 228 1098 c 0,17,18
 250 1226 250 1226 359 1333 c 128,-1,19
 468 1440 468 1440 634 1460 c 1,20,-1
 660 1624 l 1,21,-1
 828 1624 l 1,22,-1
 800 1458 l 1,23,24
 904 1450 904 1450 988 1377 c 128,-1,25
 1072 1304 1072 1304 1096 1220 c 1,26,-1
 946 1152 l 1,27,28
 864 1314 864 1314 694 1314 c 0,29,30
 580 1314 580 1314 503 1252 c 128,-1,31
 426 1190 426 1190 410 1096 c 0,32,33
 400 1040 400 1040 410 1002 c 128,-1,34
 420 964 420 964 474 924 c 128,-1,35
 528 884 528 884 554 872 c 128,-1,36
 580 860 580 860 680 814 c 0,37,38
 708 800 708 800 722 794 c 0,39,40
 788 764 788 764 835 734 c 128,-1,41
 882 704 882 704 927 658 c 128,-1,42
 972 612 972 612 989 547 c 128,-1,43
 1006 482 1006 482 994 402 c 0,44,45
 966 234 966 234 846 130 c 128,-1,46
 726 26 726 26 560 4 c 1,47,-1
 534 -148 l 1,48,-1
 368 -148 l 1,49,-1
 394 8 l 1,50,51
 286 18 286 18 188 93 c 128,-1,52
 90 168 90 168 54 282 c 1,0,-1
EndSplineSet
EndChar

StartChar: percent
Encoding: 37 37 8
Width: 1904
GlyphClass: 2
Flags: W
LayerCount: 2
Fore
SplineSet
992 326 m 256,0,1
 1018 484 1018 484 1140 585 c 128,-1,2
 1262 686 1262 686 1428 686 c 0,3,4
 1590 686 1590 686 1680 585 c 128,-1,5
 1770 484 1770 484 1744 326 c 0,6,7
 1718 164 1718 164 1594 65 c 128,-1,8
 1470 -34 1470 -34 1308 -34 c 0,9,10
 1148 -34 1148 -34 1057 67 c 128,-1,11
 966 168 966 168 992 326 c 256,0,1
1160 326 m 256,12,13
 1144 226 1144 226 1195 166 c 128,-1,14
 1246 106 1246 106 1332 106 c 256,15,16
 1418 106 1418 106 1487 166 c 128,-1,17
 1556 226 1556 226 1574 326 c 256,18,19
 1590 426 1590 426 1541 486 c 128,-1,20
 1492 546 1492 546 1404 546 c 0,21,22
 1318 546 1318 546 1247 486 c 128,-1,23
 1176 426 1176 426 1160 326 c 256,12,13
218 1144 m 0,24,25
 244 1302 244 1302 365 1403 c 128,-1,26
 486 1504 486 1504 654 1504 c 0,27,28
 818 1504 818 1504 907 1403 c 128,-1,29
 996 1302 996 1302 970 1144 c 0,30,31
 944 984 944 984 820 884 c 128,-1,32
 696 784 696 784 534 784 c 256,33,34
 372 784 372 784 282 884 c 128,-1,35
 192 984 192 984 218 1144 c 0,24,25
388 1144 m 256,36,37
 372 1044 372 1044 422 984 c 128,-1,38
 472 924 472 924 558 924 c 256,39,40
 642 924 642 924 714 985 c 128,-1,41
 786 1046 786 1046 802 1144 c 0,42,43
 818 1244 818 1244 768 1304 c 128,-1,44
 718 1364 718 1364 630 1364 c 0,45,46
 544 1364 544 1364 474 1304 c 128,-1,47
 404 1244 404 1244 388 1144 c 256,36,37
252 -4 m 1,48,-1
 1524 1474 l 1,49,-1
 1710 1474 l 1,50,-1
 436 -4 l 1,51,-1
 252 -4 l 1,48,-1
EndSplineSet
EndChar

StartChar: ampersand
Encoding: 38 38 9
Width: 1270
GlyphClass: 2
Flags: W
LayerCount: 2
Fore
SplineSet
250 378 m 0,0,1
 230 258 230 258 296 189 c 128,-1,2
 362 120 362 120 482 120 c 0,3,4
 644 120 644 120 802 276 c 1,5,-1
 540 740 l 1,6,7
 282 574 282 574 250 378 c 0,0,1
68 376 m 0,8,9
 114 656 114 656 472 868 c 1,10,11
 428 948 428 948 414 977 c 128,-1,12
 400 1006 400 1006 388 1061 c 128,-1,13
 376 1116 376 1116 384 1172 c 0,14,15
 406 1304 406 1304 518 1394 c 128,-1,16
 630 1484 630 1484 798 1484 c 0,17,18
 942 1484 942 1484 1027 1412 c 128,-1,19
 1112 1340 1112 1340 1144 1228 c 1,20,-1
 996 1166 l 1,21,22
 972 1234 972 1234 918 1283 c 128,-1,23
 864 1332 864 1332 788 1332 c 0,24,25
 698 1332 698 1332 639 1284 c 128,-1,26
 580 1236 580 1236 568 1166 c 0,27,28
 556 1092 556 1092 635 933 c 128,-1,29
 714 774 714 774 920 426 c 1,30,31
 992 544 992 544 1042 696 c 1,32,-1
 1202 666 l 1,33,34
 1134 454 1134 454 1006 280 c 1,35,-1
 1172 0 l 1,36,-1
 960 0 l 1,37,-1
 878 138 l 1,38,39
 686 -34 686 -34 452 -34 c 0,40,41
 236 -34 236 -34 137 83 c 128,-1,42
 38 200 38 200 68 376 c 0,8,9
EndSplineSet
EndChar

StartChar: quotesingle
Encoding: 39 39 10
Width: 602
GlyphClass: 2
Flags: W
LayerCount: 2
Fore
SplineSet
226 1060 m 1,0,-1
 484 1644 l 1,1,-1
 716 1644 l 1,2,-1
 368 1060 l 1,3,-1
 226 1060 l 1,0,-1
EndSplineSet
EndChar

StartChar: parenleft
Encoding: 40 40 11
Width: 840
GlyphClass: 2
Flags: W
LayerCount: 2
Fore
SplineSet
282 706 m 0,0,1
 374 1264 374 1264 780 1704 c 1,2,-1
 896 1630 l 1,3,4
 824 1538 824 1538 797 1503 c 128,-1,5
 770 1468 770 1468 703 1366 c 128,-1,6
 636 1264 636 1264 600 1184 c 128,-1,7
 564 1104 564 1104 522 975 c 128,-1,8
 480 846 480 846 458 706 c 0,9,10
 430 540 430 540 430 401 c 128,-1,11
 430 262 430 262 458 145 c 128,-1,12
 486 28 486 28 514 -43 c 128,-1,13
 542 -114 542 -114 590 -218 c 1,14,-1
 450 -292 l 1,15,16
 332 -86 332 -86 281 150 c 128,-1,17
 230 386 230 386 282 706 c 0,0,1
EndSplineSet
Substitution2: "'sups' Superscript lookup 5 subtable" uni207D
Substitution2: "'aalt' Access All Alternates lookup 0 subtable" uni207D
EndChar

StartChar: parenright
Encoding: 41 41 12
Width: 840
GlyphClass: 2
Flags: W
LayerCount: 2
Fore
SplineSet
-10 -218 m 1,0,1
 170 -2 170 -2 276 209 c 128,-1,2
 382 420 382 420 430 706 c 0,3,4
 458 870 458 870 457 1008 c 128,-1,5
 456 1146 456 1146 429 1263 c 128,-1,6
 402 1380 402 1380 374 1453 c 128,-1,7
 346 1526 346 1526 296 1630 c 1,8,-1
 440 1704 l 1,9,10
 700 1260 700 1260 608 706 c 0,11,12
 556 386 556 386 426 149 c 128,-1,13
 296 -88 296 -88 110 -292 c 1,14,-1
 -10 -218 l 1,0,1
EndSplineSet
Substitution2: "'sups' Superscript lookup 5 subtable" uni207E
Substitution2: "'aalt' Access All Alternates lookup 0 subtable" uni207E
EndChar

StartChar: asterisk
Encoding: 42 42 13
Width: 1086
GlyphClass: 2
Flags: W
LayerCount: 2
Fore
SplineSet
80 822 m 1,0,-1
 170 972 l 1,1,-1
 516 826 l 1,2,-1
 564 1206 l 1,3,-1
 734 1206 l 1,4,-1
 658 826 l 1,5,-1
 1052 972 l 1,6,-1
 1090 822 l 1,7,-1
 674 688 l 1,8,-1
 914 358 l 1,9,-1
 764 258 l 1,10,-1
 548 610 l 1,11,-1
 220 258 l 1,12,-1
 104 358 l 1,13,-1
 454 688 l 1,14,-1
 80 822 l 1,0,-1
EndSplineSet
EndChar

StartChar: plus
Encoding: 43 43 14
Width: 1084
GlyphClass: 2
Flags: W
LayerCount: 2
Fore
SplineSet
62 648 m 1,0,-1
 88 808 l 1,1,-1
 494 808 l 1,2,-1
 562 1218 l 1,3,-1
 736 1218 l 1,4,-1
 670 808 l 1,5,-1
 1074 808 l 1,6,-1
 1048 648 l 1,7,-1
 642 648 l 1,8,-1
 572 222 l 1,9,-1
 398 222 l 1,10,-1
 468 648 l 1,11,-1
 62 648 l 1,0,-1
EndSplineSet
Substitution2: "'sups' Superscript lookup 5 subtable" uni207A
Substitution2: "'aalt' Access All Alternates lookup 0 subtable" uni207A
EndChar

StartChar: comma
Encoding: 44 44 15
Width: 550
GlyphClass: 2
Flags: W
LayerCount: 2
Fore
SplineSet
-118 -332 m 1,0,-1
 142 252 l 1,1,-1
 376 252 l 1,2,-1
 26 -332 l 1,3,-1
 -118 -332 l 1,0,-1
EndSplineSet
EndChar

StartChar: hyphen
Encoding: 45 45 16
Width: 756
GlyphClass: 2
Flags: W
LayerCount: 2
Fore
SplineSet
74 648 m 1,0,-1
 100 808 l 1,1,-1
 734 808 l 1,2,-1
 708 648 l 1,3,-1
 74 648 l 1,0,-1
EndSplineSet
EndChar

StartChar: period
Encoding: 46 46 17
Width: 550
GlyphClass: 2
Flags: W
LayerCount: 2
Fore
SplineSet
48 0 m 1,0,-1
 88 252 l 1,1,-1
 354 252 l 1,2,-1
 312 0 l 1,3,-1
 48 0 l 1,0,-1
EndSplineSet
EndChar

StartChar: slash
Encoding: 47 47 18
Width: 690
GlyphClass: 2
Flags: W
LayerCount: 2
Fore
SplineSet
-136 -110 m 1,0,-1
 696 1562 l 1,1,-1
 882 1562 l 1,2,-1
 50 -110 l 1,3,-1
 -136 -110 l 1,0,-1
EndSplineSet
EndChar

StartChar: zero
Encoding: 48 48 19
Width: 1100
GlyphClass: 2
Flags: W
LayerCount: 2
Fore
SplineSet
310 734 m 0,0,1
 280 552 280 552 284 420 c 128,-1,2
 288 288 288 288 336 204 c 128,-1,3
 384 120 384 120 480 120 c 0,4,5
 554 120 554 120 616 170 c 128,-1,6
 678 220 678 220 722 309 c 128,-1,7
 766 398 766 398 796 502 c 128,-1,8
 826 606 826 606 848 734 c 0,9,10
 894 1014 894 1014 856 1183 c 128,-1,11
 818 1352 818 1352 680 1352 c 256,12,13
 542 1352 542 1352 450 1185 c 128,-1,14
 358 1018 358 1018 310 734 c 0,0,1
120 734 m 0,15,16
 154 944 154 944 220 1100 c 128,-1,17
 286 1256 286 1256 367 1341 c 128,-1,18
 448 1426 448 1426 532 1465 c 128,-1,19
 616 1504 616 1504 704 1504 c 0,20,21
 922 1504 922 1504 1009 1304 c 128,-1,22
 1096 1104 1096 1104 1036 734 c 0,23,24
 978 388 978 388 829 177 c 128,-1,25
 680 -34 680 -34 454 -34 c 0,26,27
 366 -34 366 -34 294 6 c 128,-1,28
 222 46 222 46 169 133 c 128,-1,29
 116 220 116 220 101 374 c 128,-1,30
 86 528 86 528 120 734 c 0,15,16
EndSplineSet
EndChar

StartChar: one
Encoding: 49 49 20
Width: 1100
GlyphClass: 2
Flags: W
LayerCount: 2
Fore
SplineSet
268 1094 m 1,0,-1
 290 1236 l 1,1,-1
 352 1236 l 2,2,3
 520 1236 520 1236 588 1291 c 0,4,5
 666 1356 666 1356 676 1444 c 2,6,-1
 678 1462 l 1,7,-1
 838 1462 l 1,8,-1
 596 0 l 1,9,-1
 406 0 l 1,10,-1
 586 1094 l 1,11,-1
 268 1094 l 1,0,-1
EndSplineSet
Substitution2: "'subs' Subscript lookup 6 subtable" uni2081
Substitution2: "'sups' Superscript lookup 5 subtable" onesuperior
Substitution2: "'sinf' Scientific Inferiors lookup 4 subtable" uni2081
AlternateSubs2: "'aalt' Access All Alternates lookup 1 subtable" uni2081 onesuperior
EndChar

StartChar: two
Encoding: 50 50 21
Width: 1100
GlyphClass: 2
Flags: W
LayerCount: 2
Fore
SplineSet
190 1128 m 1,0,1
 260 1302 260 1302 390 1403 c 128,-1,2
 520 1504 520 1504 700 1504 c 0,3,4
 888 1504 888 1504 990 1395 c 128,-1,5
 1092 1286 1092 1286 1060 1092 c 0,6,7
 1024 872 1024 872 766 656 c 0,8,9
 744 636 744 636 678 582 c 128,-1,10
 612 528 612 528 593 511 c 128,-1,11
 574 494 574 494 523 450 c 128,-1,12
 472 406 472 406 453 387 c 128,-1,13
 434 368 434 368 397 331 c 128,-1,14
 360 294 360 294 342 270 c 128,-1,15
 324 246 324 246 301 215 c 128,-1,16
 278 184 278 184 260 154 c 1,17,-1
 902 154 l 1,18,-1
 876 0 l 1,19,-1
 14 0 l 1,20,21
 28 80 28 80 73 165 c 128,-1,22
 118 250 118 250 165 312 c 128,-1,23
 212 374 212 374 309 465 c 128,-1,24
 406 556 406 556 459 601 c 128,-1,25
 512 646 512 646 634 746 c 0,26,27
 844 920 844 920 872 1096 c 0,28,29
 892 1218 892 1218 836 1285 c 128,-1,30
 780 1352 780 1352 672 1352 c 0,31,32
 560 1352 560 1352 476 1280 c 128,-1,33
 392 1208 392 1208 342 1082 c 1,34,-1
 190 1128 l 1,0,1
EndSplineSet
Substitution2: "'subs' Subscript lookup 6 subtable" uni2082
Substitution2: "'sups' Superscript lookup 5 subtable" twosuperior
Substitution2: "'sinf' Scientific Inferiors lookup 4 subtable" uni2082
AlternateSubs2: "'aalt' Access All Alternates lookup 1 subtable" uni2082 twosuperior
EndChar

StartChar: three
Encoding: 51 51 22
Width: 1100
GlyphClass: 2
Flags: W
LayerCount: 2
Fore
SplineSet
22 268 m 1,0,-1
 184 328 l 1,1,2
 248 120 248 120 456 120 c 0,3,4
 580 120 580 120 676 196 c 128,-1,5
 772 272 772 272 796 412 c 0,6,7
 818 544 818 544 738 620 c 128,-1,8
 658 696 658 696 522 696 c 0,9,10
 470 696 470 696 400 690 c 1,11,-1
 426 844 l 1,12,13
 468 840 468 840 540 840 c 0,14,15
 656 840 656 840 744 910 c 128,-1,16
 832 980 832 980 854 1104 c 0,17,18
 872 1212 872 1212 816 1282 c 128,-1,19
 760 1352 760 1352 652 1352 c 0,20,21
 476 1352 476 1352 354 1132 c 1,22,-1
 212 1182 l 1,23,24
 278 1326 278 1326 400 1415 c 128,-1,25
 522 1504 522 1504 686 1504 c 0,26,27
 880 1504 880 1504 977 1395 c 128,-1,28
 1074 1286 1074 1286 1046 1122 c 0,29,30
 1026 998 1026 998 946 908 c 128,-1,31
 866 818 866 818 770 778 c 1,32,33
 874 746 874 746 941 653 c 128,-1,34
 1008 560 1008 560 984 412 c 0,35,36
 948 200 948 200 799 83 c 128,-1,37
 650 -34 650 -34 432 -34 c 0,38,39
 262 -34 262 -34 155 53 c 128,-1,40
 48 140 48 140 22 268 c 1,0,-1
EndSplineSet
Substitution2: "'subs' Subscript lookup 6 subtable" uni2083
Substitution2: "'sups' Superscript lookup 5 subtable" threesuperior
Substitution2: "'sinf' Scientific Inferiors lookup 4 subtable" uni2083
AlternateSubs2: "'aalt' Access All Alternates lookup 1 subtable" uni2083 threesuperior
EndChar

StartChar: four
Encoding: 52 52 23
Width: 1100
GlyphClass: 2
Flags: W
LayerCount: 2
Fore
SplineSet
214 478 m 1,0,-1
 668 478 l 1,1,-1
 760 976 l 6,2,3
 792 1146 792 1146 804 1198 c 5,4,-1
 796 1198 l 5,5,-1
 644 1002 l 5,6,-1
 214 478 l 1,0,-1
36 466 m 1,7,-1
 862 1470 l 5,8,-1
 1024 1470 l 5,9,-1
 852 470 l 1,10,-1
 1050 470 l 1,11,-1
 1024 316 l 1,12,-1
 826 316 l 1,13,-1
 772 0 l 1,14,-1
 588 0 l 1,15,-1
 644 316 l 1,16,-1
 10 316 l 1,17,-1
 36 466 l 1,7,-1
EndSplineSet
Substitution2: "'subs' Subscript lookup 6 subtable" uni2084
Substitution2: "'sups' Superscript lookup 5 subtable" uni2074
Substitution2: "'sinf' Scientific Inferiors lookup 4 subtable" uni2084
AlternateSubs2: "'aalt' Access All Alternates lookup 1 subtable" uni2084 uni2074
EndChar

StartChar: five
Encoding: 53 53 24
Width: 1100
GlyphClass: 2
Flags: W
LayerCount: 2
Fore
SplineSet
36 250 m 1,0,-1
 198 306 l 1,1,2
 226 222 226 222 289 171 c 128,-1,3
 352 120 352 120 440 120 c 0,4,5
 574 120 574 120 665 210 c 128,-1,6
 756 300 756 300 780 446 c 256,7,8
 804 592 804 592 738 683 c 128,-1,9
 672 774 672 774 542 774 c 0,10,11
 392 774 392 774 258 644 c 1,12,-1
 154 688 l 1,13,-1
 358 1470 l 1,14,-1
 1054 1470 l 1,15,-1
 1028 1316 l 1,16,-1
 500 1316 l 1,17,-1
 376 852 l 1,18,19
 494 926 494 926 632 926 c 0,20,21
 814 926 814 926 910 797 c 128,-1,22
 1006 668 1006 668 970 450 c 0,23,24
 936 250 936 250 794 108 c 128,-1,25
 652 -34 652 -34 418 -34 c 0,26,27
 264 -34 264 -34 168 44 c 128,-1,28
 72 122 72 122 36 250 c 1,0,-1
EndSplineSet
EndChar

StartChar: six
Encoding: 54 54 25
Width: 1100
GlyphClass: 2
Flags: W
LayerCount: 2
Fore
SplineSet
272 460 m 0,0,1
 248 310 248 310 309 215 c 128,-1,2
 370 120 370 120 490 120 c 0,3,4
 608 120 608 120 699 213 c 128,-1,5
 790 306 790 306 816 460 c 0,6,7
 842 618 842 618 781 712 c 128,-1,8
 720 806 720 806 600 806 c 0,9,10
 484 806 484 806 390 707 c 128,-1,11
 296 608 296 608 272 460 c 0,0,1
112 658 m 0,12,13
 140 822 140 822 192 968 c 128,-1,14
 244 1114 244 1114 323 1237 c 128,-1,15
 402 1360 402 1360 517 1432 c 128,-1,16
 632 1504 632 1504 766 1504 c 0,17,18
 1030 1504 1030 1504 1114 1228 c 1,19,-1
 960 1176 l 1,20,21
 892 1352 892 1352 742 1352 c 0,22,23
 498 1352 498 1352 364 934 c 0,24,25
 328 828 328 828 314 760 c 1,26,27
 366 848 366 848 456 904 c 128,-1,28
 546 960 546 960 654 960 c 0,29,30
 844 960 844 960 940 818 c 128,-1,31
 1036 676 1036 676 1000 462 c 256,32,33
 964 248 964 248 822 107 c 128,-1,34
 680 -34 680 -34 472 -34 c 0,35,36
 252 -34 252 -34 158 122 c 0,37,38
 50 286 50 286 112 658 c 0,12,13
EndSplineSet
EndChar

StartChar: seven
Encoding: 55 55 26
Width: 1100
GlyphClass: 2
Flags: W
LayerCount: 2
Fore
SplineSet
208 1310 m 1,0,-1
 234 1470 l 1,1,-1
 1134 1470 l 1,2,-1
 1114 1342 l 1,3,4
 630 716 630 716 356 0 c 5,5,-1
 168 0 l 5,6,7
 396 624 396 624 894 1310 c 1,8,-1
 208 1310 l 1,0,-1
EndSplineSet
EndChar

StartChar: eight
Encoding: 56 56 27
Width: 1100
GlyphClass: 2
Flags: W
LayerCount: 2
Fore
SplineSet
404 1102 m 0,0,1
 386 990 386 990 442 923 c 128,-1,2
 498 856 498 856 598 856 c 0,3,4
 702 856 702 856 781 925 c 128,-1,5
 860 994 860 994 878 1102 c 256,6,7
 896 1210 896 1210 840 1281 c 128,-1,8
 784 1352 784 1352 680 1352 c 0,9,10
 574 1352 574 1352 498 1279 c 128,-1,11
 422 1206 422 1206 404 1102 c 0,0,1
54 396 m 0,12,13
 80 552 80 552 173 648 c 128,-1,14
 266 744 266 744 384 782 c 1,15,16
 180 886 180 886 216 1112 c 0,17,18
 244 1280 244 1280 382 1392 c 128,-1,19
 520 1504 520 1504 706 1504 c 0,20,21
 888 1504 888 1504 992 1393 c 128,-1,22
 1096 1282 1096 1282 1068 1112 c 0,23,24
 1048 986 1048 986 970 904 c 128,-1,25
 892 822 892 822 790 782 c 1,26,27
 900 744 900 744 962 646 c 128,-1,28
 1024 548 1024 548 998 394 c 0,29,30
 966 206 966 206 812 86 c 128,-1,31
 658 -34 658 -34 450 -34 c 0,32,33
 252 -34 252 -34 137 82 c 128,-1,34
 22 198 22 198 54 396 c 0,12,13
244 406 m 0,35,36
 224 282 224 282 289 201 c 128,-1,37
 354 120 354 120 476 120 c 0,38,39
 600 120 600 120 695 202 c 128,-1,40
 790 284 790 284 810 406 c 0,41,42
 830 530 830 530 762 617 c 128,-1,43
 694 704 694 704 572 704 c 0,44,45
 454 704 454 704 359 618 c 128,-1,46
 264 532 264 532 244 406 c 0,35,36
EndSplineSet
EndChar

StartChar: nine
Encoding: 57 57 28
Width: 1100
GlyphClass: 2
Flags: W
LayerCount: 2
Fore
SplineSet
340 1012 m 0,0,1
 314 860 314 860 378 765 c 128,-1,2
 442 670 442 670 552 670 c 0,3,4
 666 670 666 670 759 766 c 128,-1,5
 852 862 852 862 876 1010 c 0,6,7
 900 1154 900 1154 841 1253 c 128,-1,8
 782 1352 782 1352 664 1352 c 0,9,10
 548 1352 548 1352 456 1257 c 128,-1,11
 364 1162 364 1162 340 1012 c 0,0,1
34 248 m 1,12,-1
 194 300 l 1,13,14
 220 222 220 222 277 171 c 128,-1,15
 334 120 334 120 420 120 c 256,16,17
 506 120 506 120 577 168 c 128,-1,18
 648 216 648 216 698 301 c 128,-1,19
 748 386 748 386 781 485 c 128,-1,20
 814 584 814 584 834 700 c 1,21,22
 786 626 786 626 699 572 c 128,-1,23
 612 518 612 518 500 518 c 0,24,25
 326 518 326 518 222 651 c 128,-1,26
 118 784 118 784 154 1010 c 0,27,28
 190 1228 190 1228 343 1366 c 128,-1,29
 496 1504 496 1504 690 1504 c 0,30,31
 854 1504 854 1504 951 1395 c 128,-1,32
 1048 1286 1048 1286 1056 1114 c 0,33,34
 1064 994 1064 994 1032 808 c 0,35,36
 966 412 966 412 808 189 c 128,-1,37
 650 -34 650 -34 392 -34 c 0,38,39
 246 -34 246 -34 154 51 c 128,-1,40
 62 136 62 136 34 248 c 1,12,-1
EndSplineSet
EndChar

StartChar: colon
Encoding: 58 58 29
Width: 550
GlyphClass: 2
Flags: W
LayerCount: 2
Fore
SplineSet
48 0 m 1,0,-1
 88 252 l 1,1,-1
 354 252 l 1,2,-1
 312 0 l 1,3,-1
 48 0 l 1,0,-1
176 780 m 1,4,-1
 218 1032 l 1,5,-1
 482 1032 l 1,6,-1
 440 780 l 1,7,-1
 176 780 l 1,4,-1
EndSplineSet
EndChar

StartChar: semicolon
Encoding: 59 59 30
Width: 550
GlyphClass: 2
Flags: W
LayerCount: 2
Fore
SplineSet
-118 -332 m 1,0,-1
 142 252 l 1,1,-1
 376 252 l 1,2,-1
 26 -332 l 1,3,-1
 -118 -332 l 1,0,-1
186 780 m 1,4,-1
 228 1032 l 1,5,-1
 496 1032 l 1,6,-1
 454 780 l 1,7,-1
 186 780 l 1,4,-1
EndSplineSet
EndChar

StartChar: less
Encoding: 60 60 31
Width: 1080
GlyphClass: 2
Flags: W
LayerCount: 2
Fore
SplineSet
98 628 m 1,0,-1
 126 796 l 1,1,-1
 1032 1408 l 1,2,-1
 1108 1272 l 1,3,-1
 288 710 l 1,4,-1
 922 150 l 1,5,-1
 802 14 l 1,6,-1
 98 628 l 1,0,-1
EndSplineSet
EndChar

StartChar: equal
Encoding: 61 61 32
Width: 1080
GlyphClass: 2
Flags: W
LayerCount: 2
Fore
SplineSet
66 448 m 1,0,-1
 92 608 l 1,1,-1
 1000 608 l 1,2,-1
 974 448 l 1,3,-1
 66 448 l 1,0,-1
132 846 m 1,4,-1
 158 1006 l 1,5,-1
 1066 1006 l 1,6,-1
 1040 846 l 1,7,-1
 132 846 l 1,4,-1
EndSplineSet
Substitution2: "'sups' Superscript lookup 5 subtable" uni207C
Substitution2: "'aalt' Access All Alternates lookup 0 subtable" uni207C
EndChar

StartChar: greater
Encoding: 62 62 33
Width: 1080
GlyphClass: 2
Flags: W
LayerCount: 2
Fore
SplineSet
92 14 m 1,0,-1
 22 150 l 1,1,-1
 840 710 l 1,2,-1
 208 1272 l 1,3,-1
 322 1408 l 1,4,-1
 1032 796 l 1,5,-1
 1004 628 l 1,6,-1
 92 14 l 1,0,-1
EndSplineSet
EndChar

StartChar: question
Encoding: 63 63 34
Width: 1078
GlyphClass: 2
Flags: W
LayerCount: 2
Fore
SplineSet
214 1176 m 1,0,1
 286 1324 286 1324 413 1415 c 128,-1,2
 540 1506 540 1506 698 1506 c 0,3,4
 884 1506 884 1506 977 1396 c 128,-1,5
 1070 1286 1070 1286 1040 1104 c 0,6,7
 1026 1014 1026 1014 980 942 c 128,-1,8
 934 870 934 870 875 820 c 128,-1,9
 816 770 816 770 758 722 c 128,-1,10
 700 674 700 674 654 607 c 128,-1,11
 608 540 608 540 594 456 c 2,12,-1
 584 400 l 1,13,-1
 400 400 l 1,14,-1
 412 470 l 2,15,16
 428 564 428 564 476 641 c 128,-1,17
 524 718 524 718 581 769 c 128,-1,18
 638 820 638 820 695 868 c 128,-1,19
 752 916 752 916 798 977 c 128,-1,20
 844 1038 844 1038 856 1110 c 0,21,22
 874 1218 874 1218 825 1283 c 128,-1,23
 776 1348 776 1348 674 1348 c 0,24,25
 496 1348 496 1348 364 1120 c 1,26,-1
 214 1176 l 1,0,1
290 -16 m 1,27,-1
 332 230 l 1,28,-1
 598 230 l 1,29,-1
 558 -16 l 1,30,-1
 290 -16 l 1,27,-1
EndSplineSet
EndChar

StartChar: at
Encoding: 64 64 35
Width: 1828
GlyphClass: 2
Flags: W
LayerCount: 2
Fore
SplineSet
120 692 m 0,0,1
 182 1062 182 1062 459 1296 c 128,-1,2
 736 1530 736 1530 1114 1530 c 0,3,4
 1458 1530 1458 1530 1639 1324 c 128,-1,5
 1820 1118 1820 1118 1766 796 c 0,6,7
 1718 510 1718 510 1579 371 c 128,-1,8
 1440 232 1440 232 1290 232 c 0,9,10
 1204 232 1204 232 1150 288 c 128,-1,11
 1096 344 1096 344 1102 432 c 1,12,-1
 1100 432 l 1,13,14
 1058 356 1058 356 970 295 c 128,-1,15
 882 234 882 234 780 234 c 0,16,17
 638 234 638 234 563 341 c 128,-1,18
 488 448 488 448 518 626 c 0,19,20
 558 864 558 864 700 999 c 128,-1,21
 842 1134 842 1134 1010 1134 c 0,22,23
 1150 1134 1150 1134 1206 1018 c 1,24,-1
 1230 1118 l 1,25,-1
 1368 1118 l 1,26,-1
 1246 548 l 2,27,28
 1244 538 1244 538 1242 528 c 0,29,30
 1230 454 1230 454 1250 412 c 128,-1,31
 1270 370 1270 370 1324 370 c 0,32,33
 1416 370 1416 370 1496 480 c 128,-1,34
 1576 590 1576 590 1608 784 c 0,35,36
 1654 1056 1654 1056 1514 1225 c 128,-1,37
 1374 1394 1374 1394 1090 1394 c 0,38,39
 786 1394 786 1394 558 1198 c 128,-1,40
 330 1002 330 1002 280 692 c 0,41,42
 226 366 226 366 383 178 c 128,-1,43
 540 -10 540 -10 838 -10 c 0,44,45
 1056 -10 1056 -10 1268 50 c 1,46,-1
 1276 -76 l 1,47,48
 1064 -144 1064 -144 816 -144 c 0,49,50
 438 -144 438 -144 248 88 c 128,-1,51
 58 320 58 320 120 692 c 0,0,1
684 628 m 0,52,53
 666 522 666 522 705 451 c 128,-1,54
 744 380 744 380 824 380 c 0,55,56
 916 380 916 380 1010 478 c 128,-1,57
 1104 576 1104 576 1142 798 c 0,58,59
 1156 880 1156 880 1121 939 c 128,-1,60
 1086 998 1086 998 996 998 c 0,61,62
 902 998 902 998 807 897 c 128,-1,63
 712 796 712 796 684 628 c 0,52,53
EndSplineSet
EndChar

StartChar: A
Encoding: 65 65 36
Width: 1262
GlyphClass: 2
Flags: W
LayerCount: 2
Fore
SplineSet
378 552 m 1,0,-1
 882 552 l 1,1,-1
 804 1010 l 2,2,3
 798 1044 798 1044 782 1146 c 128,-1,4
 766 1248 766 1248 760 1294 c 1,5,-1
 748 1294 l 1,6,7
 728 1252 728 1252 678 1152 c 128,-1,8
 628 1052 628 1052 608 1010 c 2,9,-1
 378 552 l 1,0,-1
-102 0 m 1,10,-1
 676 1470 l 1,11,-1
 890 1470 l 1,12,-1
 1176 0 l 1,13,-1
 978 0 l 1,14,-1
 910 402 l 1,15,-1
 302 402 l 1,16,-1
 96 0 l 1,17,-1
 -102 0 l 1,10,-1
EndSplineSet
Substitution2: "Single Substitution lookup 12 subtable" ordfeminine
EndChar

StartChar: B
Encoding: 66 66 37
Width: 1284
GlyphClass: 2
Flags: W
LayerCount: 2
Fore
SplineSet
78 0 m 1,0,-1
 322 1470 l 1,1,-1
 860 1470 l 2,2,3
 1076 1470 1076 1470 1169 1367 c 128,-1,4
 1262 1264 1262 1264 1234 1088 c 0,5,6
 1216 974 1216 974 1147 894 c 128,-1,7
 1078 814 1078 814 982 772 c 1,8,9
 1080 740 1080 740 1138 645 c 128,-1,10
 1196 550 1196 550 1174 416 c 0,11,12
 1146 242 1146 242 1015 121 c 128,-1,13
 884 0 884 0 686 0 c 2,14,-1
 78 0 l 1,0,-1
290 160 m 1,15,-1
 672 160 l 2,16,17
 788 160 788 160 877 227 c 128,-1,18
 966 294 966 294 986 414 c 0,19,20
 1004 528 1004 528 942 603 c 128,-1,21
 880 678 880 678 752 678 c 2,22,-1
 376 678 l 1,23,-1
 290 160 l 1,15,-1
402 834 m 1,24,-1
 726 834 l 2,25,26
 846 834 846 834 935 895 c 128,-1,27
 1024 956 1024 956 1042 1076 c 0,28,29
 1060 1182 1060 1182 1007 1246 c 128,-1,30
 954 1310 954 1310 814 1310 c 2,31,-1
 480 1310 l 1,32,-1
 402 834 l 1,24,-1
EndSplineSet
EndChar

StartChar: C
Encoding: 67 67 38
Width: 1270
GlyphClass: 2
Flags: W
LayerCount: 2
Fore
SplineSet
114 734 m 0,0,1
 172 1090 172 1090 379 1297 c 128,-1,2
 586 1504 586 1504 864 1504 c 0,3,4
 1038 1504 1038 1504 1145 1407 c 128,-1,5
 1252 1310 1252 1310 1290 1172 c 1,6,-1
 1124 1118 l 1,7,8
 1034 1344 1034 1344 834 1344 c 0,9,10
 636 1344 636 1344 493 1178 c 128,-1,11
 350 1012 350 1012 304 734 c 0,12,13
 258 452 258 452 348 290 c 128,-1,14
 438 128 438 128 632 128 c 0,15,16
 758 128 758 128 863 200 c 128,-1,17
 968 272 968 272 1030 378 c 1,18,-1
 1186 324 l 1,19,20
 1148 258 1148 258 1095 200 c 128,-1,21
 1042 142 1042 142 971 86 c 128,-1,22
 900 30 900 30 807 -2 c 128,-1,23
 714 -34 714 -34 610 -34 c 0,24,25
 336 -34 336 -34 195 170 c 128,-1,26
 54 374 54 374 114 734 c 0,0,1
EndSplineSet
EndChar

StartChar: D
Encoding: 68 68 39
Width: 1326
GlyphClass: 2
Flags: W
LayerCount: 2
Fore
SplineSet
78 0 m 1,0,-1
 322 1470 l 1,1,-1
 726 1470 l 2,2,3
 1040 1470 1040 1470 1187 1281 c 128,-1,4
 1334 1092 1334 1092 1274 734 c 0,5,6
 1218 398 1218 398 1016 199 c 128,-1,7
 814 0 814 0 478 0 c 2,8,-1
 78 0 l 1,0,-1
290 158 m 1,9,-1
 480 158 l 2,10,11
 720 158 720 158 878 296 c 128,-1,12
 1036 434 1036 434 1086 734 c 0,13,14
 1182 1310 1182 1310 674 1310 c 2,15,-1
 480 1310 l 1,16,-1
 290 158 l 1,9,-1
EndSplineSet
EndChar

StartChar: E
Encoding: 69 69 40
Width: 1168
GlyphClass: 2
Flags: W
LayerCount: 2
Fore
SplineSet
78 0 m 1,0,-1
 322 1470 l 1,1,-1
 1240 1470 l 1,2,-1
 1214 1310 l 1,3,-1
 480 1310 l 1,4,-1
 402 838 l 1,5,-1
 1062 838 l 1,6,-1
 1036 682 l 1,7,-1
 376 682 l 1,8,-1
 290 160 l 1,9,-1
 1038 160 l 1,10,-1
 1012 0 l 1,11,-1
 78 0 l 1,0,-1
EndSplineSet
EndChar

StartChar: F
Encoding: 70 70 41
Width: 1086
GlyphClass: 2
Flags: W
LayerCount: 2
Fore
SplineSet
78 0 m 1,0,-1
 322 1470 l 1,1,-1
 1212 1470 l 1,2,-1
 1186 1310 l 1,3,-1
 480 1310 l 1,4,-1
 398 818 l 1,5,-1
 1032 818 l 1,6,-1
 1006 660 l 1,7,-1
 372 660 l 1,8,-1
 264 0 l 1,9,-1
 78 0 l 1,0,-1
EndSplineSet
EndChar

StartChar: G
Encoding: 71 71 42
Width: 1378
GlyphClass: 2
Flags: W
LayerCount: 2
Fore
SplineSet
114 734 m 0,0,1
 170 1074 170 1074 377 1289 c 128,-1,2
 584 1504 584 1504 876 1504 c 0,3,4
 978 1504 978 1504 1060 1472 c 128,-1,5
 1142 1440 1142 1440 1193 1387 c 128,-1,6
 1244 1334 1244 1334 1272 1283 c 128,-1,7
 1300 1232 1300 1232 1316 1180 c 1,8,-1
 1150 1126 l 1,9,10
 1052 1344 1052 1344 850 1344 c 0,11,12
 638 1344 638 1344 493 1177 c 128,-1,13
 348 1010 348 1010 304 734 c 0,14,15
 256 450 256 450 350 289 c 128,-1,16
 444 128 444 128 640 128 c 0,17,18
 816 128 816 128 931 240 c 128,-1,19
 1046 352 1046 352 1076 512 c 0,20,21
 1078 530 1078 530 1087 577 c 128,-1,22
 1096 624 1096 624 1100 644 c 1,23,-1
 710 644 l 1,24,-1
 736 804 l 1,25,-1
 1302 804 l 1,26,-1
 1170 0 l 1,27,-1
 1040 0 l 1,28,-1
 1056 192 l 1,29,30
 900 -34 900 -34 608 -34 c 0,31,32
 334 -34 334 -34 195 173 c 128,-1,33
 56 380 56 380 114 734 c 0,0,1
EndSplineSet
EndChar

StartChar: H
Encoding: 72 72 43
Width: 1376
GlyphClass: 2
Flags: W
LayerCount: 2
Fore
SplineSet
78 0 m 1,0,-1
 322 1470 l 1,1,-1
 506 1470 l 1,2,-1
 402 834 l 1,3,-1
 1066 834 l 1,4,-1
 1170 1470 l 1,5,-1
 1354 1470 l 1,6,-1
 1110 0 l 1,7,-1
 928 0 l 1,8,-1
 1040 678 l 1,9,-1
 376 678 l 1,10,-1
 264 0 l 1,11,-1
 78 0 l 1,0,-1
EndSplineSet
EndChar

StartChar: I
Encoding: 73 73 44
Width: 528
GlyphClass: 2
Flags: W
LayerCount: 2
Fore
SplineSet
78 0 m 1,0,-1
 322 1470 l 1,1,-1
 506 1470 l 1,2,-1
 264 0 l 1,3,-1
 78 0 l 1,0,-1
EndSplineSet
EndChar

StartChar: J
Encoding: 74 74 45
Width: 968
GlyphClass: 2
Flags: W
LayerCount: 2
Fore
SplineSet
-32 248 m 1,0,-1
 136 312 l 1,1,2
 146 230 146 230 197 179 c 128,-1,3
 248 128 248 128 326 128 c 0,4,5
 540 128 540 128 590 436 c 2,6,-1
 762 1470 l 1,7,-1
 946 1470 l 1,8,-1
 770 408 l 2,9,10
 734 192 734 192 613 79 c 128,-1,11
 492 -34 492 -34 302 -34 c 0,12,13
 148 -34 148 -34 67 46 c 128,-1,14
 -14 126 -14 126 -32 248 c 1,0,-1
EndSplineSet
EndChar

StartChar: K
Encoding: 75 75 46
Width: 1244
GlyphClass: 2
Flags: W
LayerCount: 2
Fore
SplineSet
78 0 m 1,0,-1
 322 1470 l 1,1,-1
 506 1470 l 1,2,-1
 384 732 l 1,3,-1
 388 732 l 1,4,-1
 1132 1470 l 1,5,-1
 1370 1470 l 1,6,-1
 714 832 l 1,7,-1
 1152 0 l 1,8,-1
 926 0 l 1,9,-1
 574 698 l 1,10,-1
 340 470 l 1,11,-1
 264 0 l 1,12,-1
 78 0 l 1,0,-1
EndSplineSet
EndChar

StartChar: L
Encoding: 76 76 47
Width: 1044
GlyphClass: 2
Flags: W
LayerCount: 2
Fore
SplineSet
78 0 m 1,0,-1
 322 1470 l 1,1,-1
 506 1470 l 1,2,-1
 290 160 l 1,3,-1
 964 160 l 1,4,-1
 938 0 l 1,5,-1
 78 0 l 1,0,-1
EndSplineSet
EndChar

StartChar: M
Encoding: 77 77 48
Width: 1674
GlyphClass: 2
Flags: W
LayerCount: 2
Fore
SplineSet
78 0 m 1,0,-1
 322 1470 l 1,1,-1
 556 1470 l 1,2,-1
 724 716 l 2,3,4
 742 636 742 636 767 498 c 128,-1,5
 792 360 792 360 796 342 c 1,6,-1
 802 342 l 1,7,8
 816 370 816 370 1002 716 c 2,9,-1
 1418 1470 l 1,10,-1
 1654 1470 l 1,11,-1
 1410 0 l 1,12,-1
 1228 0 l 1,13,-1
 1356 774 l 2,14,15
 1386 960 1386 960 1452 1222 c 1,16,-1
 1444 1222 l 1,17,-1
 1320 986 l 1,18,-1
 836 100 l 1,19,-1
 688 100 l 1,20,-1
 494 986 l 1,21,-1
 448 1224 l 1,22,-1
 440 1224 l 1,23,24
 416 922 416 922 392 774 c 2,25,-1
 264 0 l 1,26,-1
 78 0 l 1,0,-1
EndSplineSet
EndChar

StartChar: N
Encoding: 78 78 49
Width: 1386
GlyphClass: 2
Flags: W
LayerCount: 2
Fore
SplineSet
78 0 m 1,0,-1
 322 1470 l 1,1,-1
 524 1470 l 1,2,-1
 876 576 l 1,3,-1
 992 272 l 1,4,-1
 1004 272 l 1,5,6
 1010 450 1010 450 1050 690 c 2,7,-1
 1178 1470 l 1,8,-1
 1362 1470 l 1,9,-1
 1118 0 l 1,10,-1
 916 0 l 1,11,-1
 448 1196 l 1,12,-1
 440 1196 l 1,13,14
 428 996 428 996 392 778 c 2,15,-1
 264 0 l 1,16,-1
 78 0 l 1,0,-1
EndSplineSet
EndChar

StartChar: O
Encoding: 79 79 50
Width: 1380
GlyphClass: 2
Flags: W
LayerCount: 2
Fore
SplineSet
114 734 m 0,0,1
 172 1080 172 1080 372 1292 c 128,-1,2
 572 1504 572 1504 846 1504 c 0,3,4
 1124 1504 1124 1504 1253 1292 c 128,-1,5
 1382 1080 1382 1080 1324 732 c 0,6,7
 1266 382 1266 382 1066 174 c 128,-1,8
 866 -34 866 -34 592 -34 c 256,9,10
 318 -34 318 -34 187 175 c 128,-1,11
 56 384 56 384 114 734 c 0,0,1
304 734 m 256,12,13
 258 454 258 454 342 291 c 128,-1,14
 426 128 426 128 618 128 c 256,15,16
 810 128 810 128 948 288 c 128,-1,17
 1086 448 1086 448 1134 732 c 0,18,19
 1180 1012 1180 1012 1099 1178 c 128,-1,20
 1018 1344 1018 1344 820 1344 c 0,21,22
 628 1344 628 1344 489 1179 c 128,-1,23
 350 1014 350 1014 304 734 c 256,12,13
EndSplineSet
Substitution2: "Single Substitution lookup 12 subtable" ordmasculine
EndChar

StartChar: P
Encoding: 80 80 51
Width: 1250
GlyphClass: 2
Flags: W
LayerCount: 2
Fore
SplineSet
78 0 m 1,0,-1
 322 1470 l 1,1,-1
 874 1470 l 2,2,3
 1090 1470 1090 1470 1193 1351 c 128,-1,4
 1296 1232 1296 1232 1264 1032 c 0,5,6
 1230 830 1230 830 1084 713 c 128,-1,7
 938 596 938 596 730 596 c 2,8,-1
 362 596 l 1,9,-1
 264 0 l 1,10,-1
 78 0 l 1,0,-1
388 754 m 1,11,-1
 730 754 l 2,12,13
 872 754 872 754 961 824 c 128,-1,14
 1050 894 1050 894 1072 1032 c 0,15,16
 1094 1168 1094 1168 1029 1239 c 128,-1,17
 964 1310 964 1310 818 1310 c 2,18,-1
 480 1310 l 1,19,-1
 388 754 l 1,11,-1
EndSplineSet
EndChar

StartChar: Q
Encoding: 81 81 52
Width: 1380
GlyphClass: 2
Flags: W
LayerCount: 2
Fore
SplineSet
112 732 m 0,0,1
 170 1082 170 1082 372 1293 c 128,-1,2
 574 1504 574 1504 846 1504 c 0,3,4
 1122 1504 1122 1504 1252 1291 c 128,-1,5
 1382 1078 1382 1078 1324 732 c 0,6,7
 1268 388 1268 388 1070 178 c 0,8,9
 1068 176 1068 176 1066 174 c 2,10,-1
 1204 2 l 1,11,-1
 1072 -100 l 1,12,-1
 940 68 l 1,13,14
 784 -34 784 -34 592 -34 c 0,15,16
 316 -34 316 -34 186 177 c 128,-1,17
 56 388 56 388 112 732 c 0,0,1
632 452 m 1,18,-1
 764 556 l 1,19,-1
 962 306 l 1,20,21
 1090 466 1090 466 1134 732 c 0,22,23
 1182 1020 1182 1020 1097 1182 c 128,-1,24
 1012 1344 1012 1344 820 1344 c 0,25,26
 630 1344 630 1344 490 1180 c 128,-1,27
 350 1016 350 1016 302 732 c 0,28,29
 256 452 256 452 341 290 c 128,-1,30
 426 128 426 128 618 128 c 0,31,32
 740 128 740 128 838 192 c 1,33,-1
 632 452 l 1,18,-1
EndSplineSet
EndChar

StartChar: R
Encoding: 82 82 53
Width: 1288
GlyphClass: 2
Flags: W
LayerCount: 2
Fore
SplineSet
392 778 m 1,0,-1
 750 778 l 2,1,2
 888 778 888 778 973 850 c 128,-1,3
 1058 922 1058 922 1080 1048 c 0,4,5
 1100 1166 1100 1166 1034 1238 c 128,-1,6
 968 1310 968 1310 826 1310 c 2,7,-1
 480 1310 l 1,8,-1
 392 778 l 1,0,-1
78 0 m 1,9,-1
 322 1470 l 1,10,-1
 890 1470 l 2,11,12
 1106 1470 1106 1470 1203 1352 c 128,-1,13
 1300 1234 1300 1234 1272 1062 c 0,14,15
 1246 908 1246 908 1157 811 c 128,-1,16
 1068 714 1068 714 972 688 c 1,17,18
 1042 644 1042 644 1065 584 c 128,-1,19
 1088 524 1088 524 1094 412 c 0,20,21
 1100 322 1100 322 1104 273 c 128,-1,22
 1108 224 1108 224 1125 150 c 128,-1,23
 1142 76 1142 76 1172 0 c 1,24,-1
 966 0 l 1,25,26
 912 140 912 140 900 398 c 0,27,28
 892 504 892 504 855 561 c 128,-1,29
 818 618 818 618 716 618 c 2,30,-1
 366 618 l 1,31,-1
 264 0 l 1,32,-1
 78 0 l 1,9,-1
EndSplineSet
EndChar

StartChar: S
Encoding: 83 83 54
Width: 1182
GlyphClass: 2
Flags: W
LayerCount: 2
Fore
SplineSet
18 288 m 1,0,-1
 192 348 l 1,1,2
 232 246 232 246 321 187 c 128,-1,3
 410 128 410 128 542 128 c 0,4,5
 682 128 682 128 780 197 c 128,-1,6
 878 266 878 266 898 384 c 0,7,8
 908 446 908 446 890 493 c 128,-1,9
 872 540 872 540 823 574 c 128,-1,10
 774 608 774 608 730 630 c 128,-1,11
 686 652 686 652 608 678 c 0,12,13
 398 754 398 754 322 808 c 0,14,15
 172 918 172 918 204 1114 c 0,16,17
 234 1290 234 1290 385 1397 c 128,-1,18
 536 1504 536 1504 758 1504 c 0,19,20
 932 1504 932 1504 1045 1422 c 128,-1,21
 1158 1340 1158 1340 1194 1216 c 1,22,-1
 1028 1162 l 1,23,24
 942 1344 942 1344 728 1344 c 0,25,26
 590 1344 590 1344 499 1281 c 128,-1,27
 408 1218 408 1218 392 1114 c 0,28,29
 382 1054 382 1054 402 1008 c 128,-1,30
 422 962 422 962 476 928 c 128,-1,31
 530 894 530 894 579 873 c 128,-1,32
 628 852 628 852 710 822 c 0,33,34
 732 814 732 814 744 812 c 0,35,36
 828 780 828 780 887 750 c 128,-1,37
 946 720 946 720 1002 671 c 128,-1,38
 1058 622 1058 622 1080 552 c 128,-1,39
 1102 482 1102 482 1086 390 c 0,40,41
 1052 188 1052 188 896 77 c 128,-1,42
 740 -34 740 -34 510 -34 c 0,43,44
 314 -34 314 -34 188 53 c 128,-1,45
 62 140 62 140 18 288 c 1,0,-1
EndSplineSet
EndChar

StartChar: T
Encoding: 84 84 55
Width: 1080
GlyphClass: 2
Flags: W
LayerCount: 2
Fore
SplineSet
144 1310 m 1,0,-1
 172 1470 l 1,1,-1
 1214 1470 l 1,2,-1
 1188 1310 l 1,3,-1
 758 1310 l 1,4,-1
 542 0 l 1,5,-1
 358 0 l 1,6,-1
 574 1310 l 1,7,-1
 144 1310 l 1,0,-1
EndSplineSet
EndChar

StartChar: U
Encoding: 85 85 56
Width: 1370
GlyphClass: 2
Flags: W
LayerCount: 2
Fore
SplineSet
162 538 m 2,0,-1
 316 1470 l 1,1,-1
 502 1470 l 1,2,-1
 350 542 l 2,3,4
 316 332 316 332 390 230 c 128,-1,5
 464 128 464 128 612 128 c 0,6,7
 764 128 764 128 873 234 c 128,-1,8
 982 340 982 340 1016 542 c 2,9,-1
 1170 1470 l 1,10,-1
 1354 1470 l 1,11,-1
 1200 538 l 2,12,13
 1154 266 1154 266 997 116 c 128,-1,14
 840 -34 840 -34 586 -34 c 0,15,16
 342 -34 342 -34 229 113 c 128,-1,17
 116 260 116 260 162 538 c 2,0,-1
EndSplineSet
EndChar

StartChar: V
Encoding: 86 86 57
Width: 1164
GlyphClass: 2
Flags: W
LayerCount: 2
Fore
SplineSet
148 1470 m 1,0,-1
 348 1470 l 1,1,-1
 480 514 l 2,2,3
 484 458 484 458 498 354 c 128,-1,4
 512 250 512 250 518 190 c 1,5,-1
 526 188 l 1,6,7
 552 248 552 248 597 351 c 128,-1,8
 642 454 642 454 670 514 c 2,9,-1
 1118 1470 l 1,10,-1
 1320 1470 l 1,11,-1
 600 0 l 1,12,-1
 382 0 l 1,13,-1
 148 1470 l 1,0,-1
EndSplineSet
EndChar

StartChar: W
Encoding: 87 87 58
Width: 1678
GlyphClass: 2
Flags: W
LayerCount: 2
Fore
SplineSet
172 1470 m 1,0,-1
 370 1470 l 1,1,-1
 398 540 l 2,2,3
 398 290 398 290 398 208 c 1,4,-1
 410 208 l 1,5,6
 420 236 420 236 464 359 c 128,-1,7
 508 482 508 482 528 540 c 2,8,-1
 894 1470 l 1,9,-1
 1084 1470 l 1,10,-1
 1146 540 l 2,11,12
 1150 456 1150 456 1154 208 c 1,13,-1
 1162 208 l 1,14,15
 1170 232 1170 232 1274 540 c 1,16,-1
 1614 1470 l 1,17,-1
 1812 1470 l 1,18,-1
 1234 0 l 1,19,-1
 1020 0 l 1,20,-1
 964 918 l 2,21,22
 962 954 962 954 960 1018 c 128,-1,23
 958 1082 958 1082 956 1135 c 128,-1,24
 954 1188 954 1188 956 1236 c 1,25,-1
 948 1236 l 1,26,27
 936 1202 936 1202 832 918 c 2,28,-1
 472 0 l 1,29,-1
 262 0 l 1,30,-1
 172 1470 l 1,0,-1
EndSplineSet
EndChar

StartChar: X
Encoding: 88 88 59
Width: 1158
GlyphClass: 2
Flags: W
LayerCount: 2
Fore
SplineSet
-96 0 m 1,0,-1
 500 756 l 1,1,-1
 174 1470 l 1,2,-1
 394 1470 l 1,3,-1
 538 1128 l 2,4,5
 550 1102 550 1102 567 1056 c 128,-1,6
 584 1010 584 1010 600 971 c 128,-1,7
 616 932 616 932 630 896 c 1,8,-1
 638 896 l 1,9,10
 670 942 670 942 730 1021 c 128,-1,11
 790 1100 790 1100 810 1128 c 2,12,-1
 1064 1470 l 1,13,-1
 1290 1470 l 1,14,-1
 724 756 l 1,15,-1
 1068 0 l 1,16,-1
 850 0 l 1,17,-1
 692 360 l 2,18,19
 656 446 656 446 590 608 c 1,20,-1
 584 608 l 1,21,22
 480 466 480 466 400 360 c 2,23,-1
 126 0 l 1,24,-1
 -96 0 l 1,0,-1
EndSplineSet
EndChar

StartChar: Y
Encoding: 89 89 60
Width: 1184
GlyphClass: 2
Flags: W
LayerCount: 2
Fore
SplineSet
144 1470 m 1,0,-1
 360 1470 l 1,1,-1
 526 1026 l 2,2,3
 580 880 580 880 622 762 c 1,4,-1
 626 762 l 1,5,6
 660 808 660 808 723 899 c 128,-1,7
 786 990 786 990 814 1026 c 2,8,-1
 1124 1470 l 1,9,-1
 1340 1470 l 1,10,-1
 692 602 l 1,11,-1
 592 0 l 1,12,-1
 408 0 l 1,13,-1
 508 602 l 1,14,-1
 144 1470 l 1,0,-1
EndSplineSet
EndChar

StartChar: Z
Encoding: 90 90 61
Width: 1176
GlyphClass: 2
Flags: W
LayerCount: 2
Fore
SplineSet
2 136 m 1,0,-1
 986 1310 l 1,1,-1
 256 1310 l 1,2,-1
 282 1470 l 1,3,-1
 1240 1470 l 1,4,-1
 1216 1330 l 1,5,-1
 228 160 l 1,6,-1
 1040 160 l 1,7,-1
 1014 0 l 1,8,-1
 -22 0 l 1,9,-1
 2 136 l 1,0,-1
EndSplineSet
EndChar

StartChar: bracketleft
Encoding: 91 91 62
Width: 838
GlyphClass: 2
Flags: W
LayerCount: 2
Fore
SplineSet
118 -250 m 1,0,-1
 434 1660 l 1,1,-1
 858 1660 l 1,2,-1
 832 1510 l 1,3,-1
 588 1510 l 1,4,-1
 320 -102 l 1,5,-1
 566 -102 l 1,6,-1
 540 -250 l 1,7,-1
 118 -250 l 1,0,-1
EndSplineSet
EndChar

StartChar: backslash
Encoding: 92 92 63
Width: 658
GlyphClass: 2
Flags: W
LayerCount: 2
Fore
SplineSet
140 1562 m 1,0,-1
 324 1562 l 1,1,-1
 576 -110 l 1,2,-1
 392 -110 l 1,3,-1
 140 1562 l 1,0,-1
EndSplineSet
EndChar

StartChar: bracketright
Encoding: 93 93 64
Width: 838
GlyphClass: 2
Flags: W
LayerCount: 2
Fore
SplineSet
52 -102 m 1,0,-1
 298 -102 l 1,1,-1
 564 1510 l 1,2,-1
 318 1510 l 1,3,-1
 342 1660 l 1,4,-1
 766 1660 l 1,5,-1
 450 -250 l 1,6,-1
 26 -250 l 1,7,-1
 52 -102 l 1,0,-1
EndSplineSet
EndChar

StartChar: asciicircum
Encoding: 94 94 65
Width: 992
GlyphClass: 2
Flags: W
LayerCount: 2
Fore
SplineSet
86 942 m 1,0,-1
 586 1616 l 1,1,-1
 756 1616 l 1,2,-1
 1030 942 l 1,3,-1
 846 942 l 1,4,-1
 648 1472 l 1,5,-1
 272 942 l 1,6,-1
 86 942 l 1,0,-1
EndSplineSet
EndChar

StartChar: underscore
Encoding: 95 95 66
Width: 904
GlyphClass: 2
Flags: W
LayerCount: 2
Fore
SplineSet
-88 -26 m 1,0,-1
 800 -26 l 1,1,-1
 776 -176 l 1,2,-1
 -112 -176 l 1,3,-1
 -88 -26 l 1,0,-1
EndSplineSet
EndChar

StartChar: grave
Encoding: 96 96 67
Width: 602
GlyphClass: 2
Flags: W
LayerCount: 2
Fore
SplineSet
400 1060 m 1,0,-1
 246 1644 l 1,1,-1
 474 1644 l 1,2,-1
 542 1060 l 1,3,-1
 400 1060 l 1,0,-1
EndSplineSet
EndChar

StartChar: a
Encoding: 97 97 68
Width: 1032
GlyphClass: 2
Flags: W
LayerCount: 2
Fore
SplineSet
192 282 m 0,0,1
 180 212 180 212 228 164 c 128,-1,2
 276 116 276 116 368 116 c 0,3,4
 494 116 494 116 595 201 c 128,-1,5
 696 286 696 286 716 418 c 2,6,-1
 738 550 l 1,7,8
 660 530 660 530 494 502 c 0,9,10
 220 456 220 456 192 282 c 0,0,1
22 266 m 0,11,12
 72 564 72 564 510 634 c 0,13,14
 700 664 700 664 762 684 c 1,15,-1
 770 744 l 2,16,17
 786 836 786 836 734 894 c 128,-1,18
 682 952 682 952 572 952 c 0,19,20
 482 952 482 952 395 909 c 128,-1,21
 308 866 308 866 240 794 c 1,22,-1
 148 890 l 1,23,24
 240 984 240 984 356 1040 c 128,-1,25
 472 1096 472 1096 592 1096 c 0,26,27
 998 1096 998 1096 928 672 c 2,28,-1
 816 0 l 1,29,-1
 654 0 l 1,30,-1
 680 160 l 1,31,32
 636 80 636 80 539 23 c 128,-1,33
 442 -34 442 -34 322 -34 c 0,34,35
 158 -34 158 -34 79 49 c 128,-1,36
 0 132 0 132 22 266 c 0,11,12
EndSplineSet
Substitution2: "Single Substitution lookup 12 subtable" ordfeminine
EndChar

StartChar: b
Encoding: 98 98 69
Width: 1098
GlyphClass: 2
Flags: W
LayerCount: 2
Fore
SplineSet
50 0 m 1,0,-1
 302 1522 l 1,1,-1
 470 1522 l 1,2,-1
 368 896 l 1,3,4
 410 972 410 972 498 1034 c 128,-1,5
 586 1096 586 1096 690 1096 c 0,6,7
 876 1096 876 1096 969 945 c 128,-1,8
 1062 794 1062 794 1020 532 c 0,9,10
 996 386 996 386 939 272 c 128,-1,11
 882 158 882 158 807 93 c 128,-1,12
 732 28 732 28 656 -3 c 128,-1,13
 580 -34 580 -34 504 -34 c 0,14,15
 404 -34 404 -34 335 26 c 128,-1,16
 266 86 266 86 246 172 c 1,17,-1
 218 0 l 1,18,-1
 50 0 l 1,0,-1
304 532 m 0,19,20
 272 342 272 342 331 230 c 128,-1,21
 390 118 390 118 504 118 c 0,22,23
 624 118 624 118 719 227 c 128,-1,24
 814 336 814 336 846 532 c 0,25,26
 878 720 878 720 821 832 c 128,-1,27
 764 944 764 944 642 944 c 0,28,29
 528 944 528 944 431 831 c 128,-1,30
 334 718 334 718 304 532 c 0,19,20
EndSplineSet
EndChar

StartChar: c
Encoding: 99 99 70
Width: 958
GlyphClass: 2
Flags: W
LayerCount: 2
Fore
SplineSet
64 530 m 0,0,1
 106 784 106 784 257 940 c 128,-1,2
 408 1096 408 1096 614 1096 c 0,3,4
 756 1096 756 1096 839 1009 c 128,-1,5
 922 922 922 922 934 808 c 1,6,-1
 780 762 l 1,7,8
 766 838 766 838 717 891 c 128,-1,9
 668 944 668 944 590 944 c 0,10,11
 460 944 460 944 365 826 c 128,-1,12
 270 708 270 708 240 530 c 0,13,14
 208 340 208 340 269 229 c 128,-1,15
 330 118 330 118 452 118 c 0,16,17
 538 118 538 118 614 177 c 128,-1,18
 690 236 690 236 730 312 c 1,19,-1
 868 266 l 1,20,21
 812 144 812 144 690 55 c 128,-1,22
 568 -34 568 -34 426 -34 c 0,23,24
 224 -34 224 -34 123 119 c 128,-1,25
 22 272 22 272 64 530 c 0,0,1
EndSplineSet
EndChar

StartChar: d
Encoding: 100 100 71
Width: 1098
GlyphClass: 2
Flags: W
LayerCount: 2
Fore
SplineSet
66 532 m 0,0,1
 110 794 110 794 255 945 c 128,-1,2
 400 1096 400 1096 584 1096 c 0,3,4
 686 1096 686 1096 753 1036 c 128,-1,5
 820 976 820 976 840 900 c 1,6,-1
 944 1522 l 1,7,-1
 1112 1522 l 1,8,-1
 860 0 l 1,9,-1
 698 0 l 1,10,-1
 726 174 l 1,11,12
 676 84 676 84 587 25 c 128,-1,13
 498 -34 498 -34 398 -34 c 0,14,15
 320 -34 320 -34 252 -3 c 128,-1,16
 184 28 184 28 132 93 c 128,-1,17
 80 158 80 158 61 272 c 128,-1,18
 42 386 42 386 66 532 c 0,0,1
240 532 m 0,19,20
 208 342 208 342 265 230 c 128,-1,21
 322 118 322 118 444 118 c 0,22,23
 556 118 556 118 654 230 c 128,-1,24
 752 342 752 342 784 532 c 0,25,26
 814 718 814 718 755 831 c 128,-1,27
 696 944 696 944 582 944 c 0,28,29
 456 944 456 944 363 830 c 128,-1,30
 270 716 270 716 240 532 c 0,19,20
EndSplineSet
EndChar

StartChar: e
Encoding: 101 101 72
Width: 1046
GlyphClass: 2
Flags: W
LayerCount: 2
Fore
SplineSet
66 538 m 0,0,1
 108 788 108 788 263 942 c 128,-1,2
 418 1096 418 1096 620 1096 c 256,3,4
 822 1096 822 1096 918 944 c 128,-1,5
 1014 792 1014 792 976 554 c 0,6,7
 972 524 972 524 958 470 c 1,8,-1
 228 470 l 1,9,10
 204 324 204 324 266 219 c 128,-1,11
 328 114 328 114 468 114 c 0,12,13
 654 114 654 114 768 284 c 1,14,-1
 904 236 l 1,15,16
 838 118 838 118 718 42 c 128,-1,17
 598 -34 598 -34 440 -34 c 0,18,19
 230 -34 230 -34 127 123 c 128,-1,20
 24 280 24 280 66 538 c 0,0,1
254 604 m 1,21,-1
 812 604 l 1,22,23
 836 748 836 748 779 848 c 128,-1,24
 722 948 722 948 596 948 c 256,25,26
 468 948 468 948 374 845 c 128,-1,27
 280 742 280 742 254 604 c 1,21,-1
EndSplineSet
EndChar

StartChar: f
Encoding: 102 102 73
Width: 640
GlyphClass: 2
Flags: W
LayerCount: 2
Fore
SplineSet
98 910 m 1,0,-1
 124 1062 l 1,1,-1
 290 1062 l 1,2,-1
 316 1208 l 2,3,4
 342 1368 342 1368 430 1445 c 128,-1,5
 518 1522 518 1522 650 1522 c 2,6,-1
 790 1522 l 1,7,-1
 766 1372 l 1,8,-1
 650 1372 l 2,9,10
 512 1372 512 1372 482 1192 c 2,11,-1
 460 1062 l 1,12,-1
 692 1062 l 1,13,-1
 666 910 l 1,14,-1
 434 910 l 1,15,-1
 284 0 l 1,16,-1
 116 0 l 1,17,-1
 266 910 l 1,18,-1
 98 910 l 1,0,-1
EndSplineSet
EndChar

StartChar: g
Encoding: 103 103 74
Width: 1070
GlyphClass: 2
Flags: W
LayerCount: 2
Fore
SplineSet
244 552 m 0,0,1
 214 372 214 372 269 265 c 128,-1,2
 324 158 324 158 442 158 c 0,3,4
 558 158 558 158 646 262 c 128,-1,5
 734 366 734 366 766 552 c 0,6,7
 796 736 796 736 741 840 c 128,-1,8
 686 944 686 944 574 944 c 0,9,10
 452 944 452 944 362 834 c 128,-1,11
 272 724 272 724 244 552 c 0,0,1
70 550 m 0,12,13
 110 796 110 796 253 946 c 128,-1,14
 396 1096 396 1096 578 1096 c 0,15,16
 686 1096 686 1096 746 1037 c 128,-1,17
 806 978 806 978 824 906 c 1,18,-1
 850 1062 l 1,19,-1
 1018 1062 l 1,20,-1
 864 132 l 2,21,22
 814 -168 814 -168 685 -314 c 128,-1,23
 556 -460 556 -460 332 -460 c 0,24,25
 86 -460 86 -460 -16 -264 c 1,26,-1
 112 -182 l 1,27,28
 202 -314 202 -314 360 -314 c 0,29,30
 480 -314 480 -314 566 -216 c 128,-1,31
 652 -118 652 -118 682 44 c 0,32,33
 686 72 686 72 694 120 c 128,-1,34
 702 168 702 168 706 186 c 1,35,36
 658 108 658 108 578 57 c 128,-1,37
 498 6 498 6 402 6 c 0,38,39
 212 6 212 6 121 157 c 128,-1,40
 30 308 30 308 70 550 c 0,12,13
EndSplineSet
EndChar

StartChar: h
Encoding: 104 104 75
Width: 1060
GlyphClass: 2
Flags: W
LayerCount: 2
Fore
SplineSet
50 0 m 1,0,-1
 302 1522 l 1,1,-1
 470 1522 l 1,2,-1
 370 912 l 1,3,-1
 374 912 l 1,4,5
 424 988 424 988 513 1042 c 128,-1,6
 602 1096 602 1096 696 1096 c 0,7,8
 846 1096 846 1096 920 1000 c 128,-1,9
 994 904 994 904 958 686 c 2,10,-1
 844 0 l 1,11,-1
 674 0 l 1,12,-1
 784 658 l 2,13,14
 832 944 832 944 640 944 c 0,15,16
 532 944 532 944 438 849 c 128,-1,17
 344 754 344 754 322 622 c 2,18,-1
 218 0 l 1,19,-1
 50 0 l 1,0,-1
EndSplineSet
Substitution2: "'sups' Superscript lookup 5 subtable" uni02B0
Substitution2: "'aalt' Access All Alternates lookup 0 subtable" uni02B0
EndChar

StartChar: i
Encoding: 105 105 76
Width: 496
GlyphClass: 2
Flags: W
LayerCount: 2
Fore
SplineSet
264 1272 m 1,0,-1
 300 1492 l 1,1,-1
 502 1492 l 1,2,-1
 466 1272 l 1,3,-1
 264 1272 l 1,0,-1
72 0 m 1,4,-1
 248 1062 l 1,5,-1
 414 1062 l 1,6,-1
 238 0 l 1,7,-1
 72 0 l 1,4,-1
EndSplineSet
EndChar

StartChar: j
Encoding: 106 106 77
Width: 512
GlyphClass: 2
Flags: W
LayerCount: 2
Fore
SplineSet
278 1272 m 1,0,-1
 316 1492 l 1,1,-1
 520 1492 l 1,2,-1
 484 1272 l 1,3,-1
 278 1272 l 1,0,-1
-162 -286 m 1,4,-1
 -118 -286 l 2,5,6
 38 -286 38 -286 76 -54 c 2,7,-1
 262 1062 l 1,8,-1
 430 1062 l 1,9,-1
 244 -64 l 2,10,11
 214 -248 214 -248 120 -344 c 128,-1,12
 26 -440 26 -440 -116 -440 c 2,13,-1
 -186 -440 l 1,14,-1
 -162 -286 l 1,4,-1
EndSplineSet
Substitution2: "'sups' Superscript lookup 5 subtable" uni02B2
Substitution2: "'aalt' Access All Alternates lookup 0 subtable" uni02B2
EndChar

StartChar: k
Encoding: 107 107 78
Width: 968
GlyphClass: 2
Flags: W
LayerCount: 2
Fore
SplineSet
54 0 m 1,0,-1
 306 1522 l 1,1,-1
 474 1522 l 1,2,-1
 316 566 l 1,3,-1
 808 1062 l 1,4,-1
 1032 1062 l 1,5,-1
 596 634 l 1,6,-1
 890 0 l 1,7,-1
 684 0 l 1,8,-1
 464 508 l 1,9,-1
 276 324 l 1,10,-1
 222 0 l 1,11,-1
 54 0 l 1,0,-1
EndSplineSet
EndChar

StartChar: l
Encoding: 108 108 79
Width: 474
GlyphClass: 2
Flags: W
LayerCount: 2
Fore
SplineSet
60 0 m 1,0,-1
 312 1522 l 1,1,-1
 480 1522 l 1,2,-1
 228 0 l 1,3,-1
 60 0 l 1,0,-1
EndSplineSet
Substitution2: "'sups' Superscript lookup 5 subtable" uni02E1
Substitution2: "'aalt' Access All Alternates lookup 0 subtable" uni02E1
EndChar

StartChar: m
Encoding: 109 109 80
Width: 1564
GlyphClass: 2
Flags: W
LayerCount: 2
Fore
SplineSet
38 0 m 1,0,-1
 214 1062 l 1,1,-1
 382 1062 l 1,2,-1
 358 916 l 1,3,4
 396 980 396 980 476 1038 c 128,-1,5
 556 1096 556 1096 662 1096 c 0,6,7
 840 1096 840 1096 878 876 c 1,8,9
 894 904 894 904 919 934 c 128,-1,10
 944 964 944 964 987 1004 c 128,-1,11
 1030 1044 1030 1044 1095 1070 c 128,-1,12
 1160 1096 1160 1096 1232 1096 c 0,13,14
 1530 1096 1530 1096 1462 686 c 2,15,-1
 1348 0 l 1,16,-1
 1178 0 l 1,17,-1
 1288 674 l 2,18,19
 1310 808 1310 808 1288 876 c 128,-1,20
 1266 944 1266 944 1170 944 c 0,21,22
 1070 944 1070 944 986 854 c 128,-1,23
 902 764 902 764 880 630 c 2,24,-1
 776 0 l 1,25,-1
 610 0 l 1,26,-1
 724 678 l 2,27,28
 768 944 768 944 600 944 c 0,29,30
 492 944 492 944 416 859 c 128,-1,31
 340 774 340 774 318 638 c 2,32,-1
 212 0 l 1,33,-1
 38 0 l 1,0,-1
EndSplineSet
EndChar

StartChar: n
Encoding: 110 110 81
Width: 1052
GlyphClass: 2
Flags: W
LayerCount: 2
Fore
SplineSet
38 0 m 1,0,-1
 214 1062 l 1,1,-1
 382 1062 l 1,2,-1
 354 896 l 1,3,-1
 356 896 l 1,4,5
 390 968 390 968 483 1032 c 128,-1,6
 576 1096 576 1096 694 1096 c 0,7,8
 838 1096 838 1096 913 1002 c 128,-1,9
 988 908 988 908 950 686 c 2,10,-1
 838 0 l 1,11,-1
 666 0 l 1,12,-1
 774 656 l 2,13,14
 822 944 822 944 630 944 c 0,15,16
 524 944 524 944 431 851 c 128,-1,17
 338 758 338 758 316 626 c 2,18,-1
 212 0 l 1,19,-1
 38 0 l 1,0,-1
EndSplineSet
Substitution2: "'sups' Superscript lookup 5 subtable" uni207F
Substitution2: "'aalt' Access All Alternates lookup 0 subtable" uni207F
EndChar

StartChar: o
Encoding: 111 111 82
Width: 1054
GlyphClass: 2
Flags: W
LayerCount: 2
Fore
SplineSet
240 530 m 0,0,1
 208 336 208 336 272 227 c 128,-1,2
 336 118 336 118 454 118 c 256,3,4
 572 118 572 118 673 227 c 128,-1,5
 774 336 774 336 806 530 c 0,6,7
 838 728 838 728 773 836 c 128,-1,8
 708 944 708 944 592 944 c 256,9,10
 476 944 476 944 375 837 c 128,-1,11
 274 730 274 730 240 530 c 0,0,1
64 530 m 0,12,13
 104 770 104 770 250 933 c 128,-1,14
 396 1096 396 1096 616 1096 c 0,15,16
 834 1096 834 1096 926 933 c 128,-1,17
 1018 770 1018 770 978 530 c 0,18,19
 962 430 962 430 922 335 c 128,-1,20
 882 240 882 240 818 155 c 128,-1,21
 754 70 754 70 652 18 c 128,-1,22
 550 -34 550 -34 430 -34 c 256,23,24
 310 -34 310 -34 226 17 c 128,-1,25
 142 68 142 68 105 152 c 128,-1,26
 68 236 68 236 58 332 c 128,-1,27
 48 428 48 428 64 530 c 0,12,13
EndSplineSet
Substitution2: "Single Substitution lookup 12 subtable" ordmasculine
EndChar

StartChar: p
Encoding: 112 112 83
Width: 1098
GlyphClass: 2
Flags: W
LayerCount: 2
Fore
SplineSet
308 532 m 0,0,1
 276 344 276 344 328 231 c 128,-1,2
 380 118 380 118 504 118 c 0,3,4
 624 118 624 118 720 229 c 128,-1,5
 816 340 816 340 848 532 c 0,6,7
 878 714 878 714 823 829 c 128,-1,8
 768 944 768 944 642 944 c 0,9,10
 522 944 522 944 430 828 c 128,-1,11
 338 712 338 712 308 532 c 0,0,1
-26 -452 m 1,12,-1
 226 1062 l 1,13,-1
 390 1062 l 1,14,-1
 360 888 l 1,15,16
 416 980 416 980 504 1038 c 128,-1,17
 592 1096 592 1096 690 1096 c 0,18,19
 874 1096 874 1096 968 943 c 128,-1,20
 1062 790 1062 790 1020 532 c 0,21,22
 974 254 974 254 823 110 c 128,-1,23
 672 -34 672 -34 504 -34 c 0,24,25
 396 -34 396 -34 330 22 c 128,-1,26
 264 78 264 78 246 162 c 1,27,-1
 144 -452 l 1,28,-1
 -26 -452 l 1,12,-1
EndSplineSet
EndChar

StartChar: q
Encoding: 113 113 84
Width: 1094
GlyphClass: 2
Flags: W
LayerCount: 2
Fore
SplineSet
240 532 m 0,0,1
 208 340 208 340 267 229 c 128,-1,2
 326 118 326 118 444 118 c 0,3,4
 566 118 566 118 658 230 c 128,-1,5
 750 342 750 342 782 532 c 0,6,7
 812 712 812 712 757 828 c 128,-1,8
 702 944 702 944 582 944 c 0,9,10
 450 944 450 944 360 828 c 128,-1,11
 270 712 270 712 240 532 c 0,0,1
66 532 m 0,12,13
 108 790 108 790 254 943 c 128,-1,14
 400 1096 400 1096 584 1096 c 0,15,16
 680 1096 680 1096 748 1039 c 128,-1,17
 816 982 816 982 844 888 c 1,18,-1
 872 1062 l 1,19,-1
 1036 1062 l 1,20,-1
 786 -452 l 1,21,-1
 616 -452 l 1,22,-1
 718 164 l 1,23,24
 668 78 668 78 584 22 c 128,-1,25
 500 -34 500 -34 398 -34 c 0,26,27
 226 -34 226 -34 123 110 c 128,-1,28
 20 254 20 254 66 532 c 0,12,13
EndSplineSet
EndChar

StartChar: r
Encoding: 114 114 85
Width: 694
GlyphClass: 2
Flags: W
LayerCount: 2
Fore
SplineSet
38 0 m 5,0,-1
 214 1062 l 5,1,-1
 378 1062 l 5,2,-1
 354 920 l 5,3,4
 394 988 394 988 472 1042 c 132,-1,5
 550 1096 550 1096 650 1096 c 4,6,7
 726 1096 726 1096 784 1070 c 5,8,-1
 758 906 l 5,9,10
 696 932 696 932 622 932 c 4,11,12
 498 932 498 932 416 834 c 132,-1,13
 334 736 334 736 306 574 c 6,14,-1
 212 0 l 5,15,-1
 38 0 l 5,0,-1
EndSplineSet
Substitution2: "'sups' Superscript lookup 5 subtable" uni02B3
Substitution2: "'aalt' Access All Alternates lookup 0 subtable" uni02B3
EndChar

StartChar: s
Encoding: 115 115 86
Width: 926
GlyphClass: 2
Flags: W
LayerCount: 2
Fore
SplineSet
0 214 m 1,0,-1
 136 290 l 1,1,2
 216 116 216 116 396 116 c 0,3,4
 498 116 498 116 568 156 c 128,-1,5
 638 196 638 196 650 270 c 0,6,7
 654 296 654 296 649 319 c 128,-1,8
 644 342 644 342 623 363 c 128,-1,9
 602 384 602 384 587 396 c 128,-1,10
 572 408 572 408 528 426 c 128,-1,11
 484 444 484 444 463 451 c 128,-1,12
 442 458 442 458 382 480 c 0,13,14
 320 500 320 500 279 523 c 128,-1,15
 238 546 238 546 194 581 c 128,-1,16
 150 616 150 616 133 670 c 128,-1,17
 116 724 116 724 128 794 c 0,18,19
 150 928 150 928 269 1012 c 128,-1,20
 388 1096 388 1096 558 1096 c 0,21,22
 682 1096 682 1096 777 1028 c 128,-1,23
 872 960 872 960 904 862 c 1,24,-1
 776 784 l 1,25,26
 746 852 746 852 684 899 c 128,-1,27
 622 946 622 946 534 946 c 0,28,29
 432 946 432 946 372 905 c 128,-1,30
 312 864 312 864 300 792 c 0,31,32
 294 750 294 750 309 716 c 128,-1,33
 324 682 324 682 367 656 c 128,-1,34
 410 630 410 630 442 617 c 128,-1,35
 474 604 474 604 534 582 c 0,36,37
 598 560 598 560 645 537 c 128,-1,38
 692 514 692 514 741 478 c 128,-1,39
 790 442 790 442 810 388 c 128,-1,40
 830 334 830 334 820 268 c 0,41,42
 798 140 798 140 679 53 c 128,-1,43
 560 -34 560 -34 372 -34 c 0,44,45
 234 -34 234 -34 138 31 c 128,-1,46
 42 96 42 96 0 214 c 1,0,-1
EndSplineSet
Substitution2: "'hist' Historical Forms lookup 11 subtable" longs
Substitution2: "'sups' Superscript lookup 5 subtable" uni02E2
AlternateSubs2: "'aalt' Access All Alternates lookup 1 subtable" uni02E2 longs
EndChar

StartChar: t
Encoding: 116 116 87
Width: 680
GlyphClass: 2
Flags: W
LayerCount: 2
Fore
SplineSet
90 910 m 1,0,-1
 114 1062 l 1,1,-1
 286 1062 l 1,2,-1
 340 1392 l 1,3,-1
 510 1392 l 1,4,-1
 454 1062 l 1,5,-1
 708 1062 l 1,6,-1
 682 910 l 1,7,-1
 430 910 l 1,8,-1
 332 322 l 2,9,10
 318 232 318 232 344 193 c 128,-1,11
 370 154 370 154 444 154 c 2,12,-1
 560 154 l 1,13,-1
 534 0 l 1,14,-1
 396 0 l 2,15,16
 110 0 110 0 160 306 c 2,17,-1
 260 910 l 1,18,-1
 90 910 l 1,0,-1
EndSplineSet
EndChar

StartChar: u
Encoding: 117 117 88
Width: 1046
GlyphClass: 2
Flags: W
LayerCount: 2
Fore
SplineSet
90 378 m 2,0,-1
 204 1062 l 1,1,-1
 374 1062 l 1,2,-1
 266 408 l 2,3,4
 218 118 218 118 418 118 c 0,5,6
 540 118 540 118 622 220 c 128,-1,7
 704 322 704 322 728 460 c 2,8,-1
 828 1062 l 1,9,-1
 996 1062 l 1,10,-1
 820 0 l 1,11,-1
 656 0 l 1,12,-1
 682 154 l 1,13,-1
 680 154 l 1,14,15
 648 90 648 90 565 28 c 128,-1,16
 482 -34 482 -34 356 -34 c 0,17,18
 214 -34 214 -34 135 67 c 128,-1,19
 56 168 56 168 90 378 c 2,0,-1
EndSplineSet
EndChar

StartChar: v
Encoding: 118 118 89
Width: 958
GlyphClass: 2
Flags: W
LayerCount: 2
Fore
SplineSet
96 1062 m 1,0,-1
 286 1062 l 1,1,-1
 378 440 l 2,2,3
 388 380 388 380 398 272 c 128,-1,4
 408 164 408 164 408 154 c 1,5,-1
 412 154 l 1,6,7
 434 204 434 204 481 306 c 128,-1,8
 528 408 528 408 542 440 c 2,9,-1
 838 1062 l 1,10,-1
 1026 1062 l 1,11,-1
 486 0 l 1,12,-1
 284 0 l 1,13,-1
 96 1062 l 1,0,-1
EndSplineSet
EndChar

StartChar: w
Encoding: 119 119 90
Width: 1372
GlyphClass: 2
Flags: W
LayerCount: 2
Fore
SplineSet
96 1062 m 1,0,-1
 284 1062 l 1,1,-1
 316 446 l 2,2,3
 318 404 318 404 319 314 c 128,-1,4
 320 224 320 224 324 170 c 1,5,-1
 330 170 l 1,6,7
 406 374 406 374 434 446 c 2,8,-1
 672 1062 l 1,9,-1
 866 1062 l 1,10,-1
 902 440 l 2,11,12
 904 404 904 404 909 315 c 128,-1,13
 914 226 914 226 914 170 c 1,14,-1
 922 170 l 1,15,16
 932 200 932 200 966 297 c 128,-1,17
 1000 394 1000 394 1020 446 c 2,18,-1
 1254 1062 l 1,19,-1
 1444 1062 l 1,20,-1
 990 0 l 1,21,-1
 786 0 l 1,22,-1
 750 598 l 2,23,24
 742 804 742 804 740 868 c 1,25,-1
 734 868 l 1,26,27
 676 702 676 702 636 598 c 2,28,-1
 402 0 l 1,29,-1
 196 0 l 1,30,-1
 96 1062 l 1,0,-1
EndSplineSet
Substitution2: "'sups' Superscript lookup 5 subtable" uni02B7
Substitution2: "'aalt' Access All Alternates lookup 0 subtable" uni02B7
EndChar

StartChar: x
Encoding: 120 120 91
Width: 946
GlyphClass: 2
Flags: W
LayerCount: 2
Fore
SplineSet
-84 0 m 1,0,-1
 368 550 l 1,1,-1
 108 1062 l 1,2,-1
 314 1062 l 1,3,-1
 430 804 l 2,4,5
 442 776 442 776 462 733 c 128,-1,6
 482 690 482 690 486 676 c 1,7,-1
 492 676 l 1,8,9
 508 698 508 698 540 740 c 128,-1,10
 572 782 572 782 588 804 c 2,11,-1
 790 1062 l 1,12,-1
 996 1062 l 1,13,-1
 570 550 l 1,14,-1
 840 0 l 1,15,-1
 638 0 l 1,16,-1
 506 294 l 2,17,18
 484 342 484 342 450 420 c 1,19,-1
 444 420 l 1,20,21
 404 366 404 366 348 294 c 2,22,-1
 118 0 l 1,23,-1
 -84 0 l 1,0,-1
EndSplineSet
Substitution2: "'sups' Superscript lookup 5 subtable" uni02E3
Substitution2: "'aalt' Access All Alternates lookup 0 subtable" uni02E3
EndChar

StartChar: y
Encoding: 121 121 92
Width: 954
GlyphClass: 2
Flags: W
LayerCount: 2
Fore
SplineSet
96 1062 m 1,0,-1
 290 1062 l 1,1,-1
 388 466 l 2,2,3
 414 304 414 304 422 206 c 1,4,-1
 430 206 l 1,5,6
 514 392 514 392 548 466 c 2,7,-1
 832 1062 l 1,8,-1
 1024 1062 l 1,9,-1
 394 -164 l 2,10,11
 312 -324 312 -324 221 -388 c 128,-1,12
 130 -452 130 -452 14 -452 c 2,13,-1
 -44 -452 l 1,14,-1
 -20 -302 l 1,15,-1
 14 -302 l 2,16,17
 88 -302 88 -302 144 -262 c 128,-1,18
 200 -222 200 -222 252 -118 c 2,19,-1
 308 0 l 1,20,-1
 96 1062 l 1,0,-1
EndSplineSet
Substitution2: "'sups' Superscript lookup 5 subtable" uni02B8
Substitution2: "'aalt' Access All Alternates lookup 0 subtable" uni02B8
EndChar

StartChar: z
Encoding: 122 122 93
Width: 908
GlyphClass: 2
Flags: W
LayerCount: 2
Fore
SplineSet
-42 0 m 1,0,-1
 -22 122 l 1,1,-1
 676 910 l 1,2,-1
 158 910 l 1,3,-1
 184 1062 l 1,4,-1
 922 1062 l 1,5,-1
 902 948 l 1,6,-1
 202 152 l 1,7,-1
 790 152 l 1,8,-1
 764 0 l 1,9,-1
 -42 0 l 1,0,-1
EndSplineSet
EndChar

StartChar: braceleft
Encoding: 123 123 94
Width: 848
GlyphClass: 2
Flags: W
LayerCount: 2
Fore
SplineSet
124 630 m 1,0,-1
 148 768 l 1,1,-1
 204 768 l 2,2,3
 260 768 260 768 306 831 c 128,-1,4
 352 894 352 894 374 1020 c 2,5,-1
 436 1394 l 2,6,7
 456 1520 456 1520 536 1590 c 128,-1,8
 616 1660 616 1660 724 1660 c 2,9,-1
 882 1660 l 1,10,-1
 856 1510 l 1,11,-1
 734 1510 l 2,12,13
 688 1510 688 1510 655 1475 c 128,-1,14
 622 1440 622 1440 610 1372 c 2,15,-1
 548 992 l 2,16,17
 528 872 528 872 479 808 c 128,-1,18
 430 744 430 744 356 700 c 1,19,20
 486 622 486 622 454 426 c 2,21,-1
 392 48 l 2,22,23
 380 -26 380 -26 401 -64 c 128,-1,24
 422 -102 422 -102 470 -102 c 2,25,-1
 590 -102 l 1,26,-1
 566 -250 l 1,27,-1
 408 -250 l 2,28,29
 304 -250 304 -250 245 -184 c 128,-1,30
 186 -118 186 -118 208 14 c 2,31,-1
 270 398 l 2,32,33
 288 502 288 502 262 566 c 128,-1,34
 236 630 236 630 182 630 c 2,35,-1
 124 630 l 1,0,-1
EndSplineSet
EndChar

StartChar: bar
Encoding: 124 124 95
Width: 514
GlyphClass: 2
Flags: W
LayerCount: 2
Fore
SplineSet
22 -326 m 1,0,-1
 362 1728 l 1,1,-1
 540 1728 l 1,2,-1
 200 -326 l 1,3,-1
 22 -326 l 1,0,-1
EndSplineSet
EndChar

StartChar: braceright
Encoding: 125 125 96
Width: 848
GlyphClass: 2
Flags: W
LayerCount: 2
Fore
SplineSet
40 -102 m 1,0,-1
 160 -102 l 2,1,2
 208 -102 208 -102 242 -64 c 128,-1,3
 276 -26 276 -26 288 48 c 2,4,-1
 352 426 l 2,5,6
 384 616 384 616 540 700 c 1,7,8
 480 744 480 744 452 807 c 128,-1,9
 424 870 424 870 444 992 c 2,10,-1
 508 1372 l 2,11,12
 520 1440 520 1440 499 1475 c 128,-1,13
 478 1510 478 1510 430 1510 c 2,14,-1
 308 1510 l 1,15,-1
 332 1660 l 1,16,-1
 486 1660 l 2,17,18
 594 1660 594 1660 651 1590 c 128,-1,19
 708 1520 708 1520 688 1394 c 2,20,-1
 626 1020 l 2,21,22
 606 894 606 894 630 831 c 128,-1,23
 654 768 654 768 714 768 c 2,24,-1
 768 768 l 1,25,-1
 746 630 l 1,26,-1
 690 630 l 2,27,28
 630 630 630 630 585 566 c 128,-1,29
 540 502 540 502 522 398 c 2,30,-1
 460 14 l 2,31,32
 438 -118 438 -118 356 -184 c 128,-1,33
 274 -250 274 -250 170 -250 c 2,34,-1
 16 -250 l 1,35,-1
 40 -102 l 1,0,-1
EndSplineSet
EndChar

StartChar: asciitilde
Encoding: 126 126 97
Width: 1488
GlyphClass: 2
Flags: W
LayerCount: 2
Fore
SplineSet
128 610 m 1,0,1
 310 916 310 916 568 916 c 0,2,3
 644 916 644 916 708 875 c 128,-1,4
 772 834 772 834 808 787 c 128,-1,5
 844 740 844 740 893 699 c 128,-1,6
 942 658 942 658 996 658 c 0,7,8
 1046 658 1046 658 1087 676 c 128,-1,9
 1128 694 1128 694 1166 735 c 128,-1,10
 1204 776 1204 776 1216 794 c 128,-1,11
 1228 812 1228 812 1258 864 c 0,12,13
 1266 872 1266 872 1270 878 c 1,14,-1
 1406 806 l 1,15,16
 1222 500 1222 500 974 500 c 0,17,18
 896 500 896 500 831 541 c 128,-1,19
 766 582 766 582 729 629 c 128,-1,20
 692 676 692 676 642 717 c 128,-1,21
 592 758 592 758 542 758 c 0,22,23
 398 758 398 758 268 538 c 1,24,-1
 128 610 l 1,0,1
EndSplineSet
EndChar

StartChar: exclamdown
Encoding: 161 161 99
Width: 582
GlyphClass: 2
Flags: W
LayerCount: 2
Fore
SplineSet
28 -416 m 1,0,-1
 222 642 l 1,1,-1
 388 642 l 1,2,-1
 228 -416 l 1,3,-1
 28 -416 l 1,0,-1
202 824 m 1,4,-1
 244 1070 l 1,5,-1
 508 1070 l 1,6,-1
 468 824 l 1,7,-1
 202 824 l 1,4,-1
EndSplineSet
EndChar

StartChar: cent
Encoding: 162 162 100
Width: 984
GlyphClass: 2
Flags: W
LayerCount: 2
Fore
SplineSet
66 532 m 0,0,1
 102 750 102 750 230 906 c 128,-1,2
 358 1062 358 1062 544 1086 c 1,3,-1
 570 1242 l 1,4,-1
 734 1242 l 1,5,-1
 708 1088 l 1,6,7
 824 1064 824 1064 887 985 c 128,-1,8
 950 906 950 906 962 808 c 1,9,-1
 804 762 l 1,10,11
 786 838 786 838 738 891 c 128,-1,12
 690 944 690 944 610 944 c 0,13,14
 472 944 472 944 374 827 c 128,-1,15
 276 710 276 710 248 532 c 0,16,17
 216 344 216 344 278 231 c 128,-1,18
 340 118 340 118 470 118 c 0,19,20
 556 118 556 118 635 176 c 128,-1,21
 714 234 714 234 754 312 c 1,22,-1
 898 266 l 1,23,24
 848 164 848 164 750 82 c 128,-1,25
 652 0 652 0 524 -26 c 1,26,-1
 496 -190 l 1,27,-1
 334 -190 l 1,28,-1
 360 -26 l 1,29,30
 192 -4 192 -4 109 146 c 128,-1,31
 26 296 26 296 66 532 c 0,0,1
EndSplineSet
EndChar

StartChar: sterling
Encoding: 163 163 101
Width: 1148
GlyphClass: 2
Flags: W
LayerCount: 2
Fore
SplineSet
84 650 m 1,0,-1
 110 808 l 1,1,-1
 320 808 l 1,2,-1
 374 1132 l 2,3,4
 404 1312 404 1312 533 1408 c 128,-1,5
 662 1504 662 1504 850 1504 c 0,6,7
 980 1504 980 1504 1064 1438 c 128,-1,8
 1148 1372 1148 1372 1178 1284 c 1,9,-1
 1036 1208 l 1,10,11
 1010 1262 1010 1262 955 1302 c 128,-1,12
 900 1342 900 1342 824 1342 c 0,13,14
 718 1342 718 1342 645 1285 c 128,-1,15
 572 1228 572 1228 554 1116 c 2,16,-1
 502 808 l 1,17,-1
 928 808 l 1,18,-1
 902 650 l 1,19,-1
 476 650 l 1,20,-1
 440 428 l 2,21,22
 408 240 408 240 314 170 c 1,23,24
 414 188 414 188 468 188 c 256,25,26
 522 188 522 188 614 157 c 128,-1,27
 706 126 706 126 770 126 c 0,28,29
 902 126 902 126 1020 186 c 1,30,-1
 1046 34 l 1,31,32
 896 -34 896 -34 742 -34 c 0,33,34
 680 -34 680 -34 563 -2 c 128,-1,35
 446 30 446 30 386 30 c 0,36,37
 318 30 318 30 225 17 c 128,-1,38
 132 4 132 4 78 -12 c 2,39,-1
 18 -26 l 1,40,-1
 -6 110 l 1,41,42
 102 134 102 134 169 216 c 128,-1,43
 236 298 236 298 256 418 c 2,44,-1
 294 650 l 1,45,-1
 84 650 l 1,0,-1
EndSplineSet
EndChar

StartChar: currency
Encoding: 164 164 102
Width: 1248
GlyphClass: 2
Flags: W
LayerCount: 2
Fore
SplineSet
0 290 m 1,0,-1
 250 496 l 1,1,2
 188 598 188 598 210 734 c 0,3,4
 232 872 232 872 326 972 c 1,5,-1
 146 1176 l 1,6,-1
 286 1292 l 1,7,-1
 460 1090 l 1,8,9
 596 1174 596 1174 726 1174 c 0,10,11
 862 1174 862 1174 966 1090 c 1,12,-1
 1204 1290 l 1,13,-1
 1306 1174 l 1,14,-1
 1064 972 l 1,15,16
 1120 878 1120 878 1096 734 c 0,17,18
 1074 596 1074 596 982 496 c 1,19,-1
 1160 290 l 1,20,-1
 1020 176 l 1,21,-1
 846 376 l 1,22,23
 716 292 716 292 580 292 c 0,24,25
 438 292 438 292 342 376 c 1,26,-1
 102 176 l 1,27,-1
 0 290 l 1,0,-1
372 734 m 256,28,29
 352 618 352 618 417 534 c 128,-1,30
 482 450 482 450 606 450 c 0,31,32
 728 450 728 450 821 533 c 128,-1,33
 914 616 914 616 934 734 c 256,34,35
 954 852 954 852 887 934 c 128,-1,36
 820 1016 820 1016 700 1016 c 0,37,38
 578 1016 578 1016 485 933 c 128,-1,39
 392 850 392 850 372 734 c 256,28,29
EndSplineSet
EndChar

StartChar: yen
Encoding: 165 165 103
Width: 1182
GlyphClass: 2
Flags: W
LayerCount: 2
Fore
SplineSet
144 1470 m 1,0,-1
 360 1470 l 1,1,-1
 526 1108 l 2,2,3
 608 924 608 924 638 852 c 1,4,-1
 642 852 l 1,5,6
 674 892 674 892 738 978 c 128,-1,7
 802 1064 802 1064 836 1108 c 2,8,-1
 1124 1470 l 1,9,-1
 1340 1470 l 1,10,-1
 808 820 l 1,11,-1
 1102 820 l 1,12,-1
 1080 686 l 1,13,-1
 704 686 l 1,14,-1
 668 468 l 1,15,-1
 1044 468 l 1,16,-1
 1022 334 l 1,17,-1
 646 334 l 1,18,-1
 590 0 l 1,19,-1
 406 0 l 1,20,-1
 462 334 l 1,21,-1
 84 334 l 1,22,-1
 106 468 l 1,23,-1
 484 468 l 1,24,-1
 520 686 l 1,25,-1
 142 686 l 1,26,-1
 164 820 l 1,27,-1
 460 820 l 1,28,-1
 144 1470 l 1,0,-1
EndSplineSet
EndChar

StartChar: brokenbar
Encoding: 166 166 104
Width: 514
GlyphClass: 2
Flags: W
LayerCount: 2
Fore
SplineSet
228 918 m 1,0,-1
 362 1728 l 1,1,-1
 540 1728 l 1,2,-1
 406 918 l 1,3,-1
 228 918 l 1,0,-1
22 -324 m 1,4,-1
 156 484 l 1,5,-1
 334 484 l 1,6,-1
 200 -324 l 1,7,-1
 22 -324 l 1,4,-1
EndSplineSet
EndChar

StartChar: section
Encoding: 167 167 105
Width: 1074
GlyphClass: 2
Flags: W
LayerCount: 2
Fore
SplineSet
16 98 m 1,0,-1
 152 188 l 1,1,2
 186 128 186 128 253 88 c 128,-1,3
 320 48 320 48 410 48 c 0,4,5
 628 48 628 48 650 180 c 0,6,7
 658 228 658 228 632 257 c 128,-1,8
 606 286 606 286 542 318 c 2,9,-1
 348 416 l 2,10,11
 228 476 228 476 179 546 c 128,-1,12
 130 616 130 616 146 712 c 0,13,14
 172 866 172 866 374 1000 c 1,15,16
 264 1098 264 1098 284 1214 c 0,17,18
 306 1344 306 1344 421 1424 c 128,-1,19
 536 1504 536 1504 738 1504 c 0,20,21
 868 1504 868 1504 961 1448 c 128,-1,22
 1054 1392 1054 1392 1102 1300 c 1,23,-1
 970 1208 l 1,24,25
 872 1346 872 1346 706 1346 c 0,26,27
 598 1346 598 1346 539 1310 c 128,-1,28
 480 1274 480 1274 470 1214 c 0,29,30
 466 1190 466 1190 471 1171 c 128,-1,31
 476 1152 476 1152 491 1133 c 128,-1,32
 506 1114 506 1114 519 1101 c 128,-1,33
 532 1088 532 1088 563 1070 c 128,-1,34
 594 1052 594 1052 610 1043 c 128,-1,35
 626 1034 626 1034 667 1013 c 128,-1,36
 708 992 708 992 726 984 c 0,37,38
 786 954 786 954 815 937 c 128,-1,39
 844 920 844 920 890 887 c 128,-1,40
 936 854 936 854 955 823 c 128,-1,41
 974 792 974 792 986 746 c 128,-1,42
 998 700 998 700 990 646 c 0,43,44
 964 488 964 488 788 360 c 1,45,46
 850 284 850 284 832 180 c 0,47,48
 810 48 810 48 699 -31 c 128,-1,49
 588 -110 588 -110 386 -110 c 0,50,51
 250 -110 250 -110 152 -48 c 128,-1,52
 54 14 54 14 16 98 c 1,0,-1
334 720 m 0,53,54
 324 654 324 654 354 619 c 128,-1,55
 384 584 384 584 476 538 c 2,56,-1
 660 446 l 1,57,58
 788 542 788 542 806 646 c 0,59,60
 816 704 816 704 778 743 c 128,-1,61
 740 782 740 782 650 832 c 2,62,-1
 498 918 l 1,63,64
 350 820 350 820 334 720 c 0,53,54
EndSplineSet
EndChar

StartChar: dieresis
Encoding: 168 168 106
Width: 930
GlyphClass: 2
Flags: W
LayerCount: 2
Fore
SplineSet
290 1248 m 1,0,-1
 328 1470 l 1,1,-1
 542 1470 l 1,2,-1
 504 1248 l 1,3,-1
 290 1248 l 1,0,-1
654 1248 m 1,4,-1
 690 1470 l 1,5,-1
 904 1470 l 1,6,-1
 868 1248 l 1,7,-1
 654 1248 l 1,4,-1
EndSplineSet
EndChar

StartChar: copyright
Encoding: 169 169 107
Width: 1686
GlyphClass: 2
Flags: W
LayerCount: 2
Fore
SplineSet
508 744 m 0,0,1
 544 960 544 960 670 1087 c 128,-1,2
 796 1214 796 1214 978 1214 c 0,3,4
 1100 1214 1100 1214 1166 1147 c 128,-1,5
 1232 1080 1232 1080 1254 978 c 1,6,-1
 1114 934 l 1,7,8
 1066 1076 1066 1076 954 1076 c 256,9,10
 842 1076 842 1076 765 987 c 128,-1,11
 688 898 688 898 662 744 c 0,12,13
 636 586 636 586 685 499 c 128,-1,14
 734 412 734 412 844 412 c 0,15,16
 914 412 914 412 976 456 c 128,-1,17
 1038 500 1038 500 1072 566 c 1,18,-1
 1198 524 l 1,19,20
 1148 422 1148 422 1048 348 c 128,-1,21
 948 274 948 274 820 274 c 0,22,23
 646 274 646 274 559 400 c 128,-1,24
 472 526 472 526 508 744 c 0,0,1
108 746 m 256,25,26
 166 1098 166 1098 421 1317 c 128,-1,27
 676 1536 676 1536 1002 1536 c 0,28,29
 1338 1536 1338 1536 1519 1315 c 128,-1,30
 1700 1094 1700 1094 1642 746 c 0,31,32
 1586 402 1586 402 1331 180 c 128,-1,33
 1076 -42 1076 -42 742 -42 c 0,34,35
 414 -42 414 -42 232 176 c 128,-1,36
 50 394 50 394 108 746 c 256,25,26
242 746 m 256,37,38
 192 450 192 450 336 264 c 128,-1,39
 480 78 480 78 762 78 c 0,40,41
 1040 78 1040 78 1250 262 c 128,-1,42
 1460 446 1460 446 1510 746 c 0,43,44
 1560 1042 1560 1042 1411 1227 c 128,-1,45
 1262 1412 1262 1412 982 1412 c 0,46,47
 704 1412 704 1412 498 1227 c 128,-1,48
 292 1042 292 1042 242 746 c 256,37,38
EndSplineSet
EndChar

StartChar: ordfeminine
Encoding: 170 170 108
Width: 746
GlyphClass: 2
Flags: W
LayerCount: 2
Fore
SplineSet
78 628 m 1,0,-1
 98 750 l 1,1,-1
 714 750 l 1,2,-1
 694 628 l 1,3,-1
 78 628 l 1,0,-1
272 1086 m 0,4,5
 264 1040 264 1040 296 1009 c 128,-1,6
 328 978 328 978 394 978 c 0,7,8
 478 978 478 978 548 1035 c 128,-1,9
 618 1092 618 1092 632 1182 c 2,10,-1
 646 1264 l 1,11,12
 614 1256 614 1256 553 1246 c 128,-1,13
 492 1236 492 1236 455 1229 c 128,-1,14
 418 1222 418 1222 374 1205 c 128,-1,15
 330 1188 330 1188 304 1158 c 128,-1,16
 278 1128 278 1128 272 1086 c 0,4,5
136 1076 m 0,17,18
 148 1150 148 1150 190 1201 c 128,-1,19
 232 1252 232 1252 297 1279 c 128,-1,20
 362 1306 362 1306 420 1320 c 128,-1,21
 478 1334 478 1334 553 1346 c 128,-1,22
 628 1358 628 1358 664 1368 c 1,23,-1
 670 1404 l 2,24,25
 680 1464 680 1464 642 1503 c 128,-1,26
 604 1542 604 1542 530 1542 c 0,27,28
 460 1542 460 1542 396 1506 c 128,-1,29
 332 1470 332 1470 298 1432 c 1,30,-1
 226 1504 l 1,31,32
 270 1554 270 1554 360 1603 c 128,-1,33
 450 1652 450 1652 546 1652 c 0,34,35
 842 1652 842 1652 792 1356 c 2,36,-1
 716 886 l 1,37,-1
 588 886 l 1,38,-1
 604 980 l 1,39,40
 514 864 514 864 358 864 c 0,41,42
 236 864 236 864 178 923 c 128,-1,43
 120 982 120 982 136 1076 c 0,17,18
EndSplineSet
EndChar

StartChar: guillemotleft
Encoding: 171 171 109
Width: 934
GlyphClass: 2
Flags: W
LayerCount: 2
Fore
SplineSet
60 508 m 1,0,-1
 452 972 l 1,1,-1
 566 886 l 1,2,-1
 252 508 l 1,3,-1
 440 136 l 1,4,-1
 298 46 l 1,5,-1
 60 508 l 1,0,-1
420 508 m 1,6,-1
 808 956 l 1,7,-1
 918 860 l 1,8,-1
 612 508 l 1,9,-1
 800 156 l 1,10,-1
 660 62 l 1,11,-1
 420 508 l 1,6,-1
EndSplineSet
EndChar

StartChar: logicalnot
Encoding: 172 172 110
Width: 1062
GlyphClass: 2
Flags: W
LayerCount: 2
Fore
SplineSet
94 618 m 1,0,-1
 120 776 l 1,1,-1
 1014 776 l 1,2,-1
 926 244 l 1,3,-1
 756 244 l 1,4,-1
 818 618 l 1,5,-1
 94 618 l 1,0,-1
EndSplineSet
EndChar

StartChar: uni00AD
Encoding: 173 173 111
Width: 1080
GlyphClass: 2
Flags: W
LayerCount: 2
Fore
SplineSet
118 650 m 1,0,-1
 144 810 l 1,1,-1
 1018 810 l 1,2,-1
 992 650 l 1,3,-1
 118 650 l 1,0,-1
EndSplineSet
EndChar

StartChar: registered
Encoding: 174 174 112
Width: 1686
GlyphClass: 2
Flags: W
LayerCount: 2
Fore
SplineSet
516 290 m 1,0,-1
 666 1188 l 1,1,-1
 1014 1188 l 2,2,3
 1144 1188 1144 1188 1202 1114 c 128,-1,4
 1260 1040 1260 1040 1242 932 c 0,5,6
 1216 778 1216 778 1076 712 c 1,7,8
 1130 664 1130 664 1138 550 c 0,9,10
 1142 432 1142 432 1192 290 c 1,11,-1
 1022 290 l 1,12,13
 988 376 988 376 980 534 c 0,14,15
 978 578 978 578 975 598 c 128,-1,16
 972 618 972 618 954 639 c 128,-1,17
 936 660 936 660 904 660 c 2,18,-1
 730 660 l 1,19,-1
 670 290 l 1,20,-1
 516 290 l 1,0,-1
752 784 m 1,21,-1
 926 784 l 2,22,23
 990 784 990 784 1032 821 c 128,-1,24
 1074 858 1074 858 1084 918 c 0,25,26
 1094 974 1094 974 1065 1012 c 128,-1,27
 1036 1050 1036 1050 970 1050 c 2,28,-1
 796 1050 l 1,29,-1
 752 784 l 1,21,-1
108 748 m 0,30,31
 166 1100 166 1100 420 1318 c 128,-1,32
 674 1536 674 1536 1002 1536 c 0,33,34
 1338 1536 1338 1536 1519 1315 c 128,-1,35
 1700 1094 1700 1094 1642 748 c 256,36,37
 1584 402 1584 402 1331 180 c 128,-1,38
 1078 -42 1078 -42 742 -42 c 0,39,40
 414 -42 414 -42 232 176 c 128,-1,41
 50 394 50 394 108 748 c 0,30,31
242 748 m 0,42,43
 192 450 192 450 335 266 c 128,-1,44
 478 82 478 82 762 82 c 0,45,46
 1044 82 1044 82 1252 266 c 128,-1,47
 1460 450 1460 450 1510 748 c 256,48,49
 1560 1046 1560 1046 1410 1228 c 128,-1,50
 1260 1410 1260 1410 982 1410 c 0,51,52
 702 1410 702 1410 497 1227 c 128,-1,53
 292 1044 292 1044 242 748 c 0,42,43
EndSplineSet
EndChar

StartChar: macron
Encoding: 175 175 113
Width: 980
GlyphClass: 2
Flags: W
LayerCount: 2
Fore
SplineSet
148 1450 m 1,0,-1
 174 1608 l 1,1,-1
 1154 1608 l 1,2,-1
 1128 1450 l 1,3,-1
 148 1450 l 1,0,-1
EndSplineSet
EndChar

StartChar: degree
Encoding: 176 176 114
Width: 804
GlyphClass: 2
Flags: W
LayerCount: 2
Fore
SplineSet
264 1234 m 0,0,1
 282 1338 282 1338 364 1411 c 128,-1,2
 446 1484 446 1484 556 1484 c 0,3,4
 662 1484 662 1484 722 1412 c 128,-1,5
 782 1340 782 1340 764 1234 c 256,6,7
 746 1128 746 1128 661 1055 c 128,-1,8
 576 982 576 982 472 982 c 0,9,10
 366 982 366 982 306 1055 c 128,-1,11
 246 1128 246 1128 264 1234 c 0,0,1
380 1234 m 0,12,13
 370 1174 370 1174 401 1134 c 128,-1,14
 432 1094 432 1094 490 1094 c 0,15,16
 544 1094 544 1094 590 1134 c 128,-1,17
 636 1174 636 1174 646 1234 c 0,18,19
 654 1288 654 1288 625 1329 c 128,-1,20
 596 1370 596 1370 536 1370 c 256,21,22
 476 1370 476 1370 432 1329 c 128,-1,23
 388 1288 388 1288 380 1234 c 0,12,13
EndSplineSet
EndChar

StartChar: plusminus
Encoding: 177 177 115
Width: 1084
GlyphClass: 2
Flags: W
LayerCount: 2
Fore
SplineSet
116 804 m 1,0,-1
 142 962 l 1,1,-1
 520 962 l 1,2,-1
 576 1302 l 1,3,-1
 752 1302 l 1,4,-1
 696 962 l 1,5,-1
 1072 962 l 1,6,-1
 1046 804 l 1,7,-1
 670 804 l 1,8,-1
 614 466 l 1,9,-1
 438 466 l 1,10,-1
 494 804 l 1,11,-1
 116 804 l 1,0,-1
14 182 m 1,12,-1
 40 340 l 1,13,-1
 970 340 l 1,14,-1
 944 182 l 1,15,-1
 14 182 l 1,12,-1
EndSplineSet
EndChar

StartChar: twosuperior
Encoding: 178 178 116
Width: 628
GlyphClass: 2
Flags: W
LayerCount: 2
Fore
SplineSet
190 1414 m 1,0,1
 286 1650 286 1650 492 1650 c 0,2,3
 604 1650 604 1650 664 1583 c 128,-1,4
 724 1516 724 1516 706 1404 c 0,5,6
 686 1280 686 1280 526 1140 c 0,7,8
 506 1124 506 1124 458 1084 c 128,-1,9
 410 1044 410 1044 384 1021 c 128,-1,10
 358 998 358 998 323 962 c 128,-1,11
 288 926 288 926 270 894 c 1,12,-1
 620 894 l 1,13,-1
 602 780 l 1,14,-1
 92 780 l 1,15,16
 110 888 110 888 181 972 c 128,-1,17
 252 1056 252 1056 446 1220 c 0,18,19
 556 1310 556 1310 572 1406 c 0,20,21
 582 1468 582 1468 555 1502 c 128,-1,22
 528 1536 528 1536 472 1536 c 0,23,24
 420 1536 420 1536 378 1501 c 128,-1,25
 336 1466 336 1466 325 1443 c 128,-1,26
 314 1420 314 1420 298 1384 c 1,27,-1
 190 1414 l 1,0,1
EndSplineSet
EndChar

StartChar: threesuperior
Encoding: 179 179 117
Width: 630
GlyphClass: 2
Flags: W
LayerCount: 2
Fore
SplineSet
98 954 m 1,0,-1
 212 996 l 1,1,2
 248 874 248 874 356 874 c 0,3,4
 420 874 420 874 470 914 c 128,-1,5
 520 954 520 954 532 1026 c 0,6,7
 544 1094 544 1094 503 1132 c 128,-1,8
 462 1170 462 1170 390 1170 c 0,9,10
 360 1170 360 1170 310 1166 c 1,11,-1
 330 1282 l 1,12,13
 390 1278 390 1278 404 1278 c 0,14,15
 464 1278 464 1278 509 1313 c 128,-1,16
 554 1348 554 1348 564 1412 c 0,17,18
 574 1468 574 1468 545 1503 c 128,-1,19
 516 1538 516 1538 462 1538 c 0,20,21
 406 1538 406 1538 370 1504 c 128,-1,22
 334 1470 334 1470 304 1412 c 1,23,-1
 202 1446 l 1,24,25
 296 1650 296 1650 484 1650 c 0,26,27
 598 1650 598 1650 656 1585 c 128,-1,28
 714 1520 714 1520 698 1422 c 0,29,30
 676 1294 676 1294 564 1234 c 1,31,32
 688 1172 688 1172 666 1026 c 0,33,34
 646 904 646 904 555 833 c 128,-1,35
 464 762 464 762 338 762 c 0,36,37
 238 762 238 762 176 814 c 128,-1,38
 114 866 114 866 98 954 c 1,0,-1
EndSplineSet
EndChar

StartChar: acute
Encoding: 180 180 118
Width: 668
GlyphClass: 2
Flags: W
LayerCount: 2
Fore
SplineSet
258 1300 m 1,0,-1
 530 1648 l 1,1,-1
 754 1648 l 1,2,-1
 410 1300 l 1,3,-1
 258 1300 l 1,0,-1
EndSplineSet
EndChar

StartChar: uni00B5
Encoding: 181 181 119
Width: 1064
GlyphClass: 2
Flags: W
LayerCount: 2
Fore
SplineSet
-26 -452 m 1,0,-1
 226 1062 l 1,1,-1
 396 1062 l 1,2,-1
 288 408 l 2,3,4
 240 118 240 118 438 118 c 0,5,6
 560 118 560 118 642 220 c 128,-1,7
 724 322 724 322 748 460 c 2,8,-1
 846 1062 l 1,9,-1
 1016 1062 l 1,10,-1
 840 0 l 1,11,-1
 676 0 l 1,12,-1
 702 154 l 1,13,-1
 700 154 l 1,14,15
 662 76 662 76 576 21 c 128,-1,16
 490 -34 490 -34 380 -34 c 0,17,18
 272 -34 272 -34 230 54 c 1,19,-1
 146 -452 l 1,20,-1
 -26 -452 l 1,0,-1
EndSplineSet
EndChar

StartChar: paragraph
Encoding: 182 182 120
Width: 1216
GlyphClass: 2
Flags: W
LayerCount: 2
Fore
SplineSet
186 1090 m 0,0,1
 220 1290 220 1290 343 1413 c 128,-1,2
 466 1536 466 1536 660 1536 c 2,3,-1
 1220 1536 l 1,4,-1
 942 -142 l 1,5,-1
 796 -142 l 1,6,-1
 1046 1370 l 1,7,-1
 866 1370 l 1,8,-1
 616 -142 l 1,9,-1
 466 -142 l 1,10,-1
 598 648 l 1,11,12
 550 632 550 632 486 632 c 0,13,14
 328 632 328 632 239 751 c 128,-1,15
 150 870 150 870 186 1090 c 0,0,1
EndSplineSet
EndChar

StartChar: periodcentered
Encoding: 183 183 121
Width: 638
GlyphClass: 2
Flags: W
LayerCount: 2
Fore
SplineSet
190 580 m 1,0,-1
 230 830 l 1,1,-1
 496 830 l 1,2,-1
 454 580 l 1,3,-1
 190 580 l 1,0,-1
EndSplineSet
EndChar

StartChar: cedilla
Encoding: 184 184 122
Width: 576
GlyphClass: 2
Flags: W
LayerCount: 2
Fore
SplineSet
-66 -308 m 1,0,1
 18 -328 18 -328 56 -328 c 0,2,3
 178 -328 178 -328 190 -254 c 0,4,5
 204 -172 204 -172 22 -158 c 1,6,-1
 152 46 l 1,7,-1
 310 46 l 1,8,-1
 232 -74 l 1,9,10
 296 -92 296 -92 331 -138 c 128,-1,11
 366 -184 366 -184 354 -256 c 0,12,13
 340 -342 340 -342 265 -400 c 128,-1,14
 190 -458 190 -458 48 -458 c 0,15,16
 -30 -458 -30 -458 -88 -440 c 1,17,-1
 -66 -308 l 1,0,1
EndSplineSet
EndChar

StartChar: onesuperior
Encoding: 185 185 123
Width: 612
GlyphClass: 2
Flags: W
LayerCount: 2
Fore
SplineSet
228 1398 m 1,0,-1
 246 1504 l 1,1,-1
 294 1504 l 2,2,3
 380 1504 380 1504 415 1531 c 128,-1,4
 450 1558 450 1558 460 1608 c 2,5,-1
 466 1646 l 1,6,-1
 582 1646 l 1,7,-1
 438 780 l 1,8,-1
 306 780 l 1,9,-1
 408 1398 l 1,10,-1
 228 1398 l 1,0,-1
EndSplineSet
EndChar

StartChar: ordmasculine
Encoding: 186 186 124
Width: 754
GlyphClass: 2
Flags: W
LayerCount: 2
Fore
SplineSet
296 1258 m 0,0,1
 274 1126 274 1126 319 1052 c 128,-1,2
 364 978 364 978 446 978 c 0,3,4
 524 978 524 978 595 1052 c 128,-1,5
 666 1126 666 1126 688 1258 c 0,6,7
 710 1392 710 1392 665 1464 c 128,-1,8
 620 1536 620 1536 538 1536 c 256,9,10
 456 1536 456 1536 387 1464 c 128,-1,11
 318 1392 318 1392 296 1258 c 0,0,1
162 1258 m 0,12,13
 190 1426 190 1426 295 1539 c 128,-1,14
 400 1652 400 1652 558 1652 c 0,15,16
 714 1652 714 1652 782 1539 c 128,-1,17
 850 1426 850 1426 822 1258 c 0,18,19
 810 1188 810 1188 782 1122 c 128,-1,20
 754 1056 754 1056 707 996 c 128,-1,21
 660 936 660 936 587 900 c 128,-1,22
 514 864 514 864 428 864 c 0,23,24
 312 864 312 864 245 927 c 128,-1,25
 178 990 178 990 162 1075 c 128,-1,26
 146 1160 146 1160 162 1258 c 0,12,13
80 632 m 1,27,-1
 100 754 l 1,28,-1
 722 754 l 1,29,-1
 700 632 l 1,30,-1
 80 632 l 1,27,-1
EndSplineSet
EndChar

StartChar: guillemotright
Encoding: 187 187 125
Width: 932
GlyphClass: 2
Flags: W
LayerCount: 2
Fore
SplineSet
114 860 m 1,0,-1
 256 956 l 1,1,-1
 496 508 l 1,2,-1
 108 62 l 1,3,-1
 0 156 l 1,4,-1
 306 508 l 1,5,-1
 114 860 l 1,0,-1
354 138 m 1,6,-1
 664 508 l 1,7,-1
 472 886 l 1,8,-1
 618 972 l 1,9,-1
 856 508 l 1,10,-1
 466 46 l 1,11,-1
 354 138 l 1,6,-1
EndSplineSet
EndChar

StartChar: onequarter
Encoding: 188 188 126
Width: 1876
GlyphClass: 3
Flags: W
LayerCount: 2
Fore
SplineSet
1184 266 m 1,0,-1
 1416 266 l 1,1,-1
 1462 548 l 2,2,3
 1464 562 1464 562 1471 597 c 128,-1,4
 1478 632 1478 632 1480 644 c 1,5,-1
 1412 552 l 1,6,-1
 1184 266 l 1,0,-1
258 1296 m 1,7,-1
 280 1428 l 1,8,-1
 340 1428 l 2,9,10
 432 1428 432 1428 473 1457 c 128,-1,11
 514 1486 514 1486 522 1540 c 2,12,-1
 530 1586 l 1,13,-1
 670 1586 l 1,14,-1
 504 592 l 1,15,-1
 344 592 l 1,16,-1
 460 1296 l 1,17,-1
 258 1296 l 1,7,-1
192 -100 m 1,18,-1
 1396 1562 l 1,19,-1
 1568 1562 l 1,20,-1
 366 -100 l 1,21,-1
 192 -100 l 1,18,-1
1012 248 m 1,22,-1
 1546 908 l 1,23,-1
 1680 908 l 1,24,-1
 1574 266 l 1,25,-1
 1700 266 l 1,26,-1
 1676 126 l 1,27,-1
 1550 126 l 1,28,-1
 1516 -90 l 1,29,-1
 1356 -90 l 1,30,-1
 1392 126 l 1,31,-1
 992 126 l 1,32,-1
 1012 248 l 1,22,-1
EndSplineSet
Ligature2: "'frac' Diagonal Fractions lookup 7 subtable" one fraction four
Ligature2: "'frac' Diagonal Fractions lookup 7 subtable" one slash four
EndChar

StartChar: onehalf
Encoding: 189 189 127
Width: 1872
GlyphClass: 3
Flags: W
LayerCount: 2
Fore
SplineSet
1118 632 m 1,0,1
 1226 908 1226 908 1470 908 c 0,2,3
 1600 908 1600 908 1670 832 c 128,-1,4
 1740 756 1740 756 1718 624 c 0,5,6
 1694 478 1694 478 1508 320 c 0,7,8
 1494 308 1494 308 1465 284 c 128,-1,9
 1436 260 1436 260 1424 250 c 128,-1,10
 1412 240 1412 240 1390 221 c 128,-1,11
 1368 202 1368 202 1357 193 c 128,-1,12
 1346 184 1346 184 1329 168 c 128,-1,13
 1312 152 1312 152 1303 142 c 128,-1,14
 1294 132 1294 132 1281 119 c 128,-1,15
 1268 106 1268 106 1260 96 c 128,-1,16
 1252 86 1252 86 1242 74 c 128,-1,17
 1232 62 1232 62 1224 50 c 1,18,-1
 1620 50 l 1,19,-1
 1598 -90 l 1,20,-1
 1008 -90 l 1,21,22
 1028 30 1028 30 1106 129 c 128,-1,23
 1184 228 1184 228 1416 420 c 0,24,25
 1538 520 1538 520 1556 626 c 0,26,27
 1568 696 1568 696 1538 732 c 128,-1,28
 1508 768 1508 768 1446 768 c 0,29,30
 1322 768 1322 768 1252 592 c 1,31,-1
 1118 632 l 1,0,1
258 1296 m 1,32,-1
 280 1428 l 1,33,-1
 340 1428 l 2,34,35
 432 1428 432 1428 473 1457 c 128,-1,36
 514 1486 514 1486 522 1540 c 2,37,-1
 530 1586 l 1,38,-1
 670 1586 l 1,39,-1
 504 592 l 1,40,-1
 344 592 l 1,41,-1
 460 1296 l 1,42,-1
 258 1296 l 1,32,-1
178 -100 m 1,43,-1
 1386 1562 l 1,44,-1
 1558 1562 l 1,45,-1
 356 -100 l 1,46,-1
 178 -100 l 1,43,-1
EndSplineSet
Ligature2: "'frac' Diagonal Fractions lookup 7 subtable" one fraction two
Ligature2: "'frac' Diagonal Fractions lookup 7 subtable" one slash two
EndChar

StartChar: threequarters
Encoding: 190 190 128
Width: 1880
GlyphClass: 3
Flags: W
LayerCount: 2
Fore
SplineSet
150 816 m 1,0,-1
 290 868 l 1,1,2
 304 832 304 832 315 807 c 128,-1,3
 326 782 326 782 363 757 c 128,-1,4
 400 732 400 732 454 732 c 0,5,6
 522 732 522 732 576 773 c 128,-1,7
 630 814 630 814 644 896 c 0,8,9
 656 970 656 970 610 1013 c 128,-1,10
 564 1056 564 1056 488 1056 c 0,11,12
 460 1056 460 1056 390 1050 c 1,13,-1
 414 1192 l 1,14,15
 448 1188 448 1188 506 1188 c 0,16,17
 572 1188 572 1188 621 1227 c 128,-1,18
 670 1266 670 1266 682 1336 c 0,19,20
 692 1396 692 1396 661 1434 c 128,-1,21
 630 1472 630 1472 570 1472 c 0,22,23
 508 1472 508 1472 469 1433 c 128,-1,24
 430 1394 430 1394 394 1328 c 1,25,-1
 266 1372 l 1,26,27
 318 1482 318 1482 402 1546 c 128,-1,28
 486 1610 486 1610 600 1610 c 0,29,30
 732 1610 732 1610 798 1535 c 128,-1,31
 864 1460 864 1460 846 1346 c 0,32,33
 824 1208 824 1208 696 1132 c 1,34,35
 832 1060 832 1060 804 896 c 0,36,37
 780 754 780 754 678 673 c 128,-1,38
 576 592 576 592 430 592 c 0,39,40
 332 592 332 592 253 643 c 128,-1,41
 174 694 174 694 150 816 c 1,0,-1
1030 248 m 1,42,-1
 1564 908 l 1,43,-1
 1698 908 l 1,44,-1
 1592 266 l 1,45,-1
 1718 266 l 1,46,-1
 1694 126 l 1,47,-1
 1568 126 l 1,48,-1
 1534 -90 l 1,49,-1
 1374 -90 l 1,50,-1
 1410 126 l 1,51,-1
 1010 126 l 1,52,-1
 1030 248 l 1,42,-1
1202 266 m 1,53,-1
 1434 266 l 1,54,-1
 1480 546 l 2,55,56
 1482 560 1482 560 1489 595 c 128,-1,57
 1496 630 1496 630 1498 642 c 1,58,-1
 1432 552 l 1,59,-1
 1202 266 l 1,53,-1
326 -100 m 1,60,-1
 1536 1562 l 1,61,-1
 1706 1562 l 1,62,-1
 502 -100 l 1,63,-1
 326 -100 l 1,60,-1
EndSplineSet
Ligature2: "'frac' Diagonal Fractions lookup 7 subtable" three fraction four
Ligature2: "'frac' Diagonal Fractions lookup 7 subtable" three slash four
EndChar

StartChar: questiondown
Encoding: 191 191 129
Width: 1078
GlyphClass: 2
Flags: W
LayerCount: 2
Fore
SplineSet
24 -46 m 0,0,1
 38 44 38 44 86 116 c 128,-1,2
 134 188 134 188 192 238 c 128,-1,3
 250 288 250 288 308 336 c 128,-1,4
 366 384 366 384 412 451 c 128,-1,5
 458 518 458 518 472 604 c 2,6,-1
 480 654 l 1,7,-1
 664 654 l 1,8,-1
 652 590 l 2,9,10
 636 492 636 492 590 416 c 128,-1,11
 544 340 544 340 485 288 c 128,-1,12
 426 236 426 236 369 190 c 128,-1,13
 312 144 312 144 269 84 c 128,-1,14
 226 24 226 24 214 -52 c 0,15,16
 196 -162 196 -162 243 -226 c 128,-1,17
 290 -290 290 -290 392 -290 c 0,18,19
 572 -290 572 -290 700 -62 c 1,20,-1
 852 -118 l 1,21,22
 778 -266 778 -266 651 -358 c 128,-1,23
 524 -450 524 -450 366 -450 c 0,24,25
 184 -450 184 -450 89 -340 c 128,-1,26
 -6 -230 -6 -230 24 -46 c 0,0,1
468 826 m 1,27,-1
 508 1070 l 1,28,-1
 772 1070 l 1,29,-1
 730 826 l 1,30,-1
 468 826 l 1,27,-1
EndSplineSet
EndChar

StartChar: AE
Encoding: 198 198 136
Width: 1842
GlyphClass: 2
Flags: W
LayerCount: 2
Fore
SplineSet
488 554 m 1,0,-1
 918 554 l 1,1,-1
 1040 1292 l 1,2,-1
 1022 1292 l 1,3,-1
 488 554 l 1,0,-1
-102 0 m 1,4,-1
 958 1470 l 1,5,-1
 1912 1470 l 1,6,-1
 1886 1310 l 1,7,-1
 1226 1310 l 1,8,-1
 1150 840 l 1,9,-1
 1738 840 l 1,10,-1
 1710 682 l 1,11,-1
 1112 682 l 1,12,-1
 1024 158 l 1,13,-1
 1712 158 l 1,14,-1
 1686 0 l 1,15,-1
 826 0 l 1,16,-1
 892 402 l 1,17,-1
 382 402 l 1,18,-1
 98 0 l 1,19,-1
 -102 0 l 1,4,-1
EndSplineSet
EndChar

StartChar: multiply
Encoding: 215 215 153
Width: 1082
GlyphClass: 2
Flags: W
LayerCount: 2
Fore
SplineSet
44 388 m 1,0,-1
 458 728 l 1,1,-1
 158 1072 l 1,2,-1
 290 1182 l 1,3,-1
 584 834 l 1,4,-1
 996 1182 l 1,5,-1
 1090 1074 l 1,6,-1
 678 728 l 1,7,-1
 976 386 l 1,8,-1
 846 276 l 1,9,-1
 548 622 l 1,10,-1
 140 276 l 1,11,-1
 44 388 l 1,0,-1
EndSplineSet
EndChar

StartChar: Oslash
Encoding: 216 216 154
Width: 1382
GlyphClass: 2
Flags: W
LayerCount: 2
Fore
SplineSet
114 734 m 0,0,1
 172 1080 172 1080 372 1292 c 128,-1,2
 572 1504 572 1504 846 1504 c 0,3,4
 1008 1504 1008 1504 1126 1428 c 1,5,-1
 1230 1584 l 1,6,-1
 1394 1584 l 1,7,-1
 1226 1336 l 1,8,9
 1392 1126 1392 1126 1326 732 c 0,10,11
 1268 382 1268 382 1067 174 c 128,-1,12
 866 -34 866 -34 592 -34 c 0,13,14
 446 -34 446 -34 340 26 c 1,15,-1
 232 -132 l 1,16,-1
 70 -132 l 1,17,-1
 236 112 l 1,18,19
 46 324 46 324 114 734 c 0,0,1
1106 1162 m 1,20,-1
 442 176 l 1,21,22
 512 128 512 128 618 128 c 0,23,24
 810 128 810 128 948 288 c 128,-1,25
 1086 448 1086 448 1134 732 c 0,26,27
 1180 1008 1180 1008 1106 1162 c 1,20,-1
1022 1278 m 1,28,29
 940 1344 940 1344 820 1344 c 0,30,31
 628 1344 628 1344 489 1179 c 128,-1,32
 350 1014 350 1014 304 734 c 0,33,34
 256 444 256 444 350 280 c 1,35,-1
 1022 1278 l 1,28,29
EndSplineSet
EndChar

StartChar: Thorn
Encoding: 222 222 160
Width: 1144
GlyphClass: 2
Flags: W
LayerCount: 2
Fore
SplineSet
78 0 m 1,0,-1
 322 1470 l 1,1,-1
 506 1470 l 1,2,-1
 466 1228 l 1,3,-1
 670 1228 l 2,4,5
 936 1228 936 1228 1040 1097 c 128,-1,6
 1144 966 1144 966 1110 760 c 0,7,8
 1070 522 1070 522 906 404 c 128,-1,9
 742 286 742 286 502 286 c 2,10,-1
 310 286 l 1,11,-1
 264 0 l 1,12,-1
 78 0 l 1,0,-1
336 444 m 1,13,-1
 512 444 l 2,14,15
 866 444 866 444 918 762 c 0,16,17
 968 1070 968 1070 628 1070 c 2,18,-1
 440 1070 l 1,19,-1
 336 444 l 1,13,-1
EndSplineSet
EndChar

StartChar: germandbls
Encoding: 223 223 161
Width: 1216
GlyphClass: 2
Flags: W
LayerCount: 2
Fore
SplineSet
78 0 m 1,0,-1
 260 1094 l 2,1,2
 292 1290 292 1290 431 1397 c 128,-1,3
 570 1504 570 1504 750 1504 c 0,4,5
 942 1504 942 1504 1043 1396 c 128,-1,6
 1144 1288 1144 1288 1114 1108 c 0,7,8
 1094 990 1094 990 1034 909 c 128,-1,9
 974 828 974 828 898 786 c 1,10,-1
 898 782 l 1,11,12
 1006 746 1006 746 1069 648 c 128,-1,13
 1132 550 1132 550 1106 388 c 0,14,15
 1074 196 1074 196 941 81 c 128,-1,16
 808 -34 808 -34 614 -34 c 0,17,18
 474 -34 474 -34 366 6 c 1,19,-1
 400 172 l 1,20,21
 504 126 504 126 636 126 c 0,22,23
 738 126 738 126 822 199 c 128,-1,24
 906 272 906 272 924 388 c 0,25,26
 948 532 948 532 879 608 c 128,-1,27
 810 684 810 684 680 684 c 2,28,-1
 556 684 l 1,29,-1
 584 842 l 1,30,-1
 690 842 l 2,31,32
 778 842 778 842 845 913 c 128,-1,33
 912 984 912 984 932 1098 c 0,34,35
 950 1206 950 1206 896 1275 c 128,-1,36
 842 1344 842 1344 728 1344 c 0,37,38
 612 1344 612 1344 533 1274 c 128,-1,39
 454 1204 454 1204 434 1080 c 2,40,-1
 256 0 l 1,41,-1
 78 0 l 1,0,-1
EndSplineSet
EndChar

StartChar: ae
Encoding: 230 230 168
Width: 1698
GlyphClass: 2
Flags: W
LayerCount: 2
Fore
SplineSet
192 282 m 0,0,1
 180 212 180 212 227 164 c 128,-1,2
 274 116 274 116 364 116 c 0,3,4
 490 116 490 116 593 201 c 128,-1,5
 696 286 696 286 716 418 c 2,6,-1
 738 550 l 1,7,8
 652 528 652 528 506 504 c 0,9,10
 222 460 222 460 192 282 c 0,0,1
918 604 m 1,11,-1
 1466 604 l 1,12,13
 1490 748 1490 748 1431 848 c 0,14,15
 1374 948 1374 948 1258 948 c 0,16,17
 1140 948 1140 948 1054 860 c 128,-1,18
 968 772 968 772 928 642 c 2,19,-1
 918 604 l 1,11,-1
22 270 m 0,20,21
 70 564 70 564 516 634 c 0,22,23
 718 668 718 668 762 684 c 1,24,-1
 772 746 l 2,25,26
 786 830 786 830 734 891 c 128,-1,27
 682 952 682 952 580 952 c 0,28,29
 394 952 394 952 238 794 c 1,30,-1
 146 890 l 1,31,32
 344 1096 344 1096 604 1096 c 0,33,34
 850 1096 850 1096 906 894 c 1,35,36
 1054 1096 1054 1096 1282 1096 c 0,37,38
 1476 1096 1476 1096 1571 944 c 128,-1,39
 1666 792 1666 792 1626 554 c 2,40,-1
 1614 470 l 1,41,-1
 896 470 l 1,42,-1
 892 436 l 1,43,44
 880 306 880 306 936 210 c 128,-1,45
 992 114 992 114 1120 114 c 0,46,47
 1214 114 1214 114 1292 163 c 128,-1,48
 1370 212 1370 212 1420 286 c 1,49,-1
 1556 236 l 1,50,51
 1486 116 1486 116 1368 41 c 128,-1,52
 1250 -34 1250 -34 1094 -34 c 0,53,54
 966 -34 966 -34 879 34 c 128,-1,55
 792 102 792 102 760 220 c 1,56,57
 576 -34 576 -34 322 -34 c 0,58,59
 162 -34 162 -34 81 49 c 128,-1,60
 0 132 0 132 22 270 c 0,20,21
EndSplineSet
EndChar

StartChar: eth
Encoding: 240 240 178
Width: 1052
GlyphClass: 2
Flags: W
LayerCount: 2
Fore
SplineSet
54 470 m 0,0,1
 94 708 94 708 242 847 c 128,-1,2
 390 986 390 986 588 986 c 0,3,4
 682 986 682 986 747 943 c 128,-1,5
 812 900 812 900 832 842 c 1,6,7
 824 1080 824 1080 710 1220 c 1,8,-1
 460 1052 l 1,9,-1
 382 1168 l 1,10,-1
 600 1316 l 1,11,12
 514 1370 514 1370 402 1390 c 1,13,-1
 484 1534 l 1,14,15
 588 1516 588 1516 674 1476 c 0,16,17
 718 1456 718 1456 758 1424 c 1,18,-1
 978 1574 l 1,19,-1
 1056 1456 l 1,20,-1
 864 1324 l 1,21,22
 916 1258 916 1258 950 1174 c 0,23,24
 992 1064 992 1064 1001 901 c 128,-1,25
 1010 738 1010 738 976 536 c 0,26,27
 934 282 934 282 787 124 c 128,-1,28
 640 -34 640 -34 420 -34 c 0,29,30
 216 -34 216 -34 117 109 c 128,-1,31
 18 252 18 252 54 470 c 0,0,1
230 478 m 0,32,33
 204 318 204 318 262 218 c 128,-1,34
 320 118 320 118 448 118 c 0,35,36
 572 118 572 118 662 216 c 128,-1,37
 752 314 752 314 780 480 c 0,38,39
 806 638 806 638 748 734 c 128,-1,40
 690 830 690 830 568 830 c 256,41,42
 446 830 446 830 352 737 c 128,-1,43
 258 644 258 644 230 478 c 0,32,33
EndSplineSet
EndChar

StartChar: divide
Encoding: 247 247 185
Width: 1084
GlyphClass: 2
Flags: W
LayerCount: 2
Fore
SplineSet
492 986 m 1,0,-1
 532 1220 l 1,1,-1
 766 1220 l 1,2,-1
 728 986 l 1,3,-1
 492 986 l 1,0,-1
62 648 m 1,4,-1
 88 808 l 1,5,-1
 1074 808 l 1,6,-1
 1048 648 l 1,7,-1
 62 648 l 1,4,-1
368 234 m 1,8,-1
 406 468 l 1,9,-1
 642 468 l 1,10,-1
 604 234 l 1,11,-1
 368 234 l 1,8,-1
EndSplineSet
EndChar

StartChar: oslash
Encoding: 248 248 186
Width: 1054
GlyphClass: 2
Flags: W
LayerCount: 2
Fore
SplineSet
64 530 m 0,0,1
 104 770 104 770 251 933 c 128,-1,2
 398 1096 398 1096 616 1096 c 0,3,4
 732 1096 732 1096 812 1048 c 1,5,-1
 902 1186 l 1,6,-1
 1040 1186 l 1,7,-1
 900 972 l 1,8,9
 1024 816 1024 816 976 530 c 0,10,11
 960 430 960 430 920 335 c 128,-1,12
 880 240 880 240 816 155 c 128,-1,13
 752 70 752 70 651 18 c 128,-1,14
 550 -34 550 -34 428 -34 c 0,15,16
 324 -34 324 -34 244 6 c 1,17,-1
 162 -118 l 1,18,-1
 26 -118 l 1,19,-1
 154 78 l 1,20,21
 88 154 88 154 65 276 c 128,-1,22
 42 398 42 398 64 530 c 0,0,1
784 802 m 1,23,-1
 342 150 l 1,24,25
 394 118 394 118 454 118 c 0,26,27
 572 118 572 118 673 227 c 128,-1,28
 774 336 774 336 806 530 c 0,29,30
 832 694 832 694 784 802 c 1,23,-1
716 902 m 1,31,32
 662 944 662 944 592 944 c 0,33,34
 476 944 476 944 374 837 c 128,-1,35
 272 730 272 730 240 530 c 0,36,37
 210 354 210 354 266 242 c 1,38,-1
 716 902 l 1,31,32
EndSplineSet
EndChar

StartChar: thorn
Encoding: 254 254 192
Width: 1104
GlyphClass: 2
Flags: W
LayerCount: 2
Fore
SplineSet
310 532 m 0,0,1
 278 344 278 344 337 231 c 128,-1,2
 396 118 396 118 508 118 c 0,3,4
 638 118 638 118 731 228 c 128,-1,5
 824 338 824 338 856 532 c 0,6,7
 888 722 888 722 832 833 c 128,-1,8
 776 944 776 944 646 944 c 0,9,10
 536 944 536 944 438 830 c 128,-1,11
 340 716 340 716 310 532 c 0,0,1
-16 -454 m 1,12,-1
 312 1524 l 1,13,-1
 478 1524 l 1,14,-1
 374 892 l 1,15,16
 416 980 416 980 509 1038 c 128,-1,17
 602 1096 602 1096 692 1096 c 0,18,19
 886 1096 886 1096 978 945 c 128,-1,20
 1070 794 1070 794 1026 532 c 0,21,22
 1002 388 1002 388 947 275 c 128,-1,23
 892 162 892 162 817 96 c 128,-1,24
 742 30 742 30 663 -2 c 128,-1,25
 584 -34 584 -34 504 -34 c 0,26,27
 402 -34 402 -34 337 26 c 128,-1,28
 272 86 272 86 254 164 c 1,29,-1
 152 -454 l 1,30,-1
 -16 -454 l 1,12,-1
EndSplineSet
EndChar

StartChar: dcroat
Encoding: 273 273 211
Width: 1102
GlyphClass: 2
Flags: W
LayerCount: 2
Fore
SplineSet
64 528 m 0,0,1
 108 792 108 792 254 940 c 128,-1,2
 400 1088 400 1088 582 1088 c 0,3,4
 684 1088 684 1088 751 1030 c 128,-1,5
 818 972 818 972 838 894 c 1,6,-1
 892 1224 l 1,7,-1
 490 1224 l 1,8,-1
 512 1360 l 1,9,-1
 914 1360 l 1,10,-1
 942 1524 l 1,11,-1
 1112 1524 l 1,12,-1
 1086 1360 l 1,13,-1
 1210 1360 l 1,14,-1
 1186 1224 l 1,15,-1
 1064 1224 l 1,16,-1
 860 0 l 1,17,-1
 696 0 l 1,18,-1
 724 174 l 1,19,20
 668 80 668 80 583 23 c 128,-1,21
 498 -34 498 -34 396 -34 c 0,22,23
 222 -34 222 -34 120 108 c 128,-1,24
 18 250 18 250 64 528 c 0,0,1
240 528 m 0,25,26
 208 338 208 338 266 228 c 128,-1,27
 324 118 324 118 444 118 c 0,28,29
 560 118 560 118 655 230 c 128,-1,30
 750 342 750 342 780 528 c 0,31,32
 810 708 810 708 753 822 c 128,-1,33
 696 936 696 936 578 936 c 0,34,35
 456 936 456 936 363 824 c 128,-1,36
 270 712 270 712 240 528 c 0,25,26
EndSplineSet
EndChar

StartChar: uni0123
Encoding: 291 291 229
Width: 1072
GlyphClass: 2
Flags: W
LayerCount: 2
Fore
SplineSet
522 1254 m 1,0,-1
 744 1620 l 1,1,-1
 864 1620 l 1,2,-1
 716 1254 l 1,3,-1
 522 1254 l 1,0,-1
244 552 m 0,4,5
 214 368 214 368 269 263 c 128,-1,6
 324 158 324 158 438 158 c 0,7,8
 558 158 558 158 646 261 c 128,-1,9
 734 364 734 364 766 552 c 0,10,11
 796 736 796 736 741 840 c 128,-1,12
 686 944 686 944 570 944 c 0,13,14
 452 944 452 944 363 836 c 128,-1,15
 274 728 274 728 244 552 c 0,4,5
70 550 m 256,16,17
 110 794 110 794 252 945 c 128,-1,18
 394 1096 394 1096 574 1096 c 0,19,20
 686 1096 686 1096 746 1038 c 128,-1,21
 806 980 806 980 824 906 c 1,22,-1
 850 1062 l 1,23,-1
 1018 1062 l 1,24,-1
 864 132 l 2,25,26
 814 -170 814 -170 684 -316 c 128,-1,27
 554 -462 554 -462 328 -462 c 0,28,29
 214 -462 214 -462 122 -412 c 128,-1,30
 30 -362 30 -362 -18 -264 c 1,31,-1
 110 -182 l 1,32,33
 196 -314 196 -314 356 -314 c 0,34,35
 482 -314 482 -314 565 -217 c 128,-1,36
 648 -120 648 -120 678 40 c 0,37,38
 698 148 698 148 706 186 c 1,39,40
 656 106 656 106 576 56 c 128,-1,41
 496 6 496 6 398 6 c 0,42,43
 212 6 212 6 121 156 c 128,-1,44
 30 306 30 306 70 550 c 256,16,17
EndSplineSet
EndChar

StartChar: Hbar
Encoding: 294 294 232
Width: 1398
GlyphClass: 2
Flags: W
LayerCount: 2
Fore
SplineSet
116 1118 m 1,0,-1
 140 1264 l 1,1,-1
 300 1264 l 1,2,-1
 334 1470 l 1,3,-1
 518 1470 l 1,4,-1
 484 1264 l 1,5,-1
 1148 1264 l 1,6,-1
 1182 1470 l 1,7,-1
 1364 1470 l 1,8,-1
 1330 1264 l 1,9,-1
 1490 1264 l 1,10,-1
 1466 1118 l 1,11,-1
 1306 1118 l 1,12,-1
 1122 0 l 1,13,-1
 938 0 l 1,14,-1
 1050 676 l 1,15,-1
 386 676 l 1,16,-1
 274 0 l 1,17,-1
 90 0 l 1,18,-1
 276 1118 l 1,19,-1
 116 1118 l 1,0,-1
1124 1118 m 1,20,-1
 460 1118 l 1,21,-1
 412 836 l 1,22,-1
 1078 836 l 1,23,-1
 1124 1118 l 1,20,-1
EndSplineSet
EndChar

StartChar: hbar
Encoding: 295 295 233
Width: 1064
GlyphClass: 2
Flags: W
LayerCount: 2
Fore
SplineSet
126 1228 m 1,0,-1
 148 1364 l 1,1,-1
 282 1364 l 1,2,-1
 308 1524 l 1,3,-1
 476 1524 l 1,4,-1
 450 1364 l 1,5,-1
 834 1364 l 1,6,-1
 812 1228 l 1,7,-1
 428 1228 l 1,8,-1
 370 878 l 1,9,-1
 372 878 l 1,10,11
 420 950 420 950 508 1006 c 128,-1,12
 596 1062 596 1062 694 1062 c 0,13,14
 750 1062 750 1062 800 1044 c 128,-1,15
 850 1026 850 1026 896 985 c 128,-1,16
 942 944 942 944 960 858 c 128,-1,17
 978 772 978 772 958 652 c 2,18,-1
 850 0 l 1,19,-1
 678 0 l 1,20,-1
 782 626 l 2,21,22
 830 910 830 910 636 910 c 0,23,24
 530 910 530 910 436 812 c 128,-1,25
 342 714 342 714 322 588 c 2,26,-1
 224 0 l 1,27,-1
 56 0 l 1,28,-1
 258 1228 l 1,29,-1
 126 1228 l 1,0,-1
EndSplineSet
EndChar

StartChar: dotlessi
Encoding: 305 305 243
Width: 462
GlyphClass: 2
Flags: W
LayerCount: 2
Fore
SplineSet
54 0 m 1,0,-1
 230 1062 l 1,1,-1
 398 1062 l 1,2,-1
 222 0 l 1,3,-1
 54 0 l 1,0,-1
EndSplineSet
EndChar

StartChar: kgreenlandic
Encoding: 312 312 250
Width: 976
GlyphClass: 2
Flags: W
LayerCount: 2
Fore
SplineSet
50 0 m 1,0,-1
 226 1062 l 1,1,-1
 394 1062 l 1,2,-1
 322 620 l 1,3,-1
 326 620 l 1,4,-1
 842 1062 l 1,5,-1
 1060 1062 l 1,6,-1
 484 566 l 1,7,-1
 898 0 l 1,8,-1
 688 0 l 1,9,-1
 350 438 l 1,10,-1
 280 374 l 1,11,-1
 218 0 l 1,12,-1
 50 0 l 1,0,-1
EndSplineSet
EndChar

StartChar: Lslash
Encoding: 321 321 259
Width: 1062
GlyphClass: 2
Flags: W
LayerCount: 2
Fore
SplineSet
396 688 m 1,0,-1
 308 158 l 1,1,-1
 982 158 l 1,2,-1
 956 0 l 1,3,-1
 98 0 l 1,4,-1
 192 570 l 1,5,-1
 -16 444 l 1,6,-1
 -76 578 l 1,7,-1
 224 760 l 1,8,-1
 342 1470 l 1,9,-1
 526 1470 l 1,10,-1
 428 874 l 1,11,-1
 648 1008 l 1,12,-1
 708 872 l 1,13,-1
 396 688 l 1,0,-1
EndSplineSet
EndChar

StartChar: lslash
Encoding: 322 322 260
Width: 496
GlyphClass: 2
Flags: W
LayerCount: 2
Fore
SplineSet
360 718 m 1,0,-1
 240 0 l 1,1,-1
 72 0 l 1,2,-1
 172 608 l 1,3,-1
 -22 492 l 1,4,-1
 -80 628 l 1,5,-1
 204 798 l 1,6,-1
 324 1524 l 1,7,-1
 492 1524 l 1,8,-1
 392 912 l 1,9,-1
 584 1024 l 1,10,-1
 638 886 l 1,11,-1
 360 718 l 1,0,-1
EndSplineSet
EndChar

StartChar: Eng
Encoding: 330 330 268
Width: 1386
GlyphClass: 2
Flags: W
LayerCount: 2
Fore
SplineSet
78 0 m 1,0,-1
 322 1470 l 1,1,-1
 524 1470 l 1,2,-1
 914 486 l 1,3,-1
 992 272 l 1,4,-1
 1004 272 l 1,5,6
 1016 474 1016 474 1050 680 c 2,7,-1
 1180 1470 l 1,8,-1
 1364 1470 l 1,9,-1
 1124 22 l 2,10,11
 1088 -198 1088 -198 978 -327 c 128,-1,12
 868 -456 868 -456 674 -456 c 0,13,14
 606 -456 606 -456 476 -440 c 1,15,-1
 502 -284 l 1,16,17
 584 -296 584 -296 666 -296 c 0,18,19
 778 -296 778 -296 833 -228 c 128,-1,20
 888 -160 888 -160 918 -2 c 1,21,-1
 530 982 l 1,22,-1
 450 1196 l 1,23,-1
 440 1196 l 1,24,25
 430 1002 430 1002 400 824 c 2,26,-1
 264 0 l 1,27,-1
 78 0 l 1,0,-1
EndSplineSet
EndChar

StartChar: eng
Encoding: 331 331 269
Width: 1050
GlyphClass: 2
Flags: W
LayerCount: 2
Fore
SplineSet
38 0 m 1,0,-1
 214 1062 l 1,1,-1
 380 1062 l 1,2,-1
 352 898 l 1,3,-1
 354 898 l 1,4,5
 392 972 392 972 485 1034 c 128,-1,6
 578 1096 578 1096 692 1096 c 0,7,8
 836 1096 836 1096 911 1001 c 128,-1,9
 986 906 986 906 948 684 c 2,10,-1
 838 18 l 2,11,12
 796 -232 796 -232 682 -347 c 128,-1,13
 568 -462 568 -462 420 -462 c 0,14,15
 384 -462 384 -462 352 -458 c 128,-1,16
 320 -454 320 -454 288 -449 c 128,-1,17
 256 -444 256 -444 248 -442 c 1,18,-1
 274 -288 l 1,19,20
 364 -302 364 -302 422 -302 c 0,21,22
 522 -302 522 -302 581 -229 c 128,-1,23
 640 -156 640 -156 666 -4 c 2,24,-1
 774 656 l 2,25,26
 822 944 822 944 630 944 c 0,27,28
 524 944 524 944 430 851 c 128,-1,29
 336 758 336 758 314 628 c 2,30,-1
 210 0 l 1,31,-1
 38 0 l 1,0,-1
EndSplineSet
EndChar

StartChar: OE
Encoding: 338 338 276
Width: 1870
GlyphClass: 2
Flags: W
LayerCount: 2
Fore
SplineSet
114 734 m 0,0,1
 172 1082 172 1082 379 1293 c 128,-1,2
 586 1504 586 1504 862 1504 c 0,3,4
 974 1504 974 1504 1060 1470 c 1,5,-1
 1936 1470 l 1,6,-1
 1910 1310 l 1,7,-1
 1210 1310 l 1,8,-1
 1132 840 l 1,9,-1
 1762 840 l 1,10,-1
 1736 682 l 1,11,-1
 1106 682 l 1,12,-1
 1020 158 l 1,13,-1
 1738 158 l 1,14,-1
 1712 0 l 1,15,-1
 820 0 l 1,16,17
 720 -34 720 -34 608 -34 c 0,18,19
 330 -34 330 -34 193 175 c 128,-1,20
 56 384 56 384 114 734 c 0,0,1
304 734 m 0,21,22
 258 454 258 454 349 290 c 128,-1,23
 440 126 440 126 634 126 c 0,24,25
 748 126 748 126 840 184 c 1,26,-1
 1022 1282 l 1,27,28
 950 1344 950 1344 836 1344 c 0,29,30
 638 1344 638 1344 494 1178 c 128,-1,31
 350 1012 350 1012 304 734 c 0,21,22
EndSplineSet
EndChar

StartChar: uni0163
Encoding: 355 355 293
Width: 678
GlyphClass: 2
Flags: W
LayerCount: 2
Fore
SplineSet
90 910 m 1,0,-1
 114 1062 l 1,1,-1
 286 1062 l 1,2,-1
 340 1392 l 1,3,-1
 508 1392 l 1,4,-1
 452 1062 l 1,5,-1
 706 1062 l 1,6,-1
 682 910 l 1,7,-1
 428 910 l 1,8,-1
 330 322 l 2,9,10
 316 234 316 234 343 194 c 128,-1,11
 370 154 370 154 442 154 c 2,12,-1
 558 154 l 1,13,-1
 532 0 l 1,14,-1
 406 0 l 1,15,-1
 374 -76 l 1,16,17
 452 -90 452 -90 489 -135 c 128,-1,18
 526 -180 526 -180 514 -246 c 0,19,20
 500 -326 500 -326 429 -382 c 128,-1,21
 358 -438 358 -438 228 -438 c 0,22,23
 142 -438 142 -438 68 -416 c 1,24,-1
 86 -302 l 1,25,26
 162 -322 162 -322 244 -322 c 0,27,28
 366 -322 366 -322 380 -236 c 0,29,30
 394 -152 394 -152 196 -140 c 1,31,-1
 260 24 l 1,32,33
 124 86 124 86 160 306 c 2,34,-1
 260 910 l 1,35,-1
 90 910 l 1,0,-1
EndSplineSet
Substitution2: "'locl' Localized Forms in Latin lookup 3 subtable" uni021B
Substitution2: "'locl' Localized Forms in Latin lookup 2 subtable" uni021B
Substitution2: "'aalt' Access All Alternates lookup 0 subtable" uni021B
EndChar

StartChar: tbar
Encoding: 359 359 297
Width: 680
GlyphClass: 2
Flags: W
LayerCount: 2
Fore
SplineSet
90 910 m 1,0,-1
 116 1062 l 1,1,-1
 286 1062 l 1,2,-1
 342 1392 l 1,3,-1
 508 1392 l 1,4,-1
 454 1062 l 1,5,-1
 708 1062 l 1,6,-1
 684 910 l 1,7,-1
 428 910 l 1,8,-1
 396 710 l 1,9,-1
 658 710 l 1,10,-1
 632 560 l 1,11,-1
 370 560 l 1,12,-1
 332 322 l 2,13,14
 318 234 318 234 345 194 c 128,-1,15
 372 154 372 154 444 154 c 2,16,-1
 560 154 l 1,17,-1
 534 0 l 1,18,-1
 396 0 l 2,19,20
 110 0 110 0 162 306 c 2,21,-1
 204 560 l 1,22,-1
 14 560 l 1,23,-1
 38 710 l 1,24,-1
 228 710 l 1,25,-1
 262 910 l 1,26,-1
 90 910 l 1,0,-1
EndSplineSet
EndChar

StartChar: longs
Encoding: 383 383 321
Width: 572
GlyphClass: 2
Flags: W
LayerCount: 2
Fore
SplineSet
58 0 m 1,0,-1
 258 1206 l 2,1,2
 284 1364 284 1364 372 1443 c 128,-1,3
 460 1522 460 1522 592 1522 c 2,4,-1
 724 1522 l 1,5,-1
 698 1370 l 1,6,-1
 598 1370 l 2,7,8
 454 1370 454 1370 422 1184 c 2,9,-1
 226 0 l 1,10,-1
 58 0 l 1,0,-1
EndSplineSet
EndChar

StartChar: uni0180
Encoding: 384 384 322
Width: 1102
GlyphClass: 2
Flags: W
LayerCount: 2
Fore
SplineSet
310 530 m 0,0,1
 278 342 278 342 337 230 c 128,-1,2
 396 118 396 118 510 118 c 0,3,4
 634 118 634 118 727 229 c 128,-1,5
 820 340 820 340 852 530 c 0,6,7
 882 716 882 716 827 827 c 128,-1,8
 772 938 772 938 648 938 c 0,9,10
 532 938 532 938 436 826 c 128,-1,11
 340 714 340 714 310 530 c 0,0,1
130 1226 m 1,12,-1
 154 1366 l 1,13,-1
 282 1366 l 1,14,-1
 308 1524 l 1,15,-1
 478 1524 l 1,16,-1
 452 1366 l 1,17,-1
 834 1366 l 1,18,-1
 812 1226 l 1,19,-1
 430 1226 l 1,20,-1
 374 890 l 1,21,22
 416 966 416 966 503 1028 c 128,-1,23
 590 1090 590 1090 696 1090 c 0,24,25
 884 1090 884 1090 976 941 c 128,-1,26
 1068 792 1068 792 1024 530 c 0,27,28
 1000 386 1000 386 943 272 c 128,-1,29
 886 158 886 158 811 93 c 128,-1,30
 736 28 736 28 660 -3 c 128,-1,31
 584 -34 584 -34 510 -34 c 0,32,33
 406 -34 406 -34 337 26 c 128,-1,34
 268 86 268 86 250 172 c 1,35,-1
 222 0 l 1,36,-1
 56 0 l 1,37,-1
 258 1226 l 1,38,-1
 130 1226 l 1,12,-1
EndSplineSet
EndChar

StartChar: uni0182
Encoding: 386 386 324
Width: 1266
GlyphClass: 2
Flags: W
LayerCount: 2
Fore
SplineSet
290 158 m 1,0,-1
 654 158 l 2,1,2
 776 158 776 158 866 225 c 128,-1,3
 956 292 956 292 978 418 c 0,4,5
 996 532 996 532 930 608 c 128,-1,6
 864 684 864 684 736 684 c 2,7,-1
 376 684 l 1,8,-1
 290 158 l 1,0,-1
78 0 m 1,9,-1
 322 1470 l 1,10,-1
 1176 1470 l 1,11,-1
 1150 1310 l 1,12,-1
 480 1310 l 1,13,-1
 402 842 l 1,14,-1
 778 842 l 2,15,16
 992 842 992 842 1096 723 c 128,-1,17
 1200 604 1200 604 1170 418 c 0,18,19
 1140 238 1140 238 999 119 c 128,-1,20
 858 0 858 0 656 0 c 2,21,-1
 78 0 l 1,9,-1
EndSplineSet
EndChar

StartChar: uni0183
Encoding: 387 387 325
Width: 1098
GlyphClass: 2
Flags: W
LayerCount: 2
Fore
SplineSet
306 532 m 0,0,1
 274 342 274 342 332 230 c 128,-1,2
 390 118 390 118 504 118 c 0,3,4
 626 118 626 118 720 228 c 128,-1,5
 814 338 814 338 846 532 c 0,6,7
 878 720 878 720 822 832 c 128,-1,8
 766 944 766 944 644 944 c 0,9,10
 528 944 528 944 432 831 c 128,-1,11
 336 718 336 718 306 532 c 0,0,1
50 0 m 1,12,-1
 302 1518 l 1,13,-1
 998 1518 l 1,14,-1
 974 1366 l 1,15,-1
 448 1366 l 1,16,-1
 370 896 l 1,17,18
 402 962 402 962 492 1029 c 128,-1,19
 582 1096 582 1096 692 1096 c 0,20,21
 880 1096 880 1096 972 945 c 128,-1,22
 1064 794 1064 794 1020 532 c 0,23,24
 996 386 996 386 939 273 c 128,-1,25
 882 160 882 160 808 95 c 128,-1,26
 734 30 734 30 657 -2 c 128,-1,27
 580 -34 580 -34 506 -34 c 0,28,29
 402 -34 402 -34 332 27 c 128,-1,30
 262 88 262 88 246 172 c 1,31,-1
 218 0 l 1,32,-1
 50 0 l 1,12,-1
EndSplineSet
EndChar

StartChar: uni0184
Encoding: 388 388 326
Width: 1288
GlyphClass: 2
Flags: W
LayerCount: 2
Fore
SplineSet
152 1340 m 1,0,-1
 410 1470 l 1,1,-1
 518 1470 l 1,2,-1
 414 836 l 1,3,-1
 798 836 l 2,4,5
 1014 836 1014 836 1117 719 c 128,-1,6
 1220 602 1220 602 1188 418 c 0,7,8
 1160 248 1160 248 1024 124 c 128,-1,9
 888 0 888 0 690 0 c 2,10,-1
 90 0 l 1,11,-1
 292 1214 l 1,12,-1
 152 1340 l 1,0,-1
300 158 m 1,13,-1
 678 158 l 2,14,15
 796 158 796 158 888 225 c 128,-1,16
 980 292 980 292 1000 416 c 0,17,18
 1018 526 1018 526 955 602 c 128,-1,19
 892 678 892 678 762 678 c 2,20,-1
 386 678 l 1,21,-1
 300 158 l 1,13,-1
EndSplineSet
EndChar

StartChar: uni0185
Encoding: 389 389 327
Width: 1104
GlyphClass: 2
Flags: W
LayerCount: 2
Fore
SplineSet
142 1390 m 1,0,-1
 384 1524 l 1,1,-1
 480 1524 l 1,2,-1
 376 898 l 1,3,4
 430 994 430 994 522 1045 c 128,-1,5
 614 1096 614 1096 698 1096 c 0,6,7
 886 1096 886 1096 978 945 c 128,-1,8
 1070 794 1070 794 1026 532 c 0,9,10
 1002 388 1002 388 946 275 c 128,-1,11
 890 162 890 162 817 96 c 128,-1,12
 744 30 744 30 666 -2 c 128,-1,13
 588 -34 588 -34 512 -34 c 0,14,15
 410 -34 410 -34 342 26 c 128,-1,16
 274 86 274 86 252 172 c 1,17,-1
 224 0 l 1,18,-1
 56 0 l 1,19,-1
 266 1264 l 1,20,-1
 142 1390 l 1,0,-1
312 532 m 0,21,22
 280 342 280 342 338 230 c 128,-1,23
 396 118 396 118 510 118 c 0,24,25
 632 118 632 118 726 229 c 128,-1,26
 820 340 820 340 852 532 c 0,27,28
 882 718 882 718 828 831 c 128,-1,29
 774 944 774 944 650 944 c 0,30,31
 534 944 534 944 438 831 c 128,-1,32
 342 718 342 718 312 532 c 0,21,22
EndSplineSet
EndChar

StartChar: uni0186
Encoding: 390 390 328
Width: 1272
GlyphClass: 2
Flags: W
LayerCount: 2
Fore
SplineSet
4 324 m 1,0,-1
 178 378 l 1,1,2
 206 272 206 272 286 200 c 128,-1,3
 366 128 366 128 492 128 c 0,4,5
 686 128 686 128 833 290 c 128,-1,6
 980 452 980 452 1028 734 c 0,7,8
 1074 1012 1074 1012 983 1178 c 128,-1,9
 892 1344 892 1344 694 1344 c 0,10,11
 494 1344 494 1344 328 1118 c 1,12,-1
 180 1172 l 1,13,14
 264 1310 264 1310 404 1407 c 128,-1,15
 544 1504 544 1504 718 1504 c 0,16,17
 996 1504 996 1504 1135 1297 c 128,-1,18
 1274 1090 1274 1090 1216 734 c 0,19,20
 1156 374 1156 374 947 170 c 128,-1,21
 738 -34 738 -34 464 -34 c 0,22,23
 268 -34 268 -34 156 72 c 128,-1,24
 44 178 44 178 4 324 c 1,0,-1
EndSplineSet
EndChar

StartChar: uni018B
Encoding: 395 395 333
Width: 1266
GlyphClass: 2
Flags: W
LayerCount: 2
Fore
SplineSet
240 418 m 0,0,1
 220 294 220 294 287 226 c 128,-1,2
 354 158 354 158 474 158 c 2,3,-1
 842 158 l 1,4,-1
 928 684 l 1,5,-1
 574 684 l 2,6,7
 442 684 442 684 351 609 c 128,-1,8
 260 534 260 534 240 418 c 0,0,1
50 418 m 0,9,10
 80 604 80 604 223 723 c 128,-1,11
 366 842 366 842 580 842 c 2,12,-1
 954 842 l 1,13,-1
 1032 1310 l 1,14,-1
 364 1310 l 1,15,-1
 390 1470 l 1,16,-1
 1244 1470 l 1,17,-1
 1000 0 l 1,18,-1
 420 0 l 2,19,20
 220 0 220 0 120 118 c 128,-1,21
 20 236 20 236 50 418 c 0,9,10
EndSplineSet
EndChar

StartChar: uni018C
Encoding: 396 396 334
Width: 1098
GlyphClass: 2
Flags: W
LayerCount: 2
Fore
SplineSet
240 532 m 0,0,1
 208 338 208 338 266 228 c 128,-1,2
 324 118 324 118 444 118 c 0,3,4
 560 118 560 118 655 231 c 128,-1,5
 750 344 750 344 782 532 c 0,6,7
 812 718 812 718 753 831 c 128,-1,8
 694 944 694 944 580 944 c 0,9,10
 456 944 456 944 364 833 c 128,-1,11
 272 722 272 722 240 532 c 0,0,1
66 532 m 0,12,13
 110 792 110 792 255 944 c 128,-1,14
 400 1096 400 1096 584 1096 c 0,15,16
 696 1096 696 1096 760 1031 c 128,-1,17
 824 966 824 966 838 900 c 1,18,-1
 916 1372 l 1,19,-1
 380 1372 l 1,20,-1
 406 1524 l 1,21,-1
 1112 1524 l 1,22,-1
 860 0 l 1,23,-1
 696 0 l 1,24,-1
 724 172 l 1,25,26
 676 88 676 88 588 27 c 128,-1,27
 500 -34 500 -34 394 -34 c 0,28,29
 226 -34 226 -34 123 108 c 128,-1,30
 20 250 20 250 66 532 c 0,12,13
EndSplineSet
EndChar

StartChar: uni018D
Encoding: 397 397 335
Width: 1146
GlyphClass: 2
Flags: W
LayerCount: 2
Fore
SplineSet
258 636 m 0,0,1
 236 508 236 508 320 402 c 128,-1,2
 404 296 404 296 530 236 c 1,3,4
 680 304 680 304 788 411 c 128,-1,5
 896 518 896 518 914 636 c 0,6,7
 936 764 936 764 867 854 c 128,-1,8
 798 944 798 944 644 944 c 0,9,10
 494 944 494 944 387 858 c 128,-1,11
 280 772 280 772 258 636 c 0,0,1
82 630 m 0,12,13
 118 850 118 850 277 973 c 128,-1,14
 436 1096 436 1096 670 1096 c 0,15,16
 900 1096 900 1096 1011 967 c 128,-1,17
 1122 838 1122 838 1088 642 c 0,18,19
 1066 508 1066 508 952 376 c 128,-1,20
 838 244 838 244 662 158 c 1,21,22
 852 30 852 30 826 -128 c 0,23,24
 802 -272 802 -272 679 -359 c 128,-1,25
 556 -446 556 -446 374 -446 c 0,26,27
 86 -446 86 -446 -10 -208 c 1,28,-1
 126 -130 l 1,29,30
 160 -194 160 -194 230 -242 c 128,-1,31
 300 -290 300 -290 398 -290 c 0,32,33
 494 -290 494 -290 567 -246 c 128,-1,34
 640 -202 640 -202 652 -130 c 0,35,36
 656 -106 656 -106 651 -84 c 128,-1,37
 646 -62 646 -62 625 -40 c 128,-1,38
 604 -18 604 -18 585 0 c 128,-1,39
 566 18 566 18 526 43 c 128,-1,40
 486 68 486 68 390 124 c 0,41,42
 32 332 32 332 82 630 c 0,12,13
EndSplineSet
EndChar

StartChar: uni018E
Encoding: 398 398 336
Width: 1170
GlyphClass: 2
Flags: W
LayerCount: 2
Fore
SplineSet
-24 0 m 1,0,-1
 2 158 l 1,1,-1
 748 158 l 1,2,-1
 834 682 l 1,3,-1
 172 682 l 1,4,-1
 198 840 l 1,5,-1
 860 840 l 1,6,-1
 938 1310 l 1,7,-1
 202 1310 l 1,8,-1
 228 1470 l 1,9,-1
 1148 1470 l 1,10,-1
 904 0 l 1,11,-1
 -24 0 l 1,0,-1
EndSplineSet
EndChar

StartChar: uni018F
Encoding: 399 399 337
Width: 1362
GlyphClass: 2
Flags: W
LayerCount: 2
Fore
SplineSet
100 694 m 0,0,1
 108 746 108 746 122 814 c 1,2,-1
 1130 814 l 1,3,4
 1156 1064 1156 1064 1068 1204 c 128,-1,5
 980 1344 980 1344 788 1344 c 0,6,7
 554 1344 554 1344 370 1126 c 1,8,-1
 226 1188 l 1,9,10
 328 1340 328 1340 483 1422 c 128,-1,11
 638 1504 638 1504 818 1504 c 0,12,13
 1120 1504 1120 1504 1244 1290 c 128,-1,14
 1368 1076 1368 1076 1310 732 c 0,15,16
 1252 378 1252 378 1046 172 c 128,-1,17
 840 -34 840 -34 568 -34 c 0,18,19
 288 -34 288 -34 168 173 c 128,-1,20
 48 380 48 380 100 694 c 0,0,1
286 654 m 1,21,22
 284 646 284 646 283 631 c 128,-1,23
 282 616 282 616 282 610 c 0,24,25
 270 520 270 520 280 438 c 128,-1,26
 290 356 290 356 322 283 c 128,-1,27
 354 210 354 210 426 168 c 128,-1,28
 498 126 498 126 598 126 c 0,29,30
 762 126 762 126 909 260 c 128,-1,31
 1056 394 1056 394 1106 654 c 1,32,-1
 286 654 l 1,21,22
EndSplineSet
EndChar

StartChar: uni0190
Encoding: 400 400 338
Width: 1176
GlyphClass: 2
Flags: W
LayerCount: 2
Fore
SplineSet
60 408 m 0,0,1
 84 556 84 556 189 651 c 128,-1,2
 294 746 294 746 412 778 c 1,3,4
 322 818 322 818 268 911 c 128,-1,5
 214 1004 214 1004 234 1126 c 0,6,7
 262 1292 262 1292 404 1398 c 128,-1,8
 546 1504 546 1504 754 1504 c 0,9,10
 860 1504 860 1504 941 1473 c 128,-1,11
 1022 1442 1022 1442 1068 1390 c 128,-1,12
 1114 1338 1114 1338 1139 1287 c 128,-1,13
 1164 1236 1164 1236 1178 1182 c 1,14,-1
 1014 1132 l 1,15,16
 938 1350 938 1350 738 1350 c 0,17,18
 614 1350 614 1350 525 1281 c 128,-1,19
 436 1212 436 1212 418 1106 c 0,20,21
 398 984 398 984 483 912 c 128,-1,22
 568 840 568 840 690 840 c 0,23,24
 780 840 780 840 824 844 c 1,25,-1
 798 690 l 1,26,27
 728 696 728 696 660 696 c 0,28,29
 512 696 512 696 392 621 c 128,-1,30
 272 546 272 546 250 412 c 0,31,32
 226 268 226 268 314 194 c 128,-1,33
 402 120 402 120 542 120 c 0,34,35
 644 120 644 120 753 179 c 128,-1,36
 862 238 862 238 924 326 c 1,37,-1
 1062 266 l 1,38,39
 978 128 978 128 830 47 c 128,-1,40
 682 -34 682 -34 510 -34 c 0,41,42
 280 -34 280 -34 153 84 c 128,-1,43
 26 202 26 202 60 408 c 0,0,1
EndSplineSet
EndChar

StartChar: uni0191
Encoding: 401 401 339
Width: 1108
GlyphClass: 2
Flags: W
LayerCount: 2
Fore
SplineSet
-212 -292 m 1,0,1
 -144 -302 -144 -302 -116 -302 c 0,2,3
 -30 -302 -30 -302 19 -243 c 128,-1,4
 68 -184 68 -184 88 -54 c 2,5,-1
 340 1470 l 1,6,-1
 1230 1470 l 1,7,-1
 1204 1310 l 1,8,-1
 498 1310 l 1,9,-1
 416 816 l 1,10,-1
 1050 816 l 1,11,-1
 1024 660 l 1,12,-1
 392 660 l 1,13,-1
 272 -54 l 2,14,15
 236 -270 236 -270 131 -366 c 128,-1,16
 26 -462 26 -462 -108 -462 c 0,17,18
 -158 -462 -158 -462 -238 -448 c 1,19,-1
 -212 -292 l 1,0,1
EndSplineSet
EndChar

StartChar: florin
Encoding: 402 402 340
Width: 644
GlyphClass: 2
Flags: W
LayerCount: 2
Fore
SplineSet
-192 -294 m 1,0,1
 -156 -302 -156 -302 -98 -302 c 0,2,3
 70 -302 70 -302 112 -42 c 2,4,-1
 270 910 l 1,5,-1
 100 910 l 1,6,-1
 126 1062 l 1,7,-1
 294 1062 l 1,8,-1
 320 1208 l 2,9,10
 346 1366 346 1366 433 1445 c 128,-1,11
 520 1524 520 1524 654 1524 c 2,12,-1
 796 1524 l 1,13,-1
 770 1372 l 1,14,-1
 652 1372 l 2,15,16
 514 1372 514 1372 484 1192 c 2,17,-1
 462 1062 l 1,18,-1
 696 1062 l 1,19,-1
 670 910 l 1,20,-1
 438 910 l 1,21,-1
 278 -46 l 2,22,23
 242 -264 242 -264 142 -363 c 128,-1,24
 42 -462 42 -462 -92 -462 c 0,25,26
 -104 -462 -104 -462 -218 -448 c 1,27,-1
 -192 -294 l 1,0,1
EndSplineSet
EndChar

StartChar: uni0194
Encoding: 404 404 342
Width: 1208
GlyphClass: 2
Flags: W
LayerCount: 2
Fore
SplineSet
148 1470 m 1,0,-1
 348 1470 l 1,1,-1
 554 404 l 1,2,-1
 566 326 l 1,3,-1
 568 326 l 1,4,-1
 606 404 l 1,5,-1
 1158 1470 l 1,6,-1
 1358 1470 l 1,7,-1
 692 236 l 1,8,9
 828 14 828 14 800 -150 c 0,10,11
 778 -282 778 -282 676 -372 c 128,-1,12
 574 -462 574 -462 436 -462 c 256,13,14
 296 -462 296 -462 220 -376 c 128,-1,15
 144 -290 144 -290 168 -150 c 0,16,17
 180 -82 180 -82 227 -3 c 128,-1,18
 274 76 274 76 310 120 c 128,-1,19
 346 164 346 164 412 236 c 1,20,-1
 148 1470 l 1,0,-1
354 -144 m 0,21,22
 342 -216 342 -216 371 -263 c 128,-1,23
 400 -310 400 -310 460 -310 c 256,24,25
 520 -310 520 -310 565 -262 c 128,-1,26
 610 -214 610 -214 622 -144 c 0,27,28
 642 -20 642 -20 532 136 c 1,29,30
 376 -12 376 -12 354 -144 c 0,21,22
EndSplineSet
EndChar

StartChar: uni0195
Encoding: 405 405 343
Width: 1674
GlyphClass: 2
Flags: W
LayerCount: 2
Fore
SplineSet
50 0 m 1,0,-1
 302 1524 l 1,1,-1
 474 1524 l 1,2,-1
 372 914 l 1,3,-1
 374 914 l 1,4,5
 428 994 428 994 516 1045 c 128,-1,6
 604 1096 604 1096 696 1096 c 0,7,8
 756 1096 756 1096 807 1079 c 128,-1,9
 858 1062 858 1062 903 1019 c 128,-1,10
 948 976 948 976 963 891 c 128,-1,11
 978 806 978 806 958 684 c 2,12,-1
 904 364 l 2,13,14
 864 118 864 118 1088 118 c 0,15,16
 1306 118 1306 118 1348 370 c 2,17,-1
 1462 1062 l 1,18,-1
 1636 1062 l 1,19,-1
 1516 342 l 2,20,21
 1486 156 1486 156 1363 61 c 128,-1,22
 1240 -34 1240 -34 1062 -34 c 0,23,24
 894 -34 894 -34 796 50 c 128,-1,25
 698 134 698 134 730 332 c 2,26,-1
 784 658 l 2,27,28
 832 944 832 944 640 944 c 0,29,30
 532 944 532 944 439 849 c 128,-1,31
 346 754 346 754 324 628 c 0,32,33
 324 626 324 626 324 622 c 2,34,-1
 220 0 l 1,35,-1
 50 0 l 1,0,-1
EndSplineSet
EndChar

StartChar: uni0196
Encoding: 406 406 344
Width: 672
GlyphClass: 2
Flags: W
LayerCount: 2
Fore
SplineSet
132 324 m 2,0,-1
 322 1470 l 1,1,-1
 506 1470 l 1,2,-1
 318 330 l 2,3,4
 300 222 300 222 325 174 c 128,-1,5
 350 126 350 126 430 126 c 0,6,7
 502 126 502 126 574 136 c 1,8,-1
 548 -20 l 1,9,10
 420 -34 420 -34 372 -34 c 0,11,12
 236 -34 236 -34 168 51 c 128,-1,13
 100 136 100 136 132 324 c 2,0,-1
EndSplineSet
EndChar

StartChar: uni0197
Encoding: 407 407 345
Width: 548
GlyphClass: 2
Flags: W
LayerCount: 2
Fore
SplineSet
56 672 m 1,0,-1
 80 818 l 1,1,-1
 224 818 l 1,2,-1
 332 1470 l 1,3,-1
 516 1470 l 1,4,-1
 408 818 l 1,5,-1
 554 818 l 1,6,-1
 530 672 l 1,7,-1
 384 672 l 1,8,-1
 274 0 l 1,9,-1
 90 0 l 1,10,-1
 200 672 l 1,11,-1
 56 672 l 1,0,-1
EndSplineSet
EndChar

StartChar: uni0198
Encoding: 408 408 346
Width: 1250
GlyphClass: 2
Flags: W
LayerCount: 2
Fore
SplineSet
78 0 m 1,0,-1
 322 1470 l 1,1,-1
 506 1470 l 1,2,-1
 384 732 l 1,3,-1
 388 732 l 1,4,-1
 1044 1382 l 2,5,6
 1170 1504 1170 1504 1338 1504 c 0,7,8
 1420 1504 1420 1504 1488 1486 c 1,9,-1
 1460 1326 l 1,10,11
 1392 1344 1392 1344 1320 1344 c 0,12,13
 1240 1344 1240 1344 1188 1290 c 2,14,-1
 714 832 l 1,15,-1
 1152 0 l 1,16,-1
 926 0 l 1,17,-1
 576 698 l 1,18,-1
 340 470 l 1,19,-1
 264 0 l 1,20,-1
 78 0 l 1,0,-1
EndSplineSet
EndChar

StartChar: uni0199
Encoding: 409 409 347
Width: 968
GlyphClass: 2
Flags: W
LayerCount: 2
Fore
SplineSet
54 0 m 1,0,-1
 256 1226 l 2,1,2
 282 1382 282 1382 384 1465 c 128,-1,3
 486 1548 486 1548 632 1548 c 0,4,5
 686 1548 686 1548 780 1542 c 1,6,-1
 754 1384 l 1,7,8
 670 1392 670 1392 638 1392 c 0,9,10
 556 1392 556 1392 496 1339 c 128,-1,11
 436 1286 436 1286 420 1192 c 2,12,-1
 316 566 l 1,13,-1
 808 1062 l 1,14,-1
 1032 1062 l 1,15,-1
 594 636 l 1,16,-1
 890 0 l 1,17,-1
 684 0 l 1,18,-1
 464 508 l 1,19,-1
 276 324 l 1,20,-1
 222 0 l 1,21,-1
 54 0 l 1,0,-1
EndSplineSet
EndChar

StartChar: uni019A
Encoding: 410 410 348
Width: 486
GlyphClass: 2
Flags: W
LayerCount: 2
Fore
SplineSet
36 744 m 1,0,-1
 60 890 l 1,1,-1
 214 890 l 1,2,-1
 320 1524 l 1,3,-1
 488 1524 l 1,4,-1
 384 890 l 1,5,-1
 538 890 l 1,6,-1
 514 744 l 1,7,-1
 360 744 l 1,8,-1
 236 0 l 1,9,-1
 68 0 l 1,10,-1
 190 744 l 1,11,-1
 36 744 l 1,0,-1
EndSplineSet
EndChar

StartChar: uni019B
Encoding: 411 411 349
Width: 952
GlyphClass: 2
Flags: W
LayerCount: 2
Fore
SplineSet
-82 0 m 1,0,-1
 482 1062 l 1,1,-1
 470 1144 l 1,2,-1
 218 972 l 1,3,-1
 156 1084 l 1,4,-1
 432 1268 l 1,5,6
 394 1364 394 1364 282 1364 c 2,7,-1
 246 1364 l 1,8,-1
 270 1514 l 1,9,-1
 332 1514 l 2,10,11
 502 1514 502 1514 576 1364 c 1,12,-1
 782 1506 l 1,13,-1
 846 1394 l 1,14,-1
 618 1240 l 1,15,-1
 622 1222 l 1,16,-1
 846 0 l 1,17,-1
 654 0 l 1,18,-1
 570 594 l 2,19,20
 570 596 570 596 554 700 c 128,-1,21
 538 804 538 804 534 854 c 1,22,-1
 526 854 l 1,23,24
 482 752 482 752 406 594 c 2,25,-1
 112 0 l 1,26,-1
 -82 0 l 1,0,-1
EndSplineSet
EndChar

StartChar: uni019C
Encoding: 412 412 350
Width: 1852
GlyphClass: 2
Flags: W
CounterMasks: 1 1c
LayerCount: 2
Fore
SplineSet
154 458 m 2,0,-1
 322 1470 l 1,1,-1
 504 1470 l 1,2,-1
 334 444 l 2,3,4
 282 124 282 124 482 124 c 0,5,6
 600 124 600 124 699 233 c 128,-1,7
 798 342 798 342 824 498 c 2,8,-1
 984 1470 l 1,9,-1
 1168 1470 l 1,10,-1
 998 438 l 2,11,12
 972 282 972 282 1014 204 c 128,-1,13
 1056 126 1056 126 1150 126 c 0,14,15
 1274 126 1274 126 1367 229 c 128,-1,16
 1460 332 1460 332 1488 494 c 2,17,-1
 1650 1470 l 1,18,-1
 1832 1470 l 1,19,-1
 1588 0 l 1,20,-1
 1412 0 l 1,21,-1
 1438 164 l 1,22,-1
 1436 164 l 1,23,24
 1392 84 1392 84 1295 25 c 128,-1,25
 1198 -34 1198 -34 1084 -34 c 0,26,27
 844 -34 844 -34 820 196 c 1,28,29
 774 108 774 108 667 37 c 128,-1,30
 560 -34 560 -34 416 -34 c 0,31,32
 72 -34 72 -34 154 458 c 2,0,-1
EndSplineSet
EndChar

StartChar: uni019D
Encoding: 413 413 351
Width: 1404
GlyphClass: 2
Flags: W
LayerCount: 2
Fore
SplineSet
340 1470 m 1,0,-1
 542 1470 l 1,1,-1
 932 486 l 1,2,-1
 1010 272 l 1,3,-1
 1020 272 l 1,4,5
 1032 472 1032 472 1068 690 c 2,6,-1
 1196 1470 l 1,7,-1
 1378 1470 l 1,8,-1
 1136 0 l 1,9,-1
 934 0 l 1,10,-1
 548 976 l 1,11,-1
 468 1196 l 1,12,-1
 458 1196 l 1,13,14
 446 988 446 988 410 778 c 2,15,-1
 278 -24 l 2,16,17
 240 -248 240 -248 134 -354 c 128,-1,18
 28 -460 28 -460 -116 -460 c 0,19,20
 -176 -460 -176 -460 -228 -448 c 1,21,-1
 -202 -294 l 1,22,23
 -180 -300 -180 -300 -124 -300 c 0,24,25
 -26 -300 -26 -300 22 -232 c 128,-1,26
 70 -164 70 -164 94 -22 c 2,27,-1
 340 1470 l 1,0,-1
EndSplineSet
EndChar

StartChar: uni019E
Encoding: 414 414 352
Width: 1070
GlyphClass: 2
Flags: W
LayerCount: 2
Fore
SplineSet
38 0 m 1,0,-1
 214 1062 l 1,1,-1
 380 1062 l 1,2,-1
 354 900 l 1,3,-1
 356 900 l 1,4,5
 406 982 406 982 492 1039 c 128,-1,6
 578 1096 578 1096 692 1096 c 0,7,8
 834 1096 834 1096 910 1001 c 128,-1,9
 986 906 986 906 948 684 c 2,10,-1
 760 -454 l 1,11,-1
 590 -454 l 1,12,-1
 774 658 l 2,13,14
 822 944 822 944 630 944 c 0,15,16
 524 944 524 944 430 851 c 128,-1,17
 336 758 336 758 314 628 c 2,18,-1
 210 0 l 1,19,-1
 38 0 l 1,0,-1
EndSplineSet
EndChar

StartChar: uni019F
Encoding: 415 415 353
Width: 1382
GlyphClass: 2
Flags: W
LayerCount: 2
Fore
SplineSet
114 734 m 0,0,1
 172 1080 172 1080 372 1292 c 128,-1,2
 572 1504 572 1504 846 1504 c 0,3,4
 1124 1504 1124 1504 1254 1292 c 128,-1,5
 1384 1080 1384 1080 1326 732 c 0,6,7
 1268 382 1268 382 1067 174 c 128,-1,8
 866 -34 866 -34 592 -34 c 256,9,10
 318 -34 318 -34 187 175 c 128,-1,11
 56 384 56 384 114 734 c 0,0,1
1120 656 m 1,12,-1
 290 656 l 1,13,14
 264 410 264 410 352 269 c 128,-1,15
 440 128 440 128 618 128 c 256,16,17
 796 128 796 128 931 267 c 128,-1,18
 1066 406 1066 406 1120 656 c 1,12,-1
314 804 m 1,19,-1
 1144 804 l 1,20,21
 1172 1052 1172 1052 1088 1198 c 128,-1,22
 1004 1344 1004 1344 820 1344 c 0,23,24
 640 1344 640 1344 506 1200 c 128,-1,25
 372 1056 372 1056 314 804 c 1,19,-1
EndSplineSet
EndChar

StartChar: uni01A2
Encoding: 418 418 356
Width: 1886
GlyphClass: 2
Flags: W
LayerCount: 2
Fore
SplineSet
112 726 m 0,0,1
 172 1084 172 1084 374 1294 c 128,-1,2
 576 1504 576 1504 836 1504 c 0,3,4
 926 1504 926 1504 1110 1464 c 128,-1,5
 1294 1424 1294 1424 1430 1424 c 0,6,7
 1578 1424 1578 1424 1866 1470 c 1,8,-1
 1622 0 l 1,9,-1
 1440 0 l 1,10,-1
 1652 1286 l 1,11,12
 1544 1266 1544 1266 1402 1266 c 0,13,14
 1302 1266 1302 1266 1182 1286 c 1,15,-1
 988 114 l 1,16,17
 808 -34 808 -34 582 -34 c 0,18,19
 320 -34 320 -34 188 175 c 128,-1,20
 56 384 56 384 112 726 c 0,0,1
302 726 m 0,21,22
 256 448 256 448 344 287 c 128,-1,23
 432 126 432 126 608 126 c 0,24,25
 710 126 710 126 816 186 c 1,26,-1
 1002 1310 l 1,27,28
 990 1314 990 1314 964 1323 c 128,-1,29
 938 1332 938 1332 924 1335 c 128,-1,30
 910 1338 910 1338 879 1342 c 128,-1,31
 848 1346 848 1346 810 1346 c 0,32,33
 636 1346 636 1346 494 1184 c 128,-1,34
 352 1022 352 1022 302 726 c 0,21,22
EndSplineSet
EndChar

StartChar: uni01A3
Encoding: 419 419 357
Width: 1478
GlyphClass: 2
Flags: W
LayerCount: 2
Fore
SplineSet
64 530 m 256,0,1
 108 798 108 798 258 947 c 128,-1,2
 408 1096 408 1096 618 1096 c 0,3,4
 704 1096 704 1096 849 1066 c 128,-1,5
 994 1036 994 1036 1096 1036 c 0,6,7
 1262 1036 1262 1036 1432 1070 c 1,8,-1
 1254 0 l 1,9,-1
 1084 0 l 1,10,-1
 1232 894 l 1,11,12
 1172 884 1172 884 1070 884 c 0,13,14
 964 884 964 884 918 892 c 1,15,-1
 792 130 l 1,16,17
 646 -34 646 -34 430 -34 c 0,18,19
 224 -34 224 -34 122 114 c 128,-1,20
 20 262 20 262 64 530 c 256,0,1
240 530 m 0,21,22
 208 340 208 340 269 229 c 128,-1,23
 330 118 330 118 456 118 c 0,24,25
 544 118 544 118 636 214 c 1,26,-1
 752 918 l 1,27,28
 636 944 636 944 594 944 c 0,29,30
 458 944 458 944 364 830 c 128,-1,31
 270 716 270 716 240 530 c 0,21,22
EndSplineSet
EndChar

StartChar: uni01A5
Encoding: 421 421 359
Width: 1098
GlyphClass: 2
Flags: W
LayerCount: 2
Fore
SplineSet
308 532 m 0,0,1
 276 340 276 340 330 229 c 128,-1,2
 384 118 384 118 504 118 c 0,3,4
 626 118 626 118 722 230 c 128,-1,5
 818 342 818 342 848 532 c 0,6,7
 878 718 878 718 822 831 c 128,-1,8
 766 944 766 944 642 944 c 0,9,10
 528 944 528 944 433 831 c 128,-1,11
 338 718 338 718 308 532 c 0,0,1
-26 -454 m 1,12,-1
 250 1210 l 2,13,14
 278 1376 278 1376 383 1456 c 128,-1,15
 488 1536 488 1536 624 1536 c 0,16,17
 674 1536 674 1536 770 1528 c 1,18,-1
 744 1372 l 1,19,20
 686 1378 686 1378 624 1378 c 0,21,22
 538 1378 538 1378 482 1321 c 128,-1,23
 426 1264 426 1264 412 1180 c 2,24,-1
 364 888 l 1,25,26
 404 964 404 964 493 1030 c 128,-1,27
 582 1096 582 1096 692 1096 c 0,28,29
 874 1096 874 1096 968 943 c 128,-1,30
 1062 790 1062 790 1020 532 c 0,31,32
 996 386 996 386 939 272 c 128,-1,33
 882 158 882 158 807 93 c 128,-1,34
 732 28 732 28 656 -3 c 128,-1,35
 580 -34 580 -34 504 -34 c 0,36,37
 394 -34 394 -34 330 25 c 128,-1,38
 266 84 266 84 248 164 c 1,39,-1
 146 -454 l 1,40,-1
 -26 -454 l 1,12,-1
EndSplineSet
EndChar

StartChar: uni01A6
Encoding: 422 422 360
Width: 1218
GlyphClass: 2
Flags: W
LayerCount: 2
Fore
SplineSet
342 608 m 1,0,-1
 646 608 l 2,1,2
 768 608 768 608 857 668 c 128,-1,3
 946 728 946 728 968 866 c 0,4,5
 1008 1102 1008 1102 732 1102 c 2,6,-1
 424 1102 l 1,7,-1
 342 608 l 1,0,-1
58 0 m 1,8,-1
 302 1470 l 1,9,-1
 484 1470 l 1,10,-1
 450 1260 l 1,11,-1
 796 1260 l 2,12,13
 1006 1260 1006 1260 1095 1152 c 128,-1,14
 1184 1044 1184 1044 1158 880 c 0,15,16
 1144 790 1144 790 1103 721 c 128,-1,17
 1062 652 1062 652 1002 610 c 128,-1,18
 942 568 942 568 911 553 c 128,-1,19
 880 538 880 538 828 518 c 1,20,21
 898 474 898 474 921 418 c 128,-1,22
 944 362 944 362 954 258 c 0,23,24
 954 250 954 250 960 216 c 128,-1,25
 966 182 966 182 967 172 c 128,-1,26
 968 162 968 162 971 130 c 128,-1,27
 974 98 974 98 978 84 c 128,-1,28
 982 70 982 70 988 40 c 128,-1,29
 994 10 994 10 999 -9 c 128,-1,30
 1004 -28 1004 -28 1012 -56 c 128,-1,31
 1020 -84 1020 -84 1029 -110 c 128,-1,32
 1038 -136 1038 -136 1048 -164 c 1,33,-1
 846 -164 l 1,34,35
 828 -116 828 -116 811 -55 c 128,-1,36
 794 6 794 6 788 41 c 128,-1,37
 782 76 782 76 770 157 c 128,-1,38
 758 238 758 238 756 256 c 0,39,40
 742 358 742 358 704 405 c 128,-1,41
 666 452 666 452 578 452 c 2,42,-1
 316 452 l 1,43,-1
 242 0 l 1,44,-1
 58 0 l 1,8,-1
EndSplineSet
EndChar

StartChar: uni01A7
Encoding: 423 423 361
Width: 1172
GlyphClass: 2
Flags: W
LayerCount: 2
Fore
SplineSet
38 390 m 0,0,1
 54 482 54 482 98 552 c 128,-1,2
 142 622 142 622 216 670 c 128,-1,3
 290 718 290 718 358 748 c 128,-1,4
 426 778 426 778 522 810 c 0,5,6
 748 880 748 880 820 920 c 0,7,8
 954 996 954 996 974 1114 c 0,9,10
 992 1220 992 1220 922 1282 c 128,-1,11
 852 1344 852 1344 716 1344 c 0,12,13
 512 1344 512 1344 348 1164 c 1,14,-1
 200 1218 l 1,15,16
 282 1338 282 1338 424 1421 c 128,-1,17
 566 1504 566 1504 738 1504 c 0,18,19
 958 1504 958 1504 1075 1397 c 128,-1,20
 1192 1290 1192 1290 1164 1114 c 0,21,22
 1156 1068 1156 1068 1138 1026 c 128,-1,23
 1120 984 1120 984 1103 953 c 128,-1,24
 1086 922 1086 922 1051 891 c 128,-1,25
 1016 860 1016 860 995 840 c 128,-1,26
 974 820 974 820 924 796 c 128,-1,27
 874 772 874 772 853 762 c 128,-1,28
 832 752 832 752 772 730 c 128,-1,29
 712 708 712 708 697 704 c 128,-1,30
 682 700 682 700 614 678 c 0,31,32
 522 648 522 648 475 628 c 128,-1,33
 428 608 428 608 365 574 c 128,-1,34
 302 540 302 540 269 493 c 128,-1,35
 236 446 236 446 226 384 c 0,36,37
 206 266 206 266 282 196 c 128,-1,38
 358 126 358 126 498 126 c 0,39,40
 614 126 614 126 729 187 c 128,-1,41
 844 248 844 248 914 342 c 1,42,-1
 1066 284 l 1,43,44
 974 140 974 140 817 53 c 128,-1,45
 660 -34 660 -34 478 -34 c 0,46,47
 248 -34 248 -34 126 77 c 128,-1,48
 4 188 4 188 38 390 c 0,0,1
EndSplineSet
EndChar

StartChar: uni01A8
Encoding: 424 424 362
Width: 922
GlyphClass: 2
Flags: W
LayerCount: 2
Fore
SplineSet
12 272 m 0,0,1
 22 338 22 338 60 390 c 128,-1,2
 98 442 98 442 159 479 c 128,-1,3
 220 516 220 516 271 537 c 128,-1,4
 322 558 322 558 398 584 c 0,5,6
 468 604 468 604 503 618 c 128,-1,7
 538 632 538 632 588 657 c 128,-1,8
 638 682 638 682 665 715 c 128,-1,9
 692 748 692 748 700 790 c 0,10,11
 712 862 712 862 663 903 c 128,-1,12
 614 944 614 944 516 944 c 0,13,14
 350 944 350 944 224 784 c 1,15,-1
 122 862 l 1,16,17
 188 960 188 960 303 1028 c 128,-1,18
 418 1096 418 1096 544 1096 c 0,19,20
 706 1096 706 1096 800 1014 c 128,-1,21
 894 932 894 932 870 790 c 0,22,23
 860 734 860 734 834 689 c 128,-1,24
 808 644 808 644 776 613 c 128,-1,25
 744 582 744 582 694 555 c 128,-1,26
 644 528 644 528 605 513 c 128,-1,27
 566 498 566 498 510 480 c 0,28,29
 496 474 496 474 449 460 c 128,-1,30
 402 446 402 446 384 439 c 128,-1,31
 366 432 366 432 328 417 c 128,-1,32
 290 402 290 402 272 390 c 128,-1,33
 254 378 254 378 231 360 c 128,-1,34
 208 342 208 342 197 320 c 128,-1,35
 186 298 186 298 182 272 c 0,36,37
 170 198 170 198 222 158 c 128,-1,38
 274 118 274 118 376 118 c 0,39,40
 464 118 464 118 547 163 c 128,-1,41
 630 208 630 208 696 290 c 1,42,-1
 808 214 l 1,43,44
 734 104 734 104 614 35 c 128,-1,45
 494 -34 494 -34 352 -34 c 0,46,47
 164 -34 164 -34 77 55 c 128,-1,48
 -10 144 -10 144 12 272 c 0,0,1
EndSplineSet
EndChar

StartChar: uni01A9
Encoding: 425 425 363
Width: 1188
GlyphClass: 2
Flags: W
LayerCount: 2
Fore
SplineSet
56 0 m 1,0,-1
 76 126 l 1,1,-1
 702 738 l 1,2,-1
 278 1344 l 1,3,-1
 298 1470 l 1,4,-1
 1218 1470 l 1,5,-1
 1192 1308 l 1,6,-1
 526 1308 l 1,7,-1
 912 738 l 1,8,-1
 336 158 l 1,9,-1
 1014 158 l 1,10,-1
 988 0 l 1,11,-1
 56 0 l 1,0,-1
EndSplineSet
EndChar

StartChar: uni01AA
Encoding: 426 426 364
Width: 830
GlyphClass: 2
Flags: W
LayerCount: 2
Fore
SplineSet
178 1212 m 0,0,1
 166 1144 166 1144 202 1107 c 128,-1,2
 238 1070 238 1070 296 1070 c 0,3,4
 398 1070 398 1070 470 1128 c 1,5,6
 486 1224 486 1224 460 1290 c 128,-1,7
 434 1356 434 1356 348 1356 c 0,8,9
 288 1356 288 1356 238 1315 c 128,-1,10
 188 1274 188 1274 178 1212 c 0,0,1
10 1204 m 0,11,12
 32 1340 32 1340 134 1422 c 128,-1,13
 236 1504 236 1504 372 1504 c 0,14,15
 530 1504 530 1504 597 1400 c 128,-1,16
 664 1296 664 1296 634 1116 c 2,17,-1
 430 -118 l 2,18,19
 414 -210 414 -210 441 -256 c 128,-1,20
 468 -302 468 -302 548 -302 c 0,21,22
 572 -302 572 -302 668 -290 c 1,23,-1
 642 -446 l 1,24,25
 628 -448 628 -448 599 -452 c 128,-1,26
 570 -456 570 -456 542 -459 c 128,-1,27
 514 -462 514 -462 490 -462 c 0,28,29
 356 -462 356 -462 293 -380 c 128,-1,30
 230 -298 230 -298 258 -130 c 2,31,-1
 440 972 l 1,32,33
 376 920 376 920 246 920 c 0,34,35
 124 920 124 920 57 999 c 128,-1,36
 -10 1078 -10 1078 10 1204 c 0,11,12
EndSplineSet
EndChar

StartChar: uni01AB
Encoding: 427 427 365
Width: 680
GlyphClass: 2
Flags: W
LayerCount: 2
Fore
SplineSet
90 910 m 1,0,-1
 114 1062 l 1,1,-1
 286 1062 l 1,2,-1
 340 1392 l 1,3,-1
 508 1392 l 1,4,-1
 452 1062 l 1,5,-1
 706 1062 l 1,6,-1
 680 910 l 1,7,-1
 428 910 l 1,8,-1
 330 322 l 2,9,10
 316 234 316 234 343 194 c 128,-1,11
 370 154 370 154 442 154 c 0,12,13
 538 154 538 154 596 164 c 1,14,-1
 564 -26 l 2,15,16
 528 -242 528 -242 431 -352 c 128,-1,17
 334 -462 334 -462 184 -462 c 0,18,19
 142 -462 142 -462 68 -448 c 1,20,-1
 94 -292 l 1,21,22
 156 -302 156 -302 192 -302 c 0,23,24
 354 -302 354 -302 396 -54 c 2,25,-1
 404 2 l 1,26,27
 328 8 328 8 298 16 c 0,28,29
 120 60 120 60 160 306 c 2,30,-1
 260 910 l 1,31,-1
 90 910 l 1,0,-1
EndSplineSet
EndChar

StartChar: uni01AC
Encoding: 428 428 366
Width: 1162
GlyphClass: 2
Flags: W
LayerCount: 2
Fore
SplineSet
52 1178 m 0,0,1
 76 1328 76 1328 187 1399 c 128,-1,2
 298 1470 298 1470 472 1470 c 2,3,-1
 1298 1470 l 1,4,-1
 1270 1308 l 1,5,-1
 840 1308 l 1,6,-1
 624 0 l 1,7,-1
 438 0 l 1,8,-1
 656 1308 l 1,9,-1
 448 1308 l 2,10,11
 238 1308 238 1308 214 1164 c 0,12,13
 210 1140 210 1140 212 1086 c 1,14,-1
 48 1086 l 1,15,16
 46 1144 46 1144 52 1178 c 0,0,1
EndSplineSet
EndChar

StartChar: uni01AD
Encoding: 429 429 367
Width: 682
GlyphClass: 2
Flags: W
LayerCount: 2
Fore
SplineSet
90 910 m 1,0,-1
 114 1062 l 1,1,-1
 286 1062 l 1,2,-1
 310 1208 l 2,3,4
 336 1364 336 1364 438 1449 c 128,-1,5
 540 1534 540 1534 686 1534 c 0,6,7
 716 1534 716 1534 832 1524 c 1,8,-1
 806 1368 l 1,9,10
 756 1374 756 1374 690 1374 c 0,11,12
 604 1374 604 1374 546 1324 c 128,-1,13
 488 1274 488 1274 474 1184 c 2,14,-1
 452 1062 l 1,15,-1
 708 1062 l 1,16,-1
 682 910 l 1,17,-1
 428 910 l 1,18,-1
 330 322 l 2,19,20
 316 234 316 234 343 194 c 128,-1,21
 370 154 370 154 444 154 c 2,22,-1
 560 154 l 1,23,-1
 534 0 l 1,24,-1
 396 0 l 2,25,26
 110 0 110 0 160 306 c 2,27,-1
 260 910 l 1,28,-1
 90 910 l 1,0,-1
EndSplineSet
EndChar

StartChar: uni01AE
Encoding: 430 430 368
Width: 1080
GlyphClass: 2
Flags: W
LayerCount: 2
Fore
SplineSet
144 1308 m 1,0,-1
 172 1470 l 1,1,-1
 1214 1470 l 1,2,-1
 1188 1308 l 1,3,-1
 758 1308 l 1,4,-1
 528 -84 l 2,5,6
 508 -200 508 -200 537 -251 c 128,-1,7
 566 -302 566 -302 652 -302 c 0,8,9
 672 -302 672 -302 750 -292 c 1,10,-1
 724 -448 l 1,11,12
 610 -462 610 -462 590 -462 c 0,13,14
 280 -462 280 -462 344 -84 c 2,15,-1
 574 1308 l 1,16,-1
 144 1308 l 1,0,-1
EndSplineSet
EndChar

StartChar: uni01B1
Encoding: 433 433 371
Width: 1442
GlyphClass: 2
Flags: W
LayerCount: 2
Fore
SplineSet
92 608 m 0,0,1
 128 826 128 826 262 972 c 128,-1,2
 396 1118 396 1118 592 1190 c 1,3,-1
 612 1308 l 1,4,-1
 226 1308 l 1,5,-1
 252 1470 l 1,6,-1
 782 1470 l 1,7,-1
 718 1088 l 1,8,9
 532 1036 532 1036 421 907 c 128,-1,10
 310 778 310 778 282 608 c 0,11,12
 248 402 248 402 349 266 c 128,-1,13
 450 130 450 130 650 130 c 0,14,15
 848 130 848 130 994 266 c 128,-1,16
 1140 402 1140 402 1174 608 c 0,17,18
 1202 776 1202 776 1135 906 c 128,-1,19
 1068 1036 1068 1036 898 1088 c 1,20,-1
 962 1470 l 1,21,-1
 1490 1470 l 1,22,-1
 1462 1308 l 1,23,-1
 1074 1308 l 1,24,-1
 1054 1190 l 1,25,26
 1228 1122 1228 1122 1314 974 c 128,-1,27
 1400 826 1400 826 1364 608 c 0,28,29
 1318 332 1318 332 1118 149 c 128,-1,30
 918 -34 918 -34 622 -34 c 256,31,32
 326 -34 326 -34 186 149 c 128,-1,33
 46 332 46 332 92 608 c 0,0,1
EndSplineSet
EndChar

StartChar: uni01B2
Encoding: 434 434 372
Width: 1390
GlyphClass: 2
Flags: W
LayerCount: 2
Fore
SplineSet
160 498 m 2,0,-1
 320 1470 l 1,1,-1
 504 1470 l 1,2,-1
 346 512 l 2,3,4
 310 298 310 298 374 212 c 128,-1,5
 438 126 438 126 588 126 c 0,6,7
 776 126 776 126 940 323 c 128,-1,8
 1104 520 1104 520 1156 830 c 0,9,10
 1198 1078 1198 1078 1152 1211 c 128,-1,11
 1106 1344 1106 1344 988 1344 c 0,12,13
 928 1344 928 1344 848 1324 c 1,14,-1
 876 1490 l 1,15,16
 964 1504 964 1504 1042 1504 c 0,17,18
 1238 1504 1238 1504 1320 1335 c 128,-1,19
 1402 1166 1402 1166 1346 834 c 0,20,21
 1306 598 1306 598 1198 401 c 128,-1,22
 1090 204 1090 204 923 85 c 128,-1,23
 756 -34 756 -34 562 -34 c 0,24,25
 314 -34 314 -34 214 95 c 128,-1,26
 114 224 114 224 160 498 c 2,0,-1
EndSplineSet
EndChar

StartChar: uni01B3
Encoding: 435 435 373
Width: 1188
GlyphClass: 2
Flags: W
LayerCount: 2
Fore
SplineSet
144 1470 m 1,0,-1
 356 1470 l 1,1,-1
 534 994 l 2,2,3
 586 866 586 866 622 758 c 1,4,-1
 626 758 l 1,5,6
 684 844 684 844 792 994 c 2,7,-1
 1024 1322 l 2,8,9
 1150 1504 1150 1504 1314 1504 c 0,10,11
 1352 1504 1352 1504 1416 1498 c 1,12,-1
 1390 1338 l 1,13,14
 1342 1346 1342 1346 1308 1346 c 0,15,16
 1252 1346 1252 1346 1160 1226 c 2,17,-1
 690 602 l 1,18,-1
 590 0 l 1,19,-1
 406 0 l 1,20,-1
 506 602 l 1,21,-1
 144 1470 l 1,0,-1
EndSplineSet
EndChar

StartChar: uni01B4
Encoding: 436 436 374
Width: 956
GlyphClass: 2
Flags: W
LayerCount: 2
Fore
SplineSet
96 1062 m 1,0,-1
 290 1062 l 1,1,-1
 386 466 l 2,2,3
 412 292 412 292 420 206 c 1,4,-1
 428 206 l 1,5,6
 502 368 502 368 550 466 c 2,7,-1
 770 926 l 2,8,9
 844 1086 844 1086 1030 1086 c 0,10,11
 1062 1086 1062 1086 1140 1076 c 1,12,-1
 1114 918 l 1,13,14
 1074 928 1074 928 1036 928 c 0,15,16
 952 928 952 928 914 850 c 2,17,-1
 404 -146 l 2,18,19
 320 -312 320 -312 227 -383 c 128,-1,20
 134 -454 134 -454 20 -454 c 2,21,-1
 -44 -454 l 1,22,-1
 -20 -302 l 1,23,-1
 16 -302 l 2,24,25
 90 -302 90 -302 150 -252 c 128,-1,26
 210 -202 210 -202 266 -82 c 2,27,-1
 308 0 l 1,28,-1
 96 1062 l 1,0,-1
EndSplineSet
EndChar

StartChar: uni01B5
Encoding: 437 437 375
Width: 1178
GlyphClass: 2
Flags: W
LayerCount: 2
Fore
SplineSet
202 654 m 1,0,-1
 226 800 l 1,1,-1
 560 800 l 1,2,-1
 988 1310 l 1,3,-1
 258 1310 l 1,4,-1
 284 1470 l 1,5,-1
 1240 1470 l 1,6,-1
 1216 1330 l 1,7,-1
 772 800 l 1,8,-1
 1008 800 l 1,9,-1
 984 654 l 1,10,-1
 644 654 l 1,11,-1
 230 158 l 1,12,-1
 1042 158 l 1,13,-1
 1016 0 l 1,14,-1
 -22 0 l 1,15,-1
 2 136 l 1,16,-1
 434 654 l 1,17,-1
 202 654 l 1,0,-1
EndSplineSet
EndChar

StartChar: uni01B6
Encoding: 438 438 376
Width: 908
GlyphClass: 2
Flags: W
LayerCount: 2
Fore
SplineSet
-42 0 m 1,0,-1
 -22 122 l 1,1,-1
 286 468 l 1,2,-1
 106 468 l 1,3,-1
 130 614 l 1,4,-1
 416 614 l 1,5,-1
 676 910 l 1,6,-1
 156 910 l 1,7,-1
 182 1062 l 1,8,-1
 922 1062 l 1,9,-1
 902 948 l 1,10,-1
 610 614 l 1,11,-1
 784 614 l 1,12,-1
 760 468 l 1,13,-1
 478 468 l 1,14,-1
 202 152 l 1,15,-1
 790 152 l 1,16,-1
 764 0 l 1,17,-1
 -42 0 l 1,0,-1
EndSplineSet
EndChar

StartChar: uni01B7
Encoding: 439 439 377
Width: 1342
GlyphClass: 2
Flags: W
LayerCount: 2
Fore
SplineSet
-18 -74 m 1,0,-1
 150 -10 l 1,1,2
 174 -126 174 -126 262 -207 c 128,-1,3
 350 -288 350 -288 494 -288 c 0,4,5
 690 -288 690 -288 825 -163 c 128,-1,6
 960 -38 960 -38 994 168 c 0,7,8
 1028 368 1028 368 919 486 c 128,-1,9
 810 604 810 604 572 604 c 2,10,-1
 406 604 l 1,11,-1
 432 754 l 1,12,-1
 1004 1308 l 1,13,-1
 266 1308 l 1,14,-1
 294 1470 l 1,15,-1
 1306 1470 l 1,16,-1
 1288 1362 l 1,17,-1
 662 758 l 1,18,-1
 696 758 l 1,19,20
 962 734 962 734 1094 579 c 128,-1,21
 1226 424 1226 424 1184 168 c 0,22,23
 1138 -110 1138 -110 939 -278 c 128,-1,24
 740 -446 740 -446 470 -446 c 0,25,26
 260 -446 260 -446 137 -339 c 128,-1,27
 14 -232 14 -232 -18 -74 c 1,0,-1
EndSplineSet
EndChar

StartChar: uni01B8
Encoding: 440 440 378
Width: 1342
GlyphClass: 2
Flags: W
LayerCount: 2
Fore
SplineSet
26 168 m 0,0,1
 68 424 68 424 260 586 c 128,-1,2
 452 748 452 748 708 758 c 1,3,-1
 744 758 l 1,4,-1
 316 1362 l 1,5,-1
 334 1470 l 1,6,-1
 1348 1470 l 1,7,-1
 1320 1308 l 1,8,-1
 584 1308 l 1,9,-1
 972 754 l 1,10,-1
 948 604 l 1,11,-1
 784 604 l 2,12,13
 542 604 542 604 395 486 c 128,-1,14
 248 368 248 368 214 168 c 0,15,16
 180 -38 180 -38 274 -163 c 128,-1,17
 368 -288 368 -288 564 -288 c 0,18,19
 708 -288 708 -288 822 -207 c 128,-1,20
 936 -126 936 -126 1000 -10 c 1,21,-1
 1146 -74 l 1,22,23
 1062 -232 1062 -232 904 -339 c 128,-1,24
 746 -446 746 -446 534 -446 c 0,25,26
 264 -446 264 -446 122 -278 c 128,-1,27
 -20 -110 -20 -110 26 168 c 0,0,1
EndSplineSet
EndChar

StartChar: uni01B9
Encoding: 441 441 379
Width: 1052
GlyphClass: 2
Flags: W
LayerCount: 2
Fore
SplineSet
-8 24 m 0,0,1
 24 218 24 218 169 350 c 128,-1,2
 314 482 314 482 504 488 c 2,3,-1
 546 490 l 1,4,-1
 202 948 l 1,5,-1
 220 1062 l 1,6,-1
 1006 1062 l 1,7,-1
 980 910 l 1,8,-1
 444 910 l 1,9,-1
 756 478 l 1,10,-1
 736 354 l 1,11,-1
 572 354 l 2,12,13
 402 354 402 354 297 263 c 128,-1,14
 192 172 192 172 166 24 c 0,15,16
 142 -120 142 -120 206 -214 c 128,-1,17
 270 -308 270 -308 402 -308 c 0,18,19
 502 -308 502 -308 585 -247 c 128,-1,20
 668 -186 668 -186 722 -88 c 1,21,-1
 864 -132 l 1,22,23
 792 -280 792 -280 666 -371 c 128,-1,24
 540 -462 540 -462 372 -462 c 0,25,26
 166 -462 166 -462 62 -324 c 128,-1,27
 -42 -186 -42 -186 -8 24 c 0,0,1
EndSplineSet
EndChar

StartChar: uni01BA
Encoding: 442 442 380
Width: 846
GlyphClass: 2
Flags: W
LayerCount: 2
Fore
SplineSet
-40 -132 m 0,0,1
 -28 -60 -28 -60 33 2 c 128,-1,2
 94 64 94 64 173 106 c 128,-1,3
 252 148 252 148 331 188 c 128,-1,4
 410 228 410 228 468 274 c 128,-1,5
 526 320 526 320 534 370 c 0,6,7
 542 424 542 424 479 460 c 128,-1,8
 416 496 416 496 288 496 c 2,9,-1
 220 496 l 1,10,-1
 238 596 l 1,11,-1
 602 910 l 1,12,-1
 140 910 l 1,13,-1
 166 1062 l 1,14,-1
 846 1062 l 1,15,-1
 826 942 l 1,16,-1
 428 602 l 1,17,-1
 470 600 l 2,18,19
 596 594 596 594 660 538 c 128,-1,20
 724 482 724 482 706 378 c 0,21,22
 694 300 694 300 633 236 c 128,-1,23
 572 172 572 172 494 128 c 128,-1,24
 416 84 416 84 337 46 c 128,-1,25
 258 8 258 8 201 -35 c 128,-1,26
 144 -78 144 -78 138 -122 c 0,27,28
 120 -236 120 -236 274 -236 c 0,29,30
 350 -236 350 -236 472 -212 c 1,31,-1
 446 -366 l 1,32,33
 314 -388 314 -388 224 -388 c 0,34,35
 88 -388 88 -388 14 -321 c 128,-1,36
 -60 -254 -60 -254 -40 -132 c 0,0,1
EndSplineSet
EndChar

StartChar: uni01BB
Encoding: 443 443 381
Width: 1072
GlyphClass: 2
Flags: W
LayerCount: 2
Fore
SplineSet
214 640 m 1,0,-1
 238 786 l 1,1,-1
 664 786 l 1,2,3
 826 934 826 934 854 1096 c 0,4,5
 874 1220 874 1220 817 1285 c 128,-1,6
 760 1350 760 1350 654 1350 c 0,7,8
 448 1350 448 1350 328 1080 c 1,9,-1
 178 1128 l 1,10,11
 242 1294 242 1294 374 1399 c 128,-1,12
 506 1504 506 1504 688 1504 c 0,13,14
 876 1504 876 1504 974 1394 c 128,-1,15
 1072 1284 1072 1284 1040 1088 c 0,16,17
 1014 930 1014 930 878 786 c 1,18,-1
 1052 786 l 1,19,-1
 1028 640 l 1,20,-1
 730 640 l 1,21,22
 710 622 710 622 652 573 c 128,-1,23
 594 524 594 524 576 509 c 128,-1,24
 558 494 558 494 511 452 c 128,-1,25
 464 410 464 410 445 391 c 128,-1,26
 426 372 426 372 390 336 c 128,-1,27
 354 300 354 300 336 275 c 128,-1,28
 318 250 318 250 294 218 c 128,-1,29
 270 186 270 186 252 154 c 1,30,-1
 882 154 l 1,31,-1
 856 0 l 1,32,-1
 4 0 l 1,33,34
 28 150 28 150 152 300 c 128,-1,35
 276 450 276 450 494 640 c 1,36,-1
 214 640 l 1,0,-1
EndSplineSet
EndChar

StartChar: uni01BC
Encoding: 444 444 382
Width: 1100
GlyphClass: 2
Flags: W
LayerCount: 2
Fore
SplineSet
30 248 m 1,0,-1
 190 304 l 1,1,2
 244 120 244 120 450 120 c 0,3,4
 584 120 584 120 676 206 c 128,-1,5
 768 292 768 292 792 436 c 0,6,7
 814 566 814 566 737 661 c 128,-1,8
 660 756 660 756 472 756 c 0,9,10
 354 756 354 756 238 730 c 1,11,-1
 404 1310 l 1,12,-1
 306 1310 l 1,13,-1
 334 1470 l 1,14,-1
 1080 1470 l 1,15,-1
 1052 1308 l 1,16,-1
 574 1308 l 1,17,-1
 462 906 l 1,18,19
 494 910 494 910 566 910 c 0,20,21
 792 910 792 910 904 777 c 128,-1,22
 1016 644 1016 644 982 438 c 0,23,24
 948 236 948 236 803 101 c 128,-1,25
 658 -34 658 -34 432 -34 c 0,26,27
 264 -34 264 -34 161 46 c 128,-1,28
 58 126 58 126 30 248 c 1,0,-1
EndSplineSet
EndChar

StartChar: uni01BD
Encoding: 445 445 383
Width: 880
GlyphClass: 2
Flags: W
LayerCount: 2
Fore
SplineSet
18 188 m 1,0,-1
 166 254 l 1,1,2
 184 192 184 192 232 155 c 128,-1,3
 280 118 280 118 342 118 c 0,4,5
 438 118 438 118 499 173 c 128,-1,6
 560 228 560 228 574 314 c 0,7,8
 588 404 588 404 529 468 c 128,-1,9
 470 532 470 532 356 532 c 0,10,11
 260 532 260 532 172 516 c 1,12,-1
 294 910 l 1,13,-1
 220 910 l 1,14,-1
 246 1062 l 1,15,-1
 808 1062 l 1,16,-1
 784 910 l 1,17,-1
 444 910 l 1,18,-1
 372 684 l 1,19,-1
 420 684 l 2,20,21
 592 684 592 684 682 581 c 128,-1,22
 772 478 772 478 746 322 c 0,23,24
 722 172 722 172 611 69 c 128,-1,25
 500 -34 500 -34 316 -34 c 0,26,27
 90 -34 90 -34 18 188 c 1,0,-1
EndSplineSet
EndChar

StartChar: uni01BE
Encoding: 446 446 384
Width: 818
GlyphClass: 2
Flags: W
LayerCount: 2
Fore
SplineSet
114 910 m 1,0,-1
 138 1062 l 1,1,-1
 282 1062 l 1,2,-1
 336 1384 l 1,3,-1
 506 1384 l 1,4,-1
 452 1062 l 1,5,-1
 690 1062 l 1,6,-1
 666 910 l 1,7,-1
 426 910 l 1,8,-1
 408 798 l 2,9,10
 396 728 396 728 424 675 c 128,-1,11
 452 622 452 622 500 586 c 128,-1,12
 548 550 548 550 596 511 c 128,-1,13
 644 472 644 472 670 411 c 128,-1,14
 696 350 696 350 684 270 c 0,15,16
 662 138 662 138 566 52 c 128,-1,17
 470 -34 470 -34 302 -34 c 0,18,19
 78 -34 78 -34 4 178 c 1,20,-1
 136 248 l 1,21,22
 202 118 202 118 322 118 c 0,23,24
 404 118 404 118 454 157 c 128,-1,25
 504 196 504 196 516 264 c 0,26,27
 524 314 524 314 493 355 c 128,-1,28
 462 396 462 396 414 430 c 128,-1,29
 366 464 366 464 319 506 c 128,-1,30
 272 548 272 548 246 617 c 128,-1,31
 220 686 220 686 236 778 c 2,32,-1
 258 910 l 1,33,-1
 114 910 l 1,0,-1
EndSplineSet
EndChar

StartChar: uni01BF
Encoding: 447 447 385
Width: 1080
GlyphClass: 2
Flags: W
LayerCount: 2
Fore
SplineSet
-26 -454 m 1,0,-1
 226 1062 l 1,1,-1
 394 1062 l 1,2,-1
 380 972 l 1,3,4
 530 1096 530 1096 696 1096 c 0,5,6
 886 1096 886 1096 973 979 c 128,-1,7
 1060 862 1060 862 1026 666 c 0,8,9
 934 108 934 108 222 2 c 1,10,-1
 146 -454 l 1,11,-1
 -26 -454 l 1,0,-1
246 150 m 1,12,13
 490 184 490 184 654 310 c 128,-1,14
 818 436 818 436 852 646 c 0,15,16
 876 796 876 796 818 870 c 128,-1,17
 760 944 760 944 648 944 c 0,18,19
 568 944 568 944 487 900 c 128,-1,20
 406 856 406 856 352 798 c 1,21,-1
 246 150 l 1,12,13
EndSplineSet
EndChar

StartChar: uni01C0
Encoding: 448 448 386
Width: 450
GlyphClass: 2
Flags: W
LayerCount: 2
Fore
SplineSet
-18 -420 m 1,0,-1
 322 1634 l 1,1,-1
 482 1634 l 1,2,-1
 142 -420 l 1,3,-1
 -18 -420 l 1,0,-1
EndSplineSet
EndChar

StartChar: uni01C1
Encoding: 449 449 387
Width: 792
GlyphClass: 2
Flags: W
LayerCount: 2
Fore
SplineSet
-18 -420 m 1,0,-1
 322 1634 l 1,1,-1
 482 1634 l 1,2,-1
 142 -420 l 1,3,-1
 -18 -420 l 1,0,-1
326 -420 m 1,4,-1
 666 1634 l 1,5,-1
 828 1634 l 1,6,-1
 488 -420 l 1,7,-1
 326 -420 l 1,4,-1
EndSplineSet
EndChar

StartChar: uni01C2
Encoding: 450 450 388
Width: 636
GlyphClass: 2
Flags: W
LayerCount: 2
Fore
SplineSet
78 836 m 1,0,-1
 98 964 l 1,1,-1
 306 964 l 1,2,-1
 418 1634 l 1,3,-1
 580 1634 l 1,4,-1
 468 964 l 1,5,-1
 670 964 l 1,6,-1
 650 836 l 1,7,-1
 448 836 l 1,8,-1
 398 532 l 1,9,-1
 600 532 l 1,10,-1
 578 404 l 1,11,-1
 376 404 l 1,12,-1
 240 -420 l 1,13,-1
 76 -420 l 1,14,-1
 214 404 l 1,15,-1
 6 404 l 1,16,-1
 26 532 l 1,17,-1
 234 532 l 1,18,-1
 284 836 l 1,19,-1
 78 836 l 1,0,-1
EndSplineSet
EndChar

StartChar: uni01DD
Encoding: 477 477 415
Width: 1044
GlyphClass: 2
Flags: W
LayerCount: 2
Fore
SplineSet
60 506 m 0,0,1
 70 564 70 564 74 592 c 1,2,-1
 806 592 l 1,3,4
 830 736 830 736 768 841 c 128,-1,5
 706 946 706 946 566 946 c 0,6,7
 472 946 472 946 394 898 c 128,-1,8
 316 850 316 850 268 776 c 1,9,-1
 134 826 l 1,10,11
 202 942 202 942 318 1019 c 128,-1,12
 434 1096 434 1096 596 1096 c 0,13,14
 808 1096 808 1096 908 937 c 128,-1,15
 1008 778 1008 778 966 522 c 0,16,17
 924 270 924 270 770 118 c 128,-1,18
 616 -34 616 -34 416 -34 c 256,19,20
 216 -34 216 -34 118 117 c 128,-1,21
 20 268 20 268 60 506 c 0,0,1
222 458 m 1,22,23
 198 314 198 314 255 214 c 128,-1,24
 312 114 312 114 440 114 c 0,25,26
 564 114 564 114 658 214 c 128,-1,27
 752 314 752 314 784 458 c 1,28,-1
 222 458 l 1,22,23
EndSplineSet
EndChar

StartChar: uni01E4
Encoding: 484 484 422
Width: 1406
GlyphClass: 2
Flags: W
LayerCount: 2
Fore
SplineSet
114 734 m 0,0,1
 170 1070 170 1070 373 1287 c 128,-1,2
 576 1504 576 1504 878 1504 c 0,3,4
 1064 1504 1064 1504 1173 1403 c 128,-1,5
 1282 1302 1282 1302 1318 1180 c 1,6,-1
 1150 1126 l 1,7,8
 1128 1172 1128 1172 1112 1198 c 128,-1,9
 1096 1224 1096 1224 1060 1264 c 128,-1,10
 1024 1304 1024 1304 972 1324 c 128,-1,11
 920 1344 920 1344 852 1344 c 0,12,13
 642 1344 642 1344 496 1178 c 128,-1,14
 350 1012 350 1012 304 734 c 0,15,16
 258 454 258 454 349 291 c 128,-1,17
 440 128 440 128 638 128 c 0,18,19
 758 128 758 128 856 187 c 128,-1,20
 954 246 954 246 1012 354 c 1,21,-1
 636 354 l 1,22,-1
 656 478 l 1,23,-1
 1068 478 l 1,24,25
 1080 518 1080 518 1086 554 c 2,26,-1
 1102 646 l 1,27,-1
 710 646 l 1,28,-1
 736 802 l 1,29,-1
 1304 802 l 1,30,-1
 1250 478 l 1,31,-1
 1380 478 l 1,32,-1
 1360 354 l 1,33,-1
 1230 354 l 1,34,-1
 1172 0 l 1,35,-1
 1040 0 l 1,36,-1
 1056 192 l 1,37,38
 902 -34 902 -34 612 -34 c 0,39,40
 334 -34 334 -34 195 173 c 128,-1,41
 56 380 56 380 114 734 c 0,0,1
EndSplineSet
EndChar

StartChar: uni01E5
Encoding: 485 485 423
Width: 1084
GlyphClass: 2
Flags: W
LayerCount: 2
Fore
SplineSet
72 566 m 0,0,1
 110 800 110 800 252 948 c 128,-1,2
 394 1096 394 1096 578 1096 c 0,3,4
 686 1096 686 1096 747 1037 c 128,-1,5
 808 978 808 978 824 906 c 1,6,-1
 850 1062 l 1,7,-1
 1018 1062 l 1,8,-1
 868 160 l 2,9,10
 848 44 848 44 824 -42 c 1,11,-1
 962 -42 l 1,12,-1
 944 -156 l 1,13,-1
 784 -156 l 1,14,15
 716 -306 716 -306 607 -384 c 128,-1,16
 498 -462 498 -462 332 -462 c 0,17,18
 88 -462 88 -462 -18 -264 c 1,19,-1
 110 -182 l 1,20,21
 190 -314 190 -314 360 -314 c 0,22,23
 516 -314 516 -314 606 -156 c 1,24,-1
 260 -156 l 1,25,-1
 280 -42 l 1,26,-1
 656 -42 l 1,27,28
 680 30 680 30 694 120 c 2,29,-1
 714 242 l 1,30,31
 666 164 666 164 583 113 c 128,-1,32
 500 62 500 62 406 62 c 0,33,34
 224 62 224 62 129 199 c 128,-1,35
 34 336 34 336 72 566 c 0,0,1
246 566 m 0,36,37
 218 398 218 398 278 306 c 128,-1,38
 338 214 338 214 446 214 c 0,39,40
 560 214 560 214 650 313 c 128,-1,41
 740 412 740 412 768 582 c 0,42,43
 796 746 796 746 739 845 c 128,-1,44
 682 944 682 944 572 944 c 0,45,46
 452 944 452 944 363 837 c 128,-1,47
 274 730 274 730 246 566 c 0,36,37
EndSplineSet
EndChar

StartChar: uni01EF
Encoding: 495 495 433
Width: 1052
GlyphClass: 2
Flags: W
LayerCount: 2
Fore
SplineSet
310 1574 m 1,0,-1
 482 1574 l 1,1,-1
 642 1354 l 1,2,-1
 878 1574 l 1,3,-1
 1046 1574 l 1,4,-1
 700 1254 l 1,5,-1
 548 1254 l 1,6,-1
 310 1574 l 1,0,-1
-44 -132 m 1,7,-1
 114 -88 l 1,8,9
 138 -186 138 -186 200 -247 c 128,-1,10
 262 -308 262 -308 362 -308 c 0,11,12
 494 -308 494 -308 589 -214 c 128,-1,13
 684 -120 684 -120 710 30 c 0,14,15
 734 174 734 174 657 264 c 128,-1,16
 580 354 580 354 412 354 c 2,17,-1
 246 354 l 1,18,-1
 266 478 l 1,19,-1
 724 910 l 1,20,-1
 186 910 l 1,21,-1
 212 1062 l 1,22,-1
 998 1062 l 1,23,-1
 980 948 l 1,24,-1
 484 488 l 1,25,-1
 568 482 l 1,26,27
 734 454 734 454 823 332 c 128,-1,28
 912 210 912 210 882 30 c 0,29,30
 846 -186 846 -186 697 -324 c 128,-1,31
 548 -462 548 -462 342 -462 c 0,32,33
 176 -462 176 -462 78 -371 c 128,-1,34
 -20 -280 -20 -280 -44 -132 c 1,7,-1
EndSplineSet
EndChar

StartChar: uni01F6
Encoding: 502 502 440
Width: 1958
GlyphClass: 2
Flags: W
LayerCount: 2
Fore
SplineSet
78 0 m 1,0,-1
 322 1470 l 1,1,-1
 506 1470 l 1,2,-1
 402 836 l 1,3,-1
 1040 836 l 1,4,-1
 1146 1470 l 1,5,-1
 1334 1470 l 1,6,-1
 1156 392 l 2,7,8
 1132 252 1132 252 1188 185 c 128,-1,9
 1244 118 1244 118 1350 118 c 0,10,11
 1448 118 1448 118 1527 188 c 128,-1,12
 1606 258 1606 258 1624 376 c 2,13,-1
 1738 1062 l 1,14,-1
 1918 1062 l 1,15,-1
 1802 354 l 2,16,17
 1770 166 1770 166 1634 66 c 128,-1,18
 1498 -34 1498 -34 1324 -34 c 0,19,20
 1208 -34 1208 -34 1123 0 c 128,-1,21
 1038 34 1038 34 988 125 c 128,-1,22
 938 216 938 216 960 354 c 2,23,-1
 1014 676 l 1,24,-1
 376 676 l 1,25,-1
 264 0 l 1,26,-1
 78 0 l 1,0,-1
EndSplineSet
EndChar

StartChar: uni01F7
Encoding: 503 503 441
Width: 1244
GlyphClass: 2
Flags: W
LayerCount: 2
Fore
SplineSet
6 -438 m 1,0,-1
 322 1470 l 1,1,-1
 506 1470 l 1,2,-1
 482 1320 l 1,3,4
 700 1504 700 1504 900 1504 c 0,5,6
 1106 1504 1106 1504 1190 1367 c 128,-1,7
 1274 1230 1274 1230 1234 986 c 0,8,9
 1210 838 1210 838 1133 700 c 128,-1,10
 1056 562 1056 562 956 459 c 128,-1,11
 856 356 856 356 729 264 c 128,-1,12
 602 172 602 172 491 112 c 128,-1,13
 380 52 380 52 264 4 c 1,14,-1
 190 -438 l 1,15,-1
 6 -438 l 1,0,-1
294 182 m 1,16,17
 380 222 380 222 464 272 c 128,-1,18
 548 322 548 322 649 399 c 128,-1,19
 750 476 750 476 827 560 c 128,-1,20
 904 644 904 644 966 754 c 128,-1,21
 1028 864 1028 864 1046 978 c 0,22,23
 1074 1150 1074 1150 1022 1248 c 128,-1,24
 970 1346 970 1346 836 1346 c 0,25,26
 744 1346 744 1346 635 1281 c 128,-1,27
 526 1216 526 1216 450 1130 c 1,28,-1
 294 182 l 1,16,17
EndSplineSet
EndChar

StartChar: Aringacute
Encoding: 506 506 444
Width: 1262
GlyphClass: 2
Flags: W
LayerCount: 2
Fore
SplineSet
-102 0 m 1,0,-1
 676 1470 l 1,1,-1
 890 1470 l 1,2,-1
 1176 0 l 1,3,-1
 978 0 l 1,4,-1
 910 402 l 1,5,-1
 302 402 l 1,6,-1
 96 0 l 1,7,-1
 -102 0 l 1,0,-1
552 1736 m 0,8,9
 570 1842 570 1842 660 1918 c 0,10,11
 722 1968 722 1968 794 1984 c 1,12,-1
 982 2226 l 1,13,-1
 1206 2226 l 1,14,-1
 952 1980 l 1,15,16
 1010 1962 1010 1962 1046 1916 c 0,17,18
 1110 1840 1110 1840 1094 1736 c 0,19,20
 1076 1628 1076 1628 986 1554 c 128,-1,21
 896 1480 896 1480 780 1480 c 0,22,23
 668 1480 668 1480 601 1554 c 128,-1,24
 534 1628 534 1628 552 1736 c 0,8,9
378 552 m 1,25,-1
 882 552 l 1,26,-1
 804 1010 l 2,27,28
 798 1044 798 1044 782 1146 c 128,-1,29
 766 1248 766 1248 760 1294 c 1,30,-1
 748 1294 l 1,31,32
 728 1252 728 1252 678 1152 c 128,-1,33
 628 1052 628 1052 608 1010 c 2,34,-1
 378 552 l 1,25,-1
678 1736 m 256,35,36
 668 1676 668 1676 702 1635 c 128,-1,37
 736 1594 736 1594 800 1594 c 256,38,39
 862 1594 862 1594 909 1633 c 128,-1,40
 956 1672 956 1672 966 1736 c 0,41,42
 976 1796 976 1796 944 1838 c 128,-1,43
 912 1880 912 1880 846 1880 c 256,44,45
 782 1880 782 1880 735 1838 c 128,-1,46
 688 1796 688 1796 678 1736 c 256,35,36
EndSplineSet
EndChar

StartChar: aringacute
Encoding: 507 507 445
Width: 1030
GlyphClass: 2
Flags: W
LayerCount: 2
Fore
SplineSet
22 266 m 0,0,1
 72 564 72 564 508 634 c 0,2,3
 698 664 698 664 758 684 c 1,4,-1
 768 744 l 2,5,6
 784 836 784 836 732 894 c 128,-1,7
 680 952 680 952 570 952 c 0,8,9
 482 952 482 952 394 909 c 128,-1,10
 306 866 306 866 240 794 c 1,11,-1
 148 890 l 1,12,13
 240 984 240 984 356 1040 c 128,-1,14
 472 1096 472 1096 590 1096 c 0,15,16
 996 1096 996 1096 926 672 c 2,17,-1
 814 0 l 1,18,-1
 652 0 l 1,19,-1
 678 160 l 1,20,21
 634 80 634 80 537 23 c 128,-1,22
 440 -34 440 -34 320 -34 c 0,23,24
 156 -34 156 -34 78 49 c 128,-1,25
 0 132 0 132 22 266 c 0,0,1
392 1452 m 0,26,27
 410 1558 410 1558 496 1634 c 0,28,29
 556 1684 556 1684 626 1700 c 1,30,-1
 810 1942 l 1,31,-1
 1026 1942 l 1,32,-1
 780 1696 l 1,33,34
 834 1678 834 1678 868 1632 c 0,35,36
 928 1556 928 1556 912 1452 c 0,37,38
 894 1344 894 1344 807 1270 c 128,-1,39
 720 1196 720 1196 610 1196 c 0,40,41
 502 1196 502 1196 438 1270 c 128,-1,42
 374 1344 374 1344 392 1452 c 0,26,27
192 282 m 0,43,44
 180 212 180 212 228 164 c 128,-1,45
 276 116 276 116 368 116 c 0,46,47
 492 116 492 116 592 201 c 128,-1,48
 692 286 692 286 714 418 c 2,49,-1
 736 550 l 1,50,51
 658 530 658 530 492 502 c 0,52,53
 220 456 220 456 192 282 c 0,43,44
512 1452 m 256,54,55
 502 1392 502 1392 535 1351 c 128,-1,56
 568 1310 568 1310 630 1310 c 256,57,58
 690 1310 690 1310 736 1350 c 128,-1,59
 782 1390 782 1390 792 1452 c 0,60,61
 802 1512 802 1512 770 1555 c 128,-1,62
 738 1598 738 1598 678 1598 c 0,63,64
 616 1598 616 1598 569 1555 c 128,-1,65
 522 1512 522 1512 512 1452 c 256,54,55
EndSplineSet
EndChar

StartChar: uni021C
Encoding: 540 540 478
Width: 1112
GlyphClass: 2
Flags: W
LayerCount: 2
Fore
SplineSet
-56 -250 m 1,0,1
 86 -282 86 -282 224 -282 c 0,2,3
 436 -282 436 -282 586 -166 c 128,-1,4
 736 -50 736 -50 770 148 c 0,5,6
 788 258 788 258 769 340 c 128,-1,7
 750 422 750 422 703 464 c 128,-1,8
 656 506 656 506 601 526 c 128,-1,9
 546 546 546 546 482 546 c 0,10,11
 394 546 394 546 270 500 c 1,12,-1
 298 664 l 1,13,-1
 500 710 l 2,14,15
 660 750 660 750 766 844 c 128,-1,16
 872 938 872 938 894 1070 c 0,17,18
 914 1194 914 1194 849 1268 c 128,-1,19
 784 1342 784 1342 644 1342 c 0,20,21
 456 1342 456 1342 328 1152 c 1,22,-1
 192 1222 l 1,23,24
 268 1348 268 1348 394 1426 c 128,-1,25
 520 1504 520 1504 670 1504 c 0,26,27
 910 1504 910 1504 1015 1391 c 128,-1,28
 1120 1278 1120 1278 1090 1088 c 0,29,30
 1062 920 1062 920 951 805 c 128,-1,31
 840 690 840 690 710 642 c 1,32,-1
 710 640 l 1,33,34
 838 604 838 604 916 480 c 128,-1,35
 994 356 994 356 958 146 c 0,36,37
 912 -126 912 -126 703 -286 c 128,-1,38
 494 -446 494 -446 198 -446 c 0,39,40
 58 -446 58 -446 -84 -420 c 1,41,-1
 -56 -250 l 1,0,1
EndSplineSet
EndChar

StartChar: uni021D
Encoding: 541 541 479
Width: 846
GlyphClass: 2
Flags: W
LayerCount: 2
Fore
SplineSet
-68 -286 m 1,0,1
 30 -308 30 -308 134 -308 c 0,2,3
 274 -308 274 -308 375 -224 c 128,-1,4
 476 -140 476 -140 502 14 c 0,5,6
 524 152 524 152 467 231 c 128,-1,7
 410 310 410 310 316 310 c 0,8,9
 256 310 256 310 174 284 c 1,10,-1
 198 434 l 1,11,-1
 336 464 l 2,12,13
 448 492 448 492 519 568 c 128,-1,14
 590 644 590 644 606 738 c 0,15,16
 620 828 620 828 585 886 c 128,-1,17
 550 944 550 944 460 944 c 0,18,19
 332 944 332 944 250 804 c 1,20,-1
 128 864 l 1,21,22
 178 966 178 966 275 1031 c 128,-1,23
 372 1096 372 1096 494 1096 c 0,24,25
 656 1096 656 1096 729 996 c 128,-1,26
 802 896 802 896 780 762 c 0,27,28
 738 506 738 506 504 400 c 1,29,30
 590 370 590 370 645 271 c 128,-1,31
 700 172 700 172 676 20 c 0,32,33
 638 -210 638 -210 488 -335 c 128,-1,34
 338 -460 338 -460 112 -460 c 0,35,36
 28 -460 28 -460 -94 -444 c 1,37,-1
 -68 -286 l 1,0,1
EndSplineSet
EndChar

StartChar: uni0220
Encoding: 544 544 482
Width: 1366
GlyphClass: 2
Flags: W
LayerCount: 2
Fore
SplineSet
78 0 m 1,0,-1
 322 1470 l 1,1,-1
 498 1470 l 1,2,-1
 470 1292 l 1,3,-1
 472 1292 l 1,4,5
 512 1338 512 1338 564 1379 c 128,-1,6
 616 1420 616 1420 718 1462 c 128,-1,7
 820 1504 820 1504 926 1504 c 0,8,9
 1354 1504 1354 1504 1268 990 c 2,10,-1
 1028 -454 l 1,11,-1
 844 -454 l 1,12,-1
 1080 972 l 2,13,14
 1112 1160 1112 1160 1060 1252 c 128,-1,15
 1008 1344 1008 1344 856 1344 c 0,16,17
 718 1344 718 1344 582 1224 c 128,-1,18
 446 1104 446 1104 422 962 c 2,19,-1
 264 0 l 1,20,-1
 78 0 l 1,0,-1
EndSplineSet
EndChar

StartChar: uni0221
Encoding: 545 545 483
Width: 1418
GlyphClass: 2
Flags: W
LayerCount: 2
Fore
SplineSet
852 -200 m 1,0,1
 858 -252 858 -252 899 -286 c 128,-1,2
 940 -320 940 -320 1002 -320 c 0,3,4
 1054 -320 1054 -320 1088 -293 c 128,-1,5
 1122 -266 1122 -266 1130 -220 c 256,6,7
 1138 -174 1138 -174 1111 -142 c 128,-1,8
 1084 -110 1084 -110 1032 -110 c 0,9,10
 936 -110 936 -110 852 -200 c 1,0,1
66 532 m 0,11,12
 110 794 110 794 255 945 c 128,-1,13
 400 1096 400 1096 584 1096 c 0,14,15
 688 1096 688 1096 754 1037 c 128,-1,16
 820 978 820 978 838 900 c 1,17,-1
 942 1524 l 1,18,-1
 1112 1524 l 1,19,-1
 874 78 l 2,20,21
 856 -26 856 -26 858 -42 c 1,22,23
 946 34 946 34 1062 34 c 0,24,25
 1186 34 1186 34 1244 -38 c 128,-1,26
 1302 -110 1302 -110 1286 -214 c 0,27,28
 1268 -324 1268 -324 1183 -393 c 128,-1,29
 1098 -462 1098 -462 980 -462 c 0,30,31
 828 -462 828 -462 758 -334 c 1,32,33
 718 -388 718 -388 684 -454 c 1,34,-1
 552 -406 l 1,35,36
 622 -272 622 -272 688 -194 c 1,37,38
 672 -130 672 -130 698 26 c 2,39,-1
 722 172 l 1,40,41
 676 88 676 88 589 27 c 128,-1,42
 502 -34 502 -34 396 -34 c 0,43,44
 320 -34 320 -34 252 -3 c 128,-1,45
 184 28 184 28 132 93 c 128,-1,46
 80 158 80 158 61 272 c 128,-1,47
 42 386 42 386 66 532 c 0,11,12
240 532 m 0,48,49
 208 342 208 342 266 230 c 128,-1,50
 324 118 324 118 444 118 c 0,51,52
 556 118 556 118 653 230 c 128,-1,53
 750 342 750 342 782 532 c 0,54,55
 812 718 812 718 754 831 c 128,-1,56
 696 944 696 944 582 944 c 0,57,58
 456 944 456 944 364 832 c 128,-1,59
 272 720 272 720 240 532 c 0,48,49
EndSplineSet
EndChar

StartChar: uni0222
Encoding: 546 546 484
Width: 1342
GlyphClass: 2
Flags: W
LayerCount: 2
Fore
SplineSet
60 478 m 0,0,1
 84 624 84 624 188 745 c 128,-1,2
 292 866 292 866 442 932 c 1,3,4
 208 1036 208 1036 254 1308 c 0,5,6
 270 1402 270 1402 304 1470 c 1,7,-1
 482 1470 l 1,8,9
 460 1396 460 1396 448 1320 c 0,10,11
 426 1190 426 1190 505 1096 c 128,-1,12
 584 1002 584 1002 744 1002 c 0,13,14
 896 1002 896 1002 1010 1094 c 128,-1,15
 1124 1186 1124 1186 1146 1320 c 0,16,17
 1154 1368 1154 1368 1156 1470 c 1,18,-1
 1338 1470 l 1,19,20
 1348 1406 1348 1406 1332 1308 c 0,21,22
 1286 1032 1286 1032 1016 932 c 1,23,24
 1150 872 1150 872 1213 749 c 128,-1,25
 1276 626 1276 626 1252 478 c 0,26,27
 1236 384 1236 384 1187 295 c 128,-1,28
 1138 206 1138 206 1056 131 c 128,-1,29
 974 56 974 56 849 11 c 128,-1,30
 724 -34 724 -34 572 -34 c 0,31,32
 424 -34 424 -34 312 11 c 128,-1,33
 200 56 200 56 144 131 c 128,-1,34
 88 206 88 206 66 295 c 128,-1,35
 44 384 44 384 60 478 c 0,0,1
252 478 m 0,36,37
 226 320 226 320 322 223 c 128,-1,38
 418 126 418 126 600 126 c 0,39,40
 774 126 774 126 904 222 c 128,-1,41
 1034 318 1034 318 1062 478 c 0,42,43
 1088 632 1088 632 988 736 c 128,-1,44
 888 840 888 840 718 840 c 256,45,46
 548 840 548 840 413 739 c 128,-1,47
 278 638 278 638 252 478 c 0,36,37
EndSplineSet
EndChar

StartChar: uni0223
Encoding: 547 547 485
Width: 1046
GlyphClass: 2
Flags: W
LayerCount: 2
Fore
SplineSet
58 486 m 0,0,1
 86 658 86 658 181 784 c 128,-1,2
 276 910 276 910 394 956 c 1,3,4
 196 1048 196 1048 242 1332 c 0,5,6
 258 1430 258 1430 288 1498 c 1,7,-1
 456 1498 l 1,8,9
 424 1394 424 1394 416 1342 c 0,10,11
 394 1208 394 1208 437 1116 c 128,-1,12
 480 1024 480 1024 598 1024 c 0,13,14
 710 1024 710 1024 788 1115 c 128,-1,15
 866 1206 866 1206 888 1342 c 0,16,17
 896 1394 896 1394 898 1498 c 1,18,-1
 1064 1498 l 1,19,20
 1072 1432 1072 1432 1056 1332 c 0,21,22
 1032 1184 1032 1184 959 1089 c 128,-1,23
 886 994 886 994 780 956 c 1,24,25
 884 914 884 914 937 786 c 128,-1,26
 990 658 990 658 962 486 c 0,27,28
 940 350 940 350 877 237 c 128,-1,29
 814 124 814 124 695 45 c 128,-1,30
 576 -34 576 -34 424 -34 c 0,31,32
 202 -34 202 -34 112 118 c 128,-1,33
 22 270 22 270 58 486 c 0,0,1
232 486 m 0,34,35
 206 324 206 324 266 222 c 128,-1,36
 326 120 326 120 448 120 c 0,37,38
 574 120 574 120 668 219 c 128,-1,39
 762 318 762 318 790 486 c 0,40,41
 818 650 818 650 756 759 c 128,-1,42
 694 868 694 868 572 868 c 0,43,44
 456 868 456 868 358 761 c 128,-1,45
 260 654 260 654 232 486 c 0,34,35
EndSplineSet
EndChar

StartChar: uni0224
Encoding: 548 548 486
Width: 1184
GlyphClass: 2
Flags: W
LayerCount: 2
Fore
SplineSet
-22 0 m 1,0,-1
 2 136 l 1,1,-1
 988 1310 l 1,2,-1
 258 1310 l 1,3,-1
 284 1470 l 1,4,-1
 1240 1470 l 1,5,-1
 1216 1330 l 1,6,-1
 230 158 l 1,7,-1
 814 158 l 2,8,9
 980 158 980 158 1045 71 c 128,-1,10
 1110 -16 1110 -16 1080 -196 c 0,11,12
 1058 -326 1058 -326 984 -454 c 1,13,-1
 818 -454 l 1,14,15
 894 -328 894 -328 912 -218 c 0,16,17
 948 0 948 0 738 0 c 2,18,-1
 -22 0 l 1,0,-1
EndSplineSet
EndChar

StartChar: uni0225
Encoding: 549 549 487
Width: 908
GlyphClass: 2
Flags: W
LayerCount: 2
Fore
SplineSet
-42 0 m 1,0,-1
 -22 122 l 1,1,-1
 676 916 l 1,2,-1
 158 916 l 1,3,-1
 184 1068 l 1,4,-1
 922 1068 l 1,5,-1
 904 954 l 1,6,-1
 202 152 l 1,7,-1
 636 152 l 2,8,9
 782 152 782 152 841 69 c 128,-1,10
 900 -14 900 -14 870 -190 c 0,11,12
 842 -356 842 -356 788 -454 c 1,13,-1
 638 -454 l 1,14,15
 692 -352 692 -352 714 -220 c 0,16,17
 732 -108 732 -108 701 -54 c 128,-1,18
 670 0 670 0 570 0 c 2,19,-1
 -42 0 l 1,0,-1
EndSplineSet
EndChar

StartChar: uni0234
Encoding: 564 564 502
Width: 770
GlyphClass: 2
Flags: W
LayerCount: 2
Fore
SplineSet
220 -198 m 1,0,1
 226 -250 226 -250 267 -285 c 128,-1,2
 308 -320 308 -320 366 -320 c 0,3,4
 418 -320 418 -320 453 -292 c 128,-1,5
 488 -264 488 -264 496 -220 c 0,6,7
 504 -172 504 -172 477 -141 c 128,-1,8
 450 -110 450 -110 400 -110 c 0,9,10
 302 -110 302 -110 220 -198 c 1,0,1
-82 -406 m 1,11,12
 0 -252 0 -252 50 -194 c 1,13,14
 34 -126 34 -126 64 42 c 2,15,-1
 308 1524 l 1,16,-1
 478 1524 l 1,17,-1
 238 80 l 2,18,19
 222 -16 222 -16 222 -44 c 1,20,21
 310 34 310 34 426 34 c 0,22,23
 550 34 550 34 610 -38 c 128,-1,24
 670 -110 670 -110 652 -214 c 0,25,26
 634 -324 634 -324 550 -393 c 128,-1,27
 466 -462 466 -462 346 -462 c 0,28,29
 194 -462 194 -462 124 -334 c 1,30,31
 76 -400 76 -400 50 -454 c 1,32,-1
 -82 -406 l 1,11,12
EndSplineSet
EndChar

StartChar: uni0235
Encoding: 565 565 503
Width: 1382
GlyphClass: 2
Flags: W
LayerCount: 2
Fore
SplineSet
830 -198 m 1,0,1
 834 -250 834 -250 876 -285 c 128,-1,2
 918 -320 918 -320 976 -320 c 0,3,4
 1030 -320 1030 -320 1065 -292 c 128,-1,5
 1100 -264 1100 -264 1106 -220 c 256,6,7
 1114 -176 1114 -176 1088 -143 c 128,-1,8
 1062 -110 1062 -110 1006 -110 c 0,9,10
 912 -110 912 -110 830 -198 c 1,0,1
38 0 m 1,11,-1
 214 1062 l 1,12,-1
 380 1062 l 1,13,-1
 352 896 l 1,14,-1
 354 896 l 1,15,16
 390 964 390 964 481 1030 c 128,-1,17
 572 1096 572 1096 692 1096 c 0,18,19
 834 1096 834 1096 910 1001 c 128,-1,20
 986 906 986 906 948 684 c 2,21,-1
 848 78 l 2,22,23
 830 -26 830 -26 832 -42 c 1,24,25
 918 34 918 34 1036 34 c 0,26,27
 1160 34 1160 34 1221 -37 c 128,-1,28
 1282 -108 1282 -108 1264 -214 c 0,29,30
 1246 -324 1246 -324 1160 -393 c 128,-1,31
 1074 -462 1074 -462 954 -462 c 0,32,33
 804 -462 804 -462 734 -334 c 1,34,35
 680 -412 680 -412 658 -454 c 1,36,-1
 526 -406 l 1,37,38
 586 -286 586 -286 662 -194 c 1,39,40
 646 -124 646 -124 674 50 c 2,41,-1
 774 658 l 2,42,43
 822 944 822 944 630 944 c 0,44,45
 524 944 524 944 430 851 c 128,-1,46
 336 758 336 758 314 628 c 2,47,-1
 210 0 l 1,48,-1
 38 0 l 1,11,-1
EndSplineSet
EndChar

StartChar: uni0236
Encoding: 566 566 504
Width: 824
GlyphClass: 2
Flags: W
LayerCount: 2
Fore
SplineSet
272 -198 m 1,0,1
 278 -248 278 -248 319 -284 c 128,-1,2
 360 -320 360 -320 418 -320 c 0,3,4
 474 -320 474 -320 508 -291 c 128,-1,5
 542 -262 542 -262 548 -220 c 0,6,7
 556 -176 556 -176 532 -143 c 128,-1,8
 508 -110 508 -110 452 -110 c 0,9,10
 354 -110 354 -110 272 -198 c 1,0,1
90 910 m 1,11,-1
 114 1062 l 1,12,-1
 286 1062 l 1,13,-1
 340 1392 l 1,14,-1
 508 1392 l 1,15,-1
 452 1062 l 1,16,-1
 708 1062 l 1,17,-1
 682 910 l 1,18,-1
 428 910 l 1,19,-1
 290 74 l 2,20,21
 274 -26 274 -26 274 -42 c 1,22,23
 360 34 360 34 480 34 c 0,24,25
 604 34 604 34 663 -38 c 128,-1,26
 722 -110 722 -110 706 -214 c 0,27,28
 688 -324 688 -324 602 -393 c 128,-1,29
 516 -462 516 -462 398 -462 c 0,30,31
 248 -462 248 -462 176 -334 c 1,32,33
 120 -410 120 -410 102 -454 c 1,34,-1
 -30 -406 l 1,35,36
 54 -248 54 -248 104 -194 c 1,37,38
 88 -126 88 -126 118 52 c 2,39,-1
 260 910 l 1,40,-1
 90 910 l 1,11,-1
EndSplineSet
EndChar

StartChar: uni0237
Encoding: 567 567 505
Width: 504
GlyphClass: 2
Flags: W
LayerCount: 2
Fore
SplineSet
-164 -296 m 1,0,-1
 -124 -296 l 2,1,2
 32 -296 32 -296 70 -66 c 2,3,-1
 258 1062 l 1,4,-1
 428 1062 l 1,5,-1
 240 -76 l 2,6,7
 210 -260 210 -260 116 -354 c 128,-1,8
 22 -448 22 -448 -122 -448 c 2,9,-1
 -190 -448 l 1,10,-1
 -164 -296 l 1,0,-1
EndSplineSet
EndChar

StartChar: uni0238
Encoding: 568 568 506
Width: 1736
GlyphClass: 2
Flags: W
LayerCount: 2
Fore
SplineSet
66 532 m 0,0,1
 110 796 110 796 256 946 c 128,-1,2
 402 1096 402 1096 584 1096 c 0,3,4
 688 1096 688 1096 754 1037 c 128,-1,5
 820 978 820 978 838 900 c 1,6,-1
 942 1524 l 1,7,-1
 1112 1524 l 1,8,-1
 1010 898 l 1,9,10
 1052 972 1052 972 1139 1034 c 128,-1,11
 1226 1096 1226 1096 1330 1096 c 0,12,13
 1516 1096 1516 1096 1609 946 c 128,-1,14
 1702 796 1702 796 1658 532 c 0,15,16
 1634 384 1634 384 1577 270 c 128,-1,17
 1520 156 1520 156 1447 92 c 128,-1,18
 1374 28 1374 28 1296 -3 c 128,-1,19
 1218 -34 1218 -34 1144 -34 c 0,20,21
 1040 -34 1040 -34 973 26 c 128,-1,22
 906 86 906 86 886 170 c 1,23,-1
 858 0 l 1,24,-1
 694 0 l 1,25,-1
 722 172 l 1,26,27
 672 82 672 82 584 24 c 128,-1,28
 496 -34 496 -34 396 -34 c 0,29,30
 320 -34 320 -34 254 -4 c 128,-1,31
 188 26 188 26 135 89 c 128,-1,32
 82 152 82 152 62 267 c 128,-1,33
 42 382 42 382 66 532 c 0,0,1
240 532 m 0,34,35
 208 338 208 338 266 228 c 128,-1,36
 324 118 324 118 444 118 c 0,37,38
 562 118 562 118 656 230 c 128,-1,39
 750 342 750 342 780 520 c 2,40,-1
 782 534 l 2,41,42
 812 710 812 710 754 827 c 128,-1,43
 696 944 696 944 580 944 c 0,44,45
 458 944 458 944 365 834 c 128,-1,46
 272 724 272 724 240 532 c 0,34,35
942 518 m 2,47,48
 914 346 914 346 970 232 c 128,-1,49
 1026 118 1026 118 1144 118 c 0,50,51
 1266 118 1266 118 1360 227 c 128,-1,52
 1454 336 1454 336 1486 532 c 0,53,54
 1518 720 1518 720 1461 832 c 128,-1,55
 1404 944 1404 944 1282 944 c 0,56,57
 1164 944 1164 944 1069 827 c 128,-1,58
 974 710 974 710 946 534 c 2,59,-1
 942 518 l 2,47,48
EndSplineSet
EndChar

StartChar: uni0239
Encoding: 569 569 507
Width: 1740
GlyphClass: 2
Flags: W
LayerCount: 2
Fore
SplineSet
66 532 m 0,0,1
 108 790 108 790 254 943 c 128,-1,2
 400 1096 400 1096 584 1096 c 0,3,4
 680 1096 680 1096 746 1041 c 128,-1,5
 812 986 812 986 840 892 c 1,6,-1
 870 1062 l 1,7,-1
 1036 1062 l 1,8,-1
 1008 894 l 1,9,10
 1062 980 1062 980 1151 1038 c 128,-1,11
 1240 1096 1240 1096 1340 1096 c 0,12,13
 1524 1096 1524 1096 1614 943 c 128,-1,14
 1704 790 1704 790 1662 532 c 0,15,16
 1616 254 1616 254 1469 110 c 128,-1,17
 1322 -34 1322 -34 1150 -34 c 0,18,19
 1044 -34 1044 -34 975 25 c 128,-1,20
 906 84 906 84 888 168 c 1,21,-1
 786 -454 l 1,22,-1
 614 -454 l 1,23,-1
 718 166 l 1,24,25
 668 80 668 80 582 23 c 128,-1,26
 496 -34 496 -34 396 -34 c 0,27,28
 224 -34 224 -34 122 110 c 128,-1,29
 20 254 20 254 66 532 c 0,0,1
238 532 m 0,30,31
 206 340 206 340 265 229 c 128,-1,32
 324 118 324 118 444 118 c 256,33,34
 564 118 564 118 656 230 c 128,-1,35
 748 342 748 342 780 532 c 2,36,-1
 782 544 l 2,37,38
 810 718 810 718 755 831 c 128,-1,39
 700 944 700 944 582 944 c 0,40,41
 450 944 450 944 359 828 c 128,-1,42
 268 712 268 712 238 532 c 0,30,31
948 532 m 2,43,44
 916 342 916 342 974 230 c 128,-1,45
 1032 118 1032 118 1154 118 c 0,46,47
 1274 118 1274 118 1366 229 c 128,-1,48
 1458 340 1458 340 1490 532 c 0,49,50
 1520 714 1520 714 1469 829 c 128,-1,51
 1418 944 1418 944 1290 944 c 0,52,53
 1176 944 1176 944 1078 832 c 128,-1,54
 980 720 980 720 952 546 c 2,55,-1
 948 532 l 2,43,44
EndSplineSet
EndChar

StartChar: uni023A
Encoding: 570 570 508
Width: 1262
GlyphClass: 2
Flags: W
LayerCount: 2
Fore
SplineSet
-102 0 m 1,0,-1
 676 1470 l 1,1,-1
 890 1470 l 1,2,-1
 948 1168 l 1,3,-1
 1246 1548 l 1,4,-1
 1386 1548 l 1,5,-1
 978 1024 l 1,6,-1
 1176 0 l 1,7,-1
 978 0 l 1,8,-1
 910 402 l 1,9,-1
 490 402 l 1,10,-1
 32 -184 l 1,11,-1
 -108 -184 l 1,12,-1
 36 0 l 1,13,-1
 -102 0 l 1,0,-1
378 554 m 1,14,-1
 468 554 l 1,15,-1
 810 988 l 1,16,-1
 804 1010 l 2,17,18
 790 1086 790 1086 760 1294 c 1,19,-1
 748 1294 l 1,20,21
 694 1180 694 1180 608 1010 c 2,22,-1
 378 554 l 1,14,-1
610 554 m 1,23,-1
 884 554 l 1,24,-1
 834 842 l 1,25,-1
 610 554 l 1,23,-1
304 402 m 1,26,-1
 218 232 l 1,27,-1
 350 402 l 1,28,-1
 304 402 l 1,26,-1
EndSplineSet
EndChar

StartChar: uni023B
Encoding: 571 571 509
Width: 1272
GlyphClass: 2
Flags: W
LayerCount: 2
Fore
SplineSet
114 734 m 0,0,1
 172 1088 172 1088 379 1296 c 128,-1,2
 586 1504 586 1504 864 1504 c 0,3,4
 972 1504 972 1504 1064 1460 c 1,5,-1
 1130 1584 l 1,6,-1
 1268 1584 l 1,7,-1
 1164 1392 l 1,8,9
 1254 1302 1254 1302 1292 1172 c 1,10,-1
 1126 1118 l 1,11,12
 1106 1172 1106 1172 1072 1218 c 1,13,-1
 500 154 l 1,14,15
 564 128 564 128 634 128 c 0,16,17
 760 128 760 128 864 201 c 128,-1,18
 968 274 968 274 1030 378 c 1,19,-1
 1188 324 l 1,20,21
 1150 260 1150 260 1098 202 c 128,-1,22
 1046 144 1046 144 975 88 c 128,-1,23
 904 32 904 32 809 -1 c 128,-1,24
 714 -34 714 -34 610 -34 c 0,25,26
 512 -34 512 -34 414 0 c 1,27,-1
 346 -132 l 1,28,-1
 210 -132 l 1,29,-1
 308 54 l 1,30,31
 178 146 178 146 126 321 c 128,-1,32
 74 496 74 496 114 734 c 0,0,1
398 222 m 1,33,-1
 982 1306 l 1,34,35
 918 1344 918 1344 836 1344 c 0,36,37
 636 1344 636 1344 492 1176 c 128,-1,38
 348 1008 348 1008 304 734 c 0,39,40
 244 382 244 382 398 222 c 1,33,-1
EndSplineSet
EndChar

StartChar: uni023C
Encoding: 572 572 510
Width: 956
GlyphClass: 2
Flags: W
LayerCount: 2
Fore
SplineSet
66 532 m 0,0,1
 106 776 106 776 254 936 c 128,-1,2
 402 1096 402 1096 618 1096 c 0,3,4
 692 1096 692 1096 748 1068 c 1,5,-1
 816 1200 l 1,6,-1
 936 1200 l 1,7,-1
 838 1006 l 1,8,9
 920 936 920 936 934 808 c 1,10,-1
 786 762 l 1,11,12
 768 818 768 818 758 844 c 1,13,-1
 394 126 l 1,14,15
 416 118 416 118 452 118 c 0,16,17
 544 118 544 118 615 177 c 128,-1,18
 686 236 686 236 730 312 c 1,19,-1
 868 266 l 1,20,21
 810 150 810 150 694 58 c 128,-1,22
 578 -34 578 -34 428 -34 c 0,23,24
 366 -34 366 -34 318 -22 c 1,25,-1
 266 -126 l 1,26,-1
 144 -126 l 1,27,-1
 218 22 l 1,28,29
 112 88 112 88 75 226 c 128,-1,30
 38 364 38 364 66 532 c 0,0,1
304 188 m 1,31,-1
 672 920 l 1,32,33
 640 942 640 942 588 942 c 0,34,35
 456 942 456 942 363 826 c 128,-1,36
 270 710 270 710 240 532 c 0,37,38
 198 288 198 288 304 188 c 1,31,-1
EndSplineSet
EndChar

StartChar: uni023D
Encoding: 573 573 511
Width: 1054
GlyphClass: 2
Flags: W
LayerCount: 2
Fore
SplineSet
54 760 m 1,0,-1
 78 906 l 1,1,-1
 240 906 l 1,2,-1
 334 1470 l 1,3,-1
 518 1470 l 1,4,-1
 424 906 l 1,5,-1
 806 906 l 1,6,-1
 782 760 l 1,7,-1
 400 760 l 1,8,-1
 300 158 l 1,9,-1
 976 158 l 1,10,-1
 950 0 l 1,11,-1
 90 0 l 1,12,-1
 216 760 l 1,13,-1
 54 760 l 1,0,-1
EndSplineSet
EndChar

StartChar: uni023E
Encoding: 574 574 512
Width: 1082
GlyphClass: 2
Flags: W
LayerCount: 2
Fore
SplineSet
756 1310 m 1,0,-1
 700 966 l 1,1,-1
 942 1310 l 1,2,-1
 756 1310 l 1,0,-1
144 1310 m 1,3,-1
 172 1470 l 1,4,-1
 1056 1470 l 1,5,-1
 1134 1584 l 1,6,-1
 1268 1584 l 1,7,-1
 1188 1470 l 1,8,-1
 1212 1470 l 1,9,-1
 1186 1310 l 1,10,-1
 1076 1310 l 1,11,-1
 658 720 l 1,12,-1
 540 0 l 1,13,-1
 356 0 l 1,14,-1
 418 378 l 1,15,-1
 92 -82 l 1,16,-1
 -38 -82 l 1,17,-1
 458 624 l 1,18,-1
 572 1310 l 1,19,-1
 144 1310 l 1,3,-1
EndSplineSet
EndChar

StartChar: uni023F
Encoding: 575 575 513
Width: 922
GlyphClass: 2
Flags: W
LayerCount: 2
Fore
SplineSet
0 214 m 1,0,-1
 134 290 l 1,1,2
 212 116 212 116 398 116 c 0,3,4
 500 116 500 116 568 157 c 128,-1,5
 636 198 636 198 648 270 c 0,6,7
 652 296 652 296 647 318 c 128,-1,8
 642 340 642 340 625 358 c 128,-1,9
 608 376 608 376 594 389 c 128,-1,10
 580 402 580 402 547 417 c 128,-1,11
 514 432 514 432 495 439 c 128,-1,12
 476 446 476 446 435 461 c 128,-1,13
 394 476 394 476 376 482 c 0,14,15
 246 532 246 532 177 601 c 128,-1,16
 108 670 108 670 128 794 c 0,17,18
 152 934 152 934 272 1015 c 128,-1,19
 392 1096 392 1096 556 1096 c 0,20,21
 684 1096 684 1096 775 1029 c 128,-1,22
 866 962 866 962 904 862 c 1,23,-1
 776 784 l 1,24,25
 702 946 702 946 534 946 c 0,26,27
 434 946 434 946 373 904 c 128,-1,28
 312 862 312 862 300 790 c 0,29,30
 288 712 288 712 348 667 c 128,-1,31
 408 622 408 622 516 590 c 0,32,33
 584 568 584 568 635 544 c 128,-1,34
 686 520 686 520 736 483 c 128,-1,35
 786 446 786 446 808 392 c 128,-1,36
 830 338 830 338 818 270 c 0,37,38
 796 140 796 140 678 53 c 128,-1,39
 560 -34 560 -34 372 -34 c 0,40,41
 254 -34 254 -34 184 8 c 1,42,43
 202 -172 202 -172 224 -228 c 0,44,45
 268 -332 268 -332 388 -332 c 0,46,47
 446 -332 446 -332 490 -324 c 1,48,-1
 470 -450 l 1,49,50
 380 -462 380 -462 360 -462 c 0,51,52
 284 -462 284 -462 228 -434 c 128,-1,53
 172 -406 172 -406 141 -368 c 128,-1,54
 110 -330 110 -330 91 -260 c 128,-1,55
 72 -190 72 -190 66 -141 c 128,-1,56
 60 -92 60 -92 54 -10 c 0,57,58
 46 140 46 140 0 214 c 1,0,-1
EndSplineSet
EndChar

StartChar: uni0240
Encoding: 576 576 514
Width: 908
GlyphClass: 2
Flags: W
LayerCount: 2
Fore
SplineSet
-42 0 m 1,0,-1
 -22 122 l 1,1,-1
 676 910 l 1,2,-1
 156 910 l 1,3,-1
 182 1062 l 1,4,-1
 922 1062 l 1,5,-1
 902 948 l 1,6,-1
 174 120 l 1,7,8
 242 108 242 108 293 59 c 128,-1,9
 344 10 344 10 377 -50 c 128,-1,10
 410 -110 410 -110 441 -170 c 128,-1,11
 472 -230 472 -230 515 -269 c 128,-1,12
 558 -308 558 -308 614 -308 c 0,13,14
 666 -308 666 -308 718 -298 c 1,15,-1
 694 -448 l 1,16,17
 632 -462 632 -462 578 -462 c 0,18,19
 498 -462 498 -462 438 -417 c 128,-1,20
 378 -372 378 -372 341 -305 c 128,-1,21
 304 -238 304 -238 268 -171 c 128,-1,22
 232 -104 232 -104 180 -55 c 128,-1,23
 128 -6 128 -6 62 0 c 2,24,-1
 -42 0 l 1,0,-1
EndSplineSet
EndChar

StartChar: uni0241
Encoding: 577 577 515
Width: 1096
GlyphClass: 2
Flags: W
LayerCount: 2
Fore
SplineSet
210 1170 m 1,0,1
 282 1322 282 1322 417 1413 c 128,-1,2
 552 1504 552 1504 710 1504 c 0,3,4
 894 1504 894 1504 992 1393 c 128,-1,5
 1090 1282 1090 1282 1060 1100 c 0,6,7
 1046 1010 1046 1010 998 938 c 128,-1,8
 950 866 950 866 891 814 c 128,-1,9
 832 762 832 762 773 713 c 128,-1,10
 714 664 714 664 669 598 c 128,-1,11
 624 532 624 532 610 450 c 2,12,-1
 536 0 l 1,13,-1
 352 0 l 1,14,-1
 428 464 l 2,15,16
 444 556 444 556 492 632 c 128,-1,17
 540 708 540 708 598 760 c 128,-1,18
 656 812 656 812 714 860 c 128,-1,19
 772 908 772 908 817 970 c 128,-1,20
 862 1032 862 1032 874 1106 c 0,21,22
 892 1214 892 1214 840 1280 c 128,-1,23
 788 1346 788 1346 686 1346 c 0,24,25
 588 1346 588 1346 505 1284 c 128,-1,26
 422 1222 422 1222 364 1118 c 1,27,-1
 210 1170 l 1,0,1
EndSplineSet
EndChar

StartChar: uni0250
Encoding: 592 592 516
Width: 1032
GlyphClass: 2
Flags: W
LayerCount: 2
Fore
SplineSet
286 512 m 1,0,1
 352 530 352 530 530 558 c 0,2,3
 800 604 800 604 830 780 c 0,4,5
 842 850 842 850 794 897 c 128,-1,6
 746 944 746 944 654 944 c 0,7,8
 530 944 530 944 430 860 c 128,-1,9
 330 776 330 776 308 648 c 2,10,-1
 286 512 l 1,0,1
94 390 m 2,11,-1
 206 1062 l 1,12,-1
 372 1062 l 1,13,-1
 344 902 l 1,14,15
 386 978 386 978 485 1037 c 128,-1,16
 584 1096 584 1096 702 1096 c 0,17,18
 864 1096 864 1096 945 1013 c 128,-1,19
 1026 930 1026 930 1004 794 c 0,20,21
 954 498 954 498 506 428 c 0,22,23
 346 400 346 400 262 376 c 0,24,25
 260 368 260 368 257 344 c 128,-1,26
 254 320 254 320 252 312 c 0,27,28
 238 224 238 224 292 167 c 128,-1,29
 346 110 346 110 452 110 c 0,30,31
 538 110 538 110 626 152 c 128,-1,32
 714 194 714 194 784 268 c 1,33,-1
 876 172 l 1,34,35
 782 76 782 76 665 21 c 128,-1,36
 548 -34 548 -34 430 -34 c 0,37,38
 24 -34 24 -34 94 390 c 2,11,-1
EndSplineSet
EndChar

StartChar: uni0251
Encoding: 593 593 517
Width: 1084
GlyphClass: 2
Flags: W
LayerCount: 2
Fore
SplineSet
240 532 m 0,0,1
 208 338 208 338 267 228 c 128,-1,2
 326 118 326 118 444 118 c 0,3,4
 546 118 546 118 646 224 c 128,-1,5
 746 330 746 330 780 532 c 0,6,7
 810 718 810 718 752 831 c 128,-1,8
 694 944 694 944 580 944 c 0,9,10
 456 944 456 944 364 833 c 128,-1,11
 272 722 272 722 240 532 c 0,0,1
66 532 m 0,12,13
 110 792 110 792 255 944 c 128,-1,14
 400 1096 400 1096 582 1096 c 0,15,16
 684 1096 684 1096 753 1034 c 128,-1,17
 822 972 822 972 836 900 c 1,18,-1
 864 1062 l 1,19,-1
 1032 1062 l 1,20,-1
 856 0 l 1,21,-1
 692 0 l 1,22,-1
 720 174 l 1,23,24
 672 88 672 88 584 27 c 128,-1,25
 496 -34 496 -34 396 -34 c 0,26,27
 226 -34 226 -34 123 108 c 128,-1,28
 20 250 20 250 66 532 c 0,12,13
EndSplineSet
EndChar

StartChar: uni0252
Encoding: 594 594 518
Width: 1084
GlyphClass: 2
Flags: W
LayerCount: 2
Fore
SplineSet
40 0 m 1,0,-1
 216 1062 l 1,1,-1
 386 1062 l 1,2,-1
 358 896 l 1,3,4
 400 972 400 972 489 1034 c 128,-1,5
 578 1096 578 1096 682 1096 c 0,6,7
 868 1096 868 1096 959 945 c 128,-1,8
 1050 794 1050 794 1006 532 c 0,9,10
 982 384 982 384 925 270 c 128,-1,11
 868 156 868 156 796 92 c 128,-1,12
 724 28 724 28 647 -3 c 128,-1,13
 570 -34 570 -34 494 -34 c 0,14,15
 390 -34 390 -34 322 27 c 128,-1,16
 254 88 254 88 236 172 c 1,17,-1
 208 0 l 1,18,-1
 40 0 l 1,0,-1
296 532 m 0,19,20
 264 342 264 342 323 230 c 128,-1,21
 382 118 382 118 494 118 c 0,22,23
 618 118 618 118 711 229 c 128,-1,24
 804 340 804 340 836 532 c 0,25,26
 868 722 868 722 812 833 c 128,-1,27
 756 944 756 944 632 944 c 0,28,29
 518 944 518 944 422 831 c 128,-1,30
 326 718 326 718 296 532 c 0,19,20
EndSplineSet
EndChar

StartChar: uni0253
Encoding: 595 595 519
Width: 1092
GlyphClass: 2
Flags: W
LayerCount: 2
Fore
SplineSet
300 530 m 0,0,1
 268 342 268 342 327 230 c 128,-1,2
 386 118 386 118 500 118 c 0,3,4
 624 118 624 118 718 229 c 128,-1,5
 812 340 812 340 844 532 c 0,6,7
 874 716 874 716 819 830 c 128,-1,8
 764 944 764 944 638 944 c 0,9,10
 520 944 520 944 425 829 c 128,-1,11
 330 714 330 714 300 530 c 0,0,1
46 0 m 1,12,-1
 232 1118 l 2,13,14
 266 1322 266 1322 378 1434 c 128,-1,15
 490 1546 490 1546 658 1546 c 0,16,17
 740 1546 740 1546 866 1520 c 1,18,-1
 834 1364 l 1,19,20
 704 1386 704 1386 658 1386 c 0,21,22
 552 1386 552 1386 485 1307 c 128,-1,23
 418 1228 418 1228 396 1086 c 2,24,-1
 364 896 l 1,25,26
 416 980 416 980 501 1038 c 128,-1,27
 586 1096 586 1096 686 1096 c 0,28,29
 878 1096 878 1096 967 942 c 128,-1,30
 1056 788 1056 788 1014 532 c 0,31,32
 970 262 970 262 822 114 c 128,-1,33
 674 -34 674 -34 500 -34 c 0,34,35
 390 -34 390 -34 326 28 c 128,-1,36
 262 90 262 90 242 172 c 1,37,-1
 214 0 l 1,38,-1
 46 0 l 1,12,-1
EndSplineSet
EndChar

StartChar: uni0254
Encoding: 596 596 520
Width: 954
GlyphClass: 2
Flags: W
LayerCount: 2
Fore
SplineSet
-10 266 m 1,0,-1
 140 312 l 1,1,2
 156 236 156 236 213 177 c 128,-1,3
 270 118 270 118 354 118 c 0,4,5
 478 118 478 118 576 229 c 128,-1,6
 674 340 674 340 704 530 c 0,7,8
 734 708 734 708 678 826 c 128,-1,9
 622 944 622 944 490 944 c 0,10,11
 414 944 414 944 346 891 c 128,-1,12
 278 838 278 838 242 762 c 1,13,-1
 106 808 l 1,14,15
 156 922 156 922 268 1009 c 128,-1,16
 380 1096 380 1096 520 1096 c 0,17,18
 726 1096 726 1096 823 940 c 128,-1,19
 920 784 920 784 878 530 c 0,20,21
 836 272 836 272 686 119 c 128,-1,22
 536 -34 536 -34 332 -34 c 0,23,24
 190 -34 190 -34 98 55 c 128,-1,25
 6 144 6 144 -10 266 c 1,0,-1
EndSplineSet
EndChar

StartChar: uni0255
Encoding: 597 597 521
Width: 956
GlyphClass: 2
Flags: W
LayerCount: 2
Fore
SplineSet
390 130 m 1,0,1
 446 106 446 106 512 106 c 0,2,3
 584 106 584 106 633 137 c 128,-1,4
 682 168 682 168 688 208 c 0,5,6
 700 282 700 282 606 282 c 0,7,8
 542 282 542 282 483 236 c 128,-1,9
 424 190 424 190 390 130 c 1,0,1
66 542 m 0,10,11
 104 776 104 776 252 936 c 128,-1,12
 400 1096 400 1096 614 1096 c 0,13,14
 756 1096 756 1096 836 1007 c 128,-1,15
 916 918 916 918 928 808 c 1,16,-1
 778 762 l 1,17,18
 766 834 766 834 717 889 c 128,-1,19
 668 944 668 944 588 944 c 0,20,21
 458 944 458 944 364 827 c 128,-1,22
 270 710 270 710 240 532 c 0,23,24
 206 328 206 328 286 214 c 1,25,26
 346 302 346 302 435 362 c 128,-1,27
 524 422 524 422 634 422 c 0,28,29
 746 422 746 422 803 359 c 128,-1,30
 860 296 860 296 846 208 c 0,31,32
 828 100 828 100 731 33 c 128,-1,33
 634 -34 634 -34 482 -34 c 0,34,35
 382 -34 382 -34 310 -12 c 1,36,37
 274 -78 274 -78 256 -130 c 1,38,-1
 114 -92 l 1,39,40
 132 -40 132 -40 186 54 c 1,41,42
 10 208 10 208 66 542 c 0,10,11
EndSplineSet
EndChar

StartChar: uni0256
Encoding: 598 598 522
Width: 1106
GlyphClass: 2
Flags: W
LayerCount: 2
Fore
SplineSet
66 532 m 0,0,1
 110 796 110 796 256 946 c 128,-1,2
 402 1096 402 1096 584 1096 c 0,3,4
 688 1096 688 1096 754 1037 c 128,-1,5
 820 978 820 978 838 900 c 1,6,-1
 942 1524 l 1,7,-1
 1112 1524 l 1,8,-1
 850 -68 l 2,9,10
 830 -192 830 -192 858 -247 c 128,-1,11
 886 -302 886 -302 966 -302 c 0,12,13
 1032 -302 1032 -302 1098 -290 c 1,14,-1
 1072 -446 l 1,15,16
 952 -462 952 -462 910 -462 c 0,17,18
 616 -462 616 -462 680 -78 c 2,19,-1
 722 172 l 1,20,21
 672 82 672 82 584 24 c 128,-1,22
 496 -34 496 -34 396 -34 c 0,23,24
 320 -34 320 -34 252 -3 c 128,-1,25
 184 28 184 28 132 93 c 128,-1,26
 80 158 80 158 61 272 c 128,-1,27
 42 386 42 386 66 532 c 0,0,1
240 532 m 256,28,29
 208 342 208 342 265 230 c 128,-1,30
 322 118 322 118 444 118 c 0,31,32
 558 118 558 118 654 230 c 128,-1,33
 750 342 750 342 782 532 c 0,34,35
 812 718 812 718 754 831 c 128,-1,36
 696 944 696 944 582 944 c 0,37,38
 460 944 460 944 366 833 c 128,-1,39
 272 722 272 722 240 532 c 256,28,29
EndSplineSet
EndChar

StartChar: uni0257
Encoding: 599 599 523
Width: 1106
GlyphClass: 2
Flags: W
LayerCount: 2
Fore
SplineSet
66 532 m 0,0,1
 110 796 110 796 256 946 c 128,-1,2
 402 1096 402 1096 584 1096 c 0,3,4
 686 1096 686 1096 753 1035 c 128,-1,5
 820 974 820 974 838 896 c 1,6,-1
 894 1232 l 2,7,8
 920 1384 920 1384 1023 1465 c 128,-1,9
 1126 1546 1126 1546 1270 1546 c 0,10,11
 1300 1546 1300 1546 1416 1536 c 1,12,-1
 1390 1378 l 1,13,14
 1344 1384 1344 1384 1268 1384 c 256,15,16
 1192 1384 1192 1384 1133 1334 c 128,-1,17
 1074 1284 1074 1284 1058 1192 c 2,18,-1
 860 0 l 1,19,-1
 696 0 l 1,20,-1
 724 176 l 1,21,22
 678 88 678 88 588 27 c 128,-1,23
 498 -34 498 -34 396 -34 c 0,24,25
 228 -34 228 -34 124 108 c 128,-1,26
 20 250 20 250 66 532 c 0,0,1
240 532 m 0,27,28
 208 338 208 338 265 228 c 128,-1,29
 322 118 322 118 444 118 c 0,30,31
 556 118 556 118 653 228 c 128,-1,32
 750 338 750 338 782 532 c 0,33,34
 812 718 812 718 754 831 c 128,-1,35
 696 944 696 944 582 944 c 0,36,37
 458 944 458 944 365 832 c 128,-1,38
 272 720 272 720 240 532 c 0,27,28
EndSplineSet
EndChar

StartChar: uni0258
Encoding: 600 600 524
Width: 1044
GlyphClass: 2
Flags: W
LayerCount: 2
Fore
SplineSet
248 604 m 1,0,-1
 806 604 l 1,1,2
 822 746 822 746 764 847 c 128,-1,3
 706 948 706 948 578 948 c 256,4,5
 450 948 450 948 362 848 c 128,-1,6
 274 748 274 748 248 604 c 1,0,-1
54 470 m 1,7,-1
 68 554 l 2,8,9
 108 798 108 798 257 947 c 128,-1,10
 406 1096 406 1096 604 1096 c 0,11,12
 804 1096 804 1096 907 943 c 128,-1,13
 1010 790 1010 790 968 538 c 0,14,15
 924 274 924 274 769 120 c 128,-1,16
 614 -34 614 -34 406 -34 c 0,17,18
 248 -34 248 -34 155 42 c 128,-1,19
 62 118 62 118 34 234 c 1,20,-1
 186 284 l 1,21,22
 210 206 210 206 273 160 c 128,-1,23
 336 114 336 114 430 114 c 0,24,25
 566 114 566 114 663 217 c 128,-1,26
 760 320 760 320 786 470 c 1,27,-1
 54 470 l 1,7,-1
EndSplineSet
EndChar

StartChar: uni025A
Encoding: 602 602 526
Width: 1232
GlyphClass: 2
Flags: W
LayerCount: 2
Fore
SplineSet
50 452 m 1,0,-1
 798 776 l 1,1,2
 738 946 738 946 568 946 c 0,3,4
 474 946 474 946 396 900 c 128,-1,5
 318 854 318 854 266 776 c 1,6,-1
 130 826 l 1,7,8
 200 948 200 948 320 1022 c 128,-1,9
 440 1096 440 1096 594 1096 c 0,10,11
 734 1096 734 1096 824 1028 c 128,-1,12
 914 960 914 960 950 848 c 1,13,-1
 1108 924 l 1,14,15
 1116 860 1116 860 1154 820 c 128,-1,16
 1192 780 1192 780 1244 780 c 0,17,18
 1286 780 1286 780 1318 790 c 1,19,-1
 1294 648 l 1,20,21
 1250 634 1250 634 1206 634 c 0,22,23
 1142 634 1142 634 1098 663 c 128,-1,24
 1054 692 1054 692 1040 734 c 1,25,-1
 978 702 l 1,26,27
 982 628 982 628 966 528 c 0,28,29
 926 282 926 282 775 124 c 128,-1,30
 624 -34 624 -34 416 -34 c 0,31,32
 214 -34 214 -34 120 110 c 128,-1,33
 26 254 26 254 50 452 c 1,0,-1
216 380 m 1,34,35
 216 254 216 254 279 184 c 128,-1,36
 342 114 342 114 440 114 c 0,37,38
 562 114 562 114 655 213 c 128,-1,39
 748 312 748 312 780 476 c 0,40,41
 792 520 792 520 800 560 c 0,42,43
 806 596 806 596 806 628 c 1,44,-1
 216 380 l 1,34,35
EndSplineSet
EndChar

StartChar: uni025B
Encoding: 603 603 527
Width: 900
GlyphClass: 2
Flags: W
LayerCount: 2
Fore
SplineSet
26 292 m 0,0,1
 42 394 42 394 111 464 c 128,-1,2
 180 534 180 534 268 562 c 1,3,4
 122 634 122 634 148 800 c 0,5,6
 170 930 170 930 281 1013 c 128,-1,7
 392 1096 392 1096 558 1096 c 0,8,9
 800 1096 800 1096 884 868 c 1,10,-1
 738 806 l 1,11,12
 712 866 712 866 658 905 c 128,-1,13
 604 944 604 944 536 944 c 0,14,15
 440 944 440 944 385 902 c 128,-1,16
 330 860 330 860 318 788 c 0,17,18
 306 714 306 714 355 667 c 128,-1,19
 404 620 404 620 518 620 c 2,20,-1
 610 620 l 1,21,-1
 588 486 l 1,22,-1
 496 486 l 2,23,24
 358 486 358 486 286 430 c 128,-1,25
 214 374 214 374 200 294 c 0,26,27
 186 212 186 212 246 165 c 128,-1,28
 306 118 306 118 402 118 c 0,29,30
 480 118 480 118 556 159 c 128,-1,31
 632 200 632 200 678 256 c 1,32,-1
 800 190 l 1,33,34
 728 90 728 90 617 28 c 128,-1,35
 506 -34 506 -34 376 -34 c 0,36,37
 200 -34 200 -34 100 52 c 128,-1,38
 0 138 0 138 26 292 c 0,0,1
EndSplineSet
EndChar

StartChar: uni025C
Encoding: 604 604 528
Width: 902
GlyphClass: 2
Flags: W
LayerCount: 2
Fore
SplineSet
-24 190 m 1,0,-1
 122 256 l 1,1,2
 148 200 148 200 210 159 c 128,-1,3
 272 118 272 118 348 118 c 0,4,5
 446 118 446 118 523 165 c 128,-1,6
 600 212 600 212 614 294 c 0,7,8
 628 374 628 374 573 430 c 128,-1,9
 518 486 518 486 382 486 c 2,10,-1
 288 486 l 1,11,-1
 310 620 l 1,12,-1
 404 620 l 2,13,14
 518 620 518 620 582 667 c 128,-1,15
 646 714 646 714 658 788 c 0,16,17
 670 860 670 860 627 902 c 128,-1,18
 584 944 584 944 490 944 c 0,19,20
 424 944 424 944 358 905 c 128,-1,21
 292 866 292 866 246 806 c 1,22,-1
 116 868 l 1,23,24
 276 1096 276 1096 516 1096 c 0,25,26
 684 1096 684 1096 768 1013 c 128,-1,27
 852 930 852 930 832 800 c 0,28,29
 804 634 804 634 634 562 c 1,30,-1
 636 562 l 1,31,32
 714 534 714 534 758 464 c 128,-1,33
 802 394 802 394 784 292 c 0,34,35
 758 138 758 138 631 52 c 128,-1,36
 504 -34 504 -34 326 -34 c 0,37,38
 200 -34 200 -34 107 28 c 128,-1,39
 14 90 14 90 -24 190 c 1,0,-1
EndSplineSet
EndChar

StartChar: uni025D
Encoding: 605 605 529
Width: 1038
GlyphClass: 2
Flags: W
LayerCount: 2
Fore
SplineSet
-24 190 m 1,0,-1
 122 256 l 1,1,2
 144 204 144 204 207 161 c 128,-1,3
 270 118 270 118 348 118 c 0,4,5
 456 118 456 118 529 168 c 128,-1,6
 602 218 602 218 614 296 c 0,7,8
 628 376 628 376 571 431 c 128,-1,9
 514 486 514 486 380 486 c 2,10,-1
 288 486 l 1,11,-1
 310 620 l 1,12,-1
 402 620 l 2,13,14
 518 620 518 620 582 667 c 128,-1,15
 646 714 646 714 658 788 c 0,16,17
 670 860 670 860 628 902 c 128,-1,18
 586 944 586 944 490 944 c 0,19,20
 352 944 352 944 246 806 c 1,21,-1
 116 868 l 1,22,23
 278 1096 278 1096 516 1096 c 0,24,25
 748 1096 748 1096 816 944 c 1,26,-1
 966 1026 l 1,27,28
 978 960 978 960 1017 915 c 128,-1,29
 1056 870 1056 870 1110 870 c 0,30,31
 1152 870 1152 870 1184 880 c 1,32,-1
 1160 736 l 1,33,34
 1124 724 1124 724 1072 724 c 0,35,36
 1008 724 1008 724 960 757 c 128,-1,37
 912 790 912 790 898 834 c 1,38,-1
 828 798 l 1,39,40
 826 780 826 780 818 750 c 0,41,42
 796 686 796 686 744 637 c 128,-1,43
 692 588 692 588 636 564 c 1,44,-1
 636 562 l 1,45,46
 712 534 712 534 757 465 c 128,-1,47
 802 396 802 396 784 294 c 0,48,49
 758 138 758 138 632 52 c 128,-1,50
 506 -34 506 -34 322 -34 c 0,51,52
 196 -34 196 -34 103 30 c 128,-1,53
 10 94 10 94 -24 190 c 1,0,-1
EndSplineSet
EndChar

StartChar: uni025E
Encoding: 606 606 530
Width: 1042
GlyphClass: 2
Flags: W
LayerCount: 2
Fore
SplineSet
66 534 m 0,0,1
 108 784 108 784 256 940 c 128,-1,2
 404 1096 404 1096 636 1096 c 0,3,4
 800 1096 800 1096 895 1017 c 128,-1,5
 990 938 990 938 966 794 c 0,6,7
 952 708 952 708 901 645 c 128,-1,8
 850 582 850 582 784 552 c 1,9,10
 856 526 856 526 897 461 c 128,-1,11
 938 396 938 396 920 292 c 0,12,13
 894 132 894 132 765 49 c 128,-1,14
 636 -34 636 -34 450 -34 c 0,15,16
 224 -34 224 -34 123 117 c 128,-1,17
 22 268 22 268 66 534 c 0,0,1
240 534 m 0,18,19
 220 416 220 416 235 330 c 128,-1,20
 250 244 250 244 290 200 c 128,-1,21
 330 156 330 156 377 137 c 128,-1,22
 424 118 424 118 478 118 c 0,23,24
 598 118 598 118 666 163 c 128,-1,25
 734 208 734 208 748 288 c 0,26,27
 760 362 760 362 711 417 c 128,-1,28
 662 472 662 472 534 472 c 2,29,-1
 464 472 l 1,30,-1
 486 612 l 1,31,-1
 558 612 l 2,32,33
 664 612 664 612 722 662 c 128,-1,34
 780 712 780 712 792 780 c 0,35,36
 806 860 806 860 757 902 c 128,-1,37
 708 944 708 944 612 944 c 0,38,39
 484 944 484 944 379 842 c 128,-1,40
 274 740 274 740 240 534 c 0,18,19
EndSplineSet
EndChar

StartChar: uni025F
Encoding: 607 607 531
Width: 520
GlyphClass: 2
Flags: W
LayerCount: 2
Fore
SplineSet
-30 526 m 1,0,-1
 -6 672 l 1,1,-1
 196 672 l 1,2,-1
 262 1062 l 1,3,-1
 432 1062 l 1,4,-1
 368 672 l 1,5,-1
 556 672 l 1,6,-1
 532 526 l 1,7,-1
 344 526 l 1,8,-1
 244 -76 l 2,9,10
 214 -260 214 -260 121 -354 c 128,-1,11
 28 -448 28 -448 -116 -448 c 2,12,-1
 -186 -448 l 1,13,-1
 -160 -296 l 1,14,-1
 -120 -296 l 2,15,16
 36 -296 36 -296 74 -66 c 2,17,-1
 172 526 l 1,18,-1
 -30 526 l 1,0,-1
EndSplineSet
EndChar

StartChar: uni0260
Encoding: 608 608 532
Width: 1090
GlyphClass: 2
Flags: W
LayerCount: 2
Fore
SplineSet
70 552 m 0,0,1
 110 798 110 798 253 947 c 128,-1,2
 396 1096 396 1096 578 1096 c 0,3,4
 684 1096 684 1096 743 1039 c 128,-1,5
 802 982 802 982 824 906 c 1,6,-1
 878 1230 l 2,7,8
 902 1380 902 1380 1008 1463 c 128,-1,9
 1114 1546 1114 1546 1254 1546 c 0,10,11
 1310 1546 1310 1546 1400 1538 c 1,12,-1
 1374 1380 l 1,13,14
 1330 1386 1330 1386 1258 1386 c 0,15,16
 1178 1386 1178 1386 1116 1335 c 128,-1,17
 1054 1284 1054 1284 1038 1192 c 2,18,-1
 864 132 l 2,19,20
 842 0 842 0 806 -100 c 128,-1,21
 770 -200 770 -200 710 -286 c 128,-1,22
 650 -372 650 -372 553 -417 c 128,-1,23
 456 -462 456 -462 330 -462 c 0,24,25
 90 -462 90 -462 -16 -264 c 1,26,-1
 110 -182 l 1,27,28
 204 -314 204 -314 358 -314 c 0,29,30
 490 -314 490 -314 572 -207 c 128,-1,31
 654 -100 654 -100 682 62 c 2,32,-1
 706 186 l 1,33,34
 656 106 656 106 577 56 c 128,-1,35
 498 6 498 6 402 6 c 0,36,37
 216 6 216 6 122 155 c 128,-1,38
 28 304 28 304 70 552 c 0,0,1
244 552 m 0,39,40
 212 364 212 364 270 261 c 128,-1,41
 328 158 328 158 442 158 c 0,42,43
 562 158 562 158 648 262 c 128,-1,44
 734 366 734 366 766 552 c 0,45,46
 796 732 796 732 742 838 c 128,-1,47
 688 944 688 944 574 944 c 0,48,49
 456 944 456 944 365 837 c 128,-1,50
 274 730 274 730 244 552 c 0,39,40
EndSplineSet
EndChar

StartChar: uni0262
Encoding: 610 610 534
Width: 1064
GlyphClass: 2
Flags: W
LayerCount: 2
Fore
SplineSet
64 528 m 0,0,1
 106 786 106 786 260 941 c 128,-1,2
 414 1096 414 1096 642 1096 c 0,3,4
 894 1096 894 1096 982 844 c 1,5,-1
 830 780 l 1,6,7
 764 942 764 942 616 942 c 0,8,9
 474 942 474 942 372 830 c 128,-1,10
 270 718 270 718 240 528 c 256,11,12
 208 338 208 338 273 229 c 128,-1,13
 338 120 338 120 478 120 c 0,14,15
 594 120 594 120 673 193 c 128,-1,16
 752 266 752 266 774 376 c 2,17,-1
 786 444 l 1,18,-1
 504 444 l 1,19,-1
 528 586 l 1,20,-1
 970 586 l 1,21,-1
 872 0 l 1,22,-1
 742 0 l 1,23,-1
 758 126 l 1,24,25
 718 62 718 62 633 14 c 128,-1,26
 548 -34 548 -34 444 -34 c 0,27,28
 234 -34 234 -34 127 114 c 128,-1,29
 20 262 20 262 64 528 c 0,0,1
EndSplineSet
EndChar

StartChar: uni0263
Encoding: 611 611 535
Width: 952
GlyphClass: 2
Flags: W
LayerCount: 2
Fore
SplineSet
96 1062 m 1,0,-1
 284 1062 l 1,1,-1
 410 288 l 1,2,-1
 416 222 l 1,3,-1
 418 222 l 1,4,-1
 452 286 l 1,5,-1
 834 1062 l 1,6,-1
 1020 1062 l 1,7,-1
 518 116 l 1,8,9
 632 -44 632 -44 608 -188 c 0,10,11
 588 -308 588 -308 503 -385 c 128,-1,12
 418 -462 418 -462 304 -462 c 0,13,14
 196 -462 196 -462 136 -387 c 128,-1,15
 76 -312 76 -312 96 -188 c 0,16,17
 118 -54 118 -54 286 112 c 1,18,-1
 96 1062 l 1,0,-1
240 -188 m 0,19,20
 230 -248 230 -248 253 -291 c 128,-1,21
 276 -334 276 -334 326 -334 c 0,22,23
 380 -334 380 -334 419 -290 c 128,-1,24
 458 -246 458 -246 468 -188 c 0,25,26
 486 -82 486 -82 388 44 c 1,27,28
 260 -70 260 -70 240 -188 c 0,19,20
EndSplineSet
Substitution2: "'sups' Superscript lookup 5 subtable" uni02E0
Substitution2: "'aalt' Access All Alternates lookup 0 subtable" uni02E0
EndChar

StartChar: uni0264
Encoding: 612 612 536
Width: 904
GlyphClass: 2
Flags: W
LayerCount: 2
Fore
SplineSet
468 666 m 1,0,1
 300 484 300 484 272 316 c 0,2,3
 258 230 258 230 287 175 c 128,-1,4
 316 120 316 120 384 120 c 0,5,6
 446 120 446 120 492 178 c 128,-1,7
 538 236 538 236 552 316 c 0,8,9
 568 416 568 416 545 495 c 128,-1,10
 522 574 522 574 468 666 c 1,0,1
104 930 m 1,11,-1
 128 1078 l 1,12,13
 190 1096 190 1096 240 1096 c 0,14,15
 328 1096 328 1096 388 1053 c 128,-1,16
 448 1010 448 1010 510 920 c 1,17,18
 684 1096 684 1096 842 1096 c 0,19,20
 896 1096 896 1096 950 1080 c 1,21,-1
 924 926 l 1,22,23
 874 942 874 942 818 942 c 256,24,25
 762 942 762 942 711 906 c 128,-1,26
 660 870 660 870 596 804 c 1,27,28
 678 666 678 666 710 559 c 128,-1,29
 742 452 742 452 720 314 c 0,30,31
 694 160 694 160 597 63 c 128,-1,32
 500 -34 500 -34 358 -34 c 0,33,34
 206 -34 206 -34 143 64 c 128,-1,35
 80 162 80 162 104 314 c 0,36,37
 120 412 120 412 170 508 c 128,-1,38
 220 604 220 604 265 661 c 128,-1,39
 310 718 310 718 390 804 c 1,40,41
 350 870 350 870 310 906 c 128,-1,42
 270 942 270 942 208 942 c 0,43,44
 204 942 204 942 104 930 c 1,11,-1
EndSplineSet
EndChar

StartChar: uni0265
Encoding: 613 613 537
Width: 1060
GlyphClass: 2
Flags: W
LayerCount: 2
Fore
SplineSet
92 376 m 2,0,-1
 206 1062 l 1,1,-1
 374 1062 l 1,2,-1
 266 400 l 2,3,4
 220 118 220 118 414 118 c 0,5,6
 520 118 520 118 614 214 c 128,-1,7
 708 310 708 310 730 440 c 2,8,-1
 832 1062 l 1,9,-1
 1000 1062 l 1,10,-1
 750 -454 l 1,11,-1
 582 -454 l 1,12,-1
 682 150 l 1,13,-1
 680 150 l 1,14,15
 632 78 632 78 545 22 c 128,-1,16
 458 -34 458 -34 356 -34 c 0,17,18
 292 -34 292 -34 241 -16 c 128,-1,19
 190 2 190 2 146 44 c 128,-1,20
 102 86 102 86 87 171 c 128,-1,21
 72 256 72 256 92 376 c 2,0,-1
EndSplineSet
EndChar

StartChar: uni0266
Encoding: 614 614 538
Width: 1060
GlyphClass: 2
Flags: W
LayerCount: 2
Fore
SplineSet
50 0 m 1,0,-1
 250 1206 l 2,1,2
 278 1370 278 1370 386 1458 c 128,-1,3
 494 1546 494 1546 638 1546 c 0,4,5
 730 1546 730 1546 826 1532 c 1,6,-1
 800 1376 l 1,7,8
 740 1386 740 1386 638 1386 c 0,9,10
 548 1386 548 1386 489 1323 c 128,-1,11
 430 1260 430 1260 416 1176 c 2,12,-1
 372 912 l 1,13,-1
 374 912 l 1,14,15
 426 988 426 988 511 1042 c 128,-1,16
 596 1096 596 1096 696 1096 c 0,17,18
 756 1096 756 1096 807 1079 c 128,-1,19
 858 1062 858 1062 902 1020 c 128,-1,20
 946 978 946 978 962 892 c 128,-1,21
 978 806 978 806 958 684 c 2,22,-1
 844 0 l 1,23,-1
 674 0 l 1,24,-1
 784 658 l 2,25,26
 832 944 832 944 640 944 c 0,27,28
 532 944 532 944 439 849 c 128,-1,29
 346 754 346 754 324 622 c 2,30,-1
 220 0 l 1,31,-1
 50 0 l 1,0,-1
EndSplineSet
Substitution2: "'sups' Superscript lookup 5 subtable" uni02B1
Substitution2: "'aalt' Access All Alternates lookup 0 subtable" uni02B1
EndChar

StartChar: uni0267
Encoding: 615 615 539
Width: 1068
GlyphClass: 2
Flags: W
LayerCount: 2
Fore
SplineSet
50 0 m 1,0,-1
 250 1204 l 2,1,2
 278 1368 278 1368 386 1457 c 128,-1,3
 494 1546 494 1546 638 1546 c 0,4,5
 730 1546 730 1546 826 1532 c 1,6,-1
 800 1376 l 1,7,8
 740 1386 740 1386 638 1386 c 0,9,10
 546 1386 546 1386 488 1322 c 128,-1,11
 430 1258 430 1258 414 1170 c 2,12,-1
 372 912 l 1,13,-1
 374 912 l 1,14,15
 426 988 426 988 511 1042 c 128,-1,16
 596 1096 596 1096 696 1096 c 0,17,18
 754 1096 754 1096 805 1079 c 128,-1,19
 856 1062 856 1062 901 1020 c 128,-1,20
 946 978 946 978 962 893 c 128,-1,21
 978 808 978 808 958 684 c 2,22,-1
 830 -80 l 2,23,24
 798 -272 798 -272 708 -366 c 128,-1,25
 618 -460 618 -460 450 -460 c 0,26,27
 400 -460 400 -460 308 -452 c 1,28,-1
 332 -300 l 1,29,30
 408 -308 408 -308 446 -308 c 0,31,32
 540 -308 540 -308 590 -257 c 128,-1,33
 640 -206 640 -206 662 -74 c 2,34,-1
 784 658 l 2,35,36
 832 944 832 944 640 944 c 0,37,38
 532 944 532 944 439 847 c 128,-1,39
 346 750 346 750 324 622 c 2,40,-1
 220 0 l 1,41,-1
 50 0 l 1,0,-1
EndSplineSet
EndChar

StartChar: uni0268
Encoding: 616 616 540
Width: 506
GlyphClass: 2
Flags: W
LayerCount: 2
Fore
SplineSet
272 1272 m 1,0,-1
 308 1492 l 1,1,-1
 508 1492 l 1,2,-1
 472 1272 l 1,3,-1
 272 1272 l 1,0,-1
4 512 m 1,4,-1
 28 660 l 1,5,-1
 188 660 l 1,6,-1
 254 1062 l 1,7,-1
 422 1062 l 1,8,-1
 354 660 l 1,9,-1
 510 660 l 1,10,-1
 486 512 l 1,11,-1
 330 512 l 1,12,-1
 246 0 l 1,13,-1
 78 0 l 1,14,-1
 162 512 l 1,15,-1
 4 512 l 1,4,-1
EndSplineSet
EndChar

StartChar: uni0269
Encoding: 617 617 541
Width: 616
GlyphClass: 2
Flags: W
LayerCount: 2
Fore
SplineSet
84 300 m 2,0,-1
 210 1062 l 1,1,-1
 380 1062 l 1,2,-1
 256 310 l 2,3,4
 226 126 226 126 370 126 c 0,5,6
 446 126 446 126 508 134 c 1,7,-1
 482 -20 l 1,8,9
 354 -34 354 -34 312 -34 c 0,10,11
 184 -34 184 -34 120 49 c 128,-1,12
 56 132 56 132 84 300 c 2,0,-1
EndSplineSet
EndChar

